<?xml version="1.0" encoding="utf-8"?>
<!-- Generator: Adobe Illustrator 19.2.1, SVG Export Plug-In . SVG Version: 6.00 Build 0)  -->
<svg version="1.1" id="Capa_1" xmlns="http://www.w3.org/2000/svg" xmlns:xlink="http://www.w3.org/1999/xlink" x="0px" y="0px"
	 viewBox="0 0 169.9 64" style="enable-background:new 0 0 169.9 64;" xml:space="preserve">
<style type="text/css">
	.st0{fill:#FFFFFF;}
</style>
<g>
	<g>
		<path class="st0" d="M6,53.5h1.2v6.4H6V53.5z"/>
		<path class="st0" d="M15.9,53.5h3.5v1.2h-1.2v5.2h-1.2v-5.2h-1.1V53.5z"/>
		<path class="st0" d="M44.7,54.6l-0.9,0.8c-0.6-0.6-1.2-0.9-2-0.9c-0.6,0-1.1,0.2-1.5,0.6c-0.4,0.4-0.6,0.9-0.6,1.5
			c0,0.4,0.1,0.8,0.3,1.1c0.2,0.3,0.4,0.6,0.8,0.8c0.3,0.2,0.7,0.3,1.1,0.3c0.4,0,0.7-0.1,1-0.2c0.3-0.1,0.6-0.4,1-0.7l0.8,0.9
			c-0.5,0.5-0.9,0.8-1.3,1c-0.4,0.2-0.9,0.3-1.4,0.3c-1,0-1.8-0.3-2.4-0.9c-0.6-0.6-0.9-1.4-0.9-2.4c0-0.6,0.1-1.2,0.4-1.7
			c0.3-0.5,0.7-0.9,1.2-1.2c0.5-0.3,1.1-0.5,1.7-0.5c0.5,0,1,0.1,1.5,0.3C43.9,53.9,44.3,54.2,44.7,54.6z"/>
		<path class="st0" d="M56.7,53.3c0.9,0,1.7,0.3,2.3,1c0.7,0.7,1,1.5,1,2.4c0,0.9-0.3,1.7-1,2.4c-0.6,0.6-1.4,1-2.3,1
			c-1,0-1.8-0.3-2.4-1c-0.6-0.7-1-1.5-1-2.4c0-0.6,0.1-1.2,0.4-1.7c0.3-0.5,0.7-0.9,1.2-1.2C55.6,53.5,56.1,53.3,56.7,53.3z
			 M56.7,54.5c-0.6,0-1.1,0.2-1.5,0.6c-0.4,0.4-0.6,0.9-0.6,1.6c0,0.7,0.3,1.3,0.8,1.7c0.4,0.3,0.8,0.5,1.4,0.5
			c0.6,0,1.1-0.2,1.5-0.6s0.6-0.9,0.6-1.5c0-0.6-0.2-1.1-0.6-1.5C57.8,54.7,57.3,54.5,56.7,54.5z"/>
		<path class="st0" d="M69.2,53.5h1.2l2.7,4.2v-4.2h1.2v6.4h-1.2l-2.7-4.2v4.2h-1.2V53.5z"/>
		<path class="st0" d="M87.1,54.4l-0.9,0.8c-0.3-0.4-0.6-0.7-1-0.7c-0.2,0-0.3,0-0.4,0.1c-0.1,0.1-0.2,0.2-0.2,0.3
			c0,0.1,0,0.2,0.1,0.3c0.1,0.1,0.4,0.4,0.9,0.8c0.5,0.4,0.7,0.6,0.8,0.7c0.2,0.2,0.4,0.5,0.5,0.7c0.1,0.2,0.2,0.5,0.2,0.7
			c0,0.5-0.2,1-0.5,1.3c-0.4,0.3-0.8,0.5-1.4,0.5c-0.5,0-0.9-0.1-1.2-0.3s-0.6-0.6-0.9-1.1l1-0.6c0.3,0.6,0.7,0.8,1.1,0.8
			c0.2,0,0.4-0.1,0.5-0.2s0.2-0.3,0.2-0.4c0-0.1-0.1-0.3-0.2-0.4c-0.1-0.1-0.3-0.4-0.7-0.7c-0.7-0.6-1.1-1-1.3-1.3
			c-0.2-0.3-0.3-0.6-0.3-0.9c0-0.4,0.2-0.8,0.5-1.1c0.3-0.3,0.8-0.5,1.2-0.5c0.3,0,0.6,0.1,0.9,0.2C86.5,53.7,86.8,54,87.1,54.4z"/>
		<path class="st0" d="M96.4,53.5h1.2v4.1c0,0.4,0,0.6,0.1,0.8c0.1,0.1,0.2,0.3,0.3,0.4c0.1,0.1,0.3,0.1,0.5,0.1
			c0.2,0,0.4,0,0.6-0.1c0.2-0.1,0.3-0.2,0.3-0.4c0.1-0.2,0.1-0.4,0.1-0.9v-4h1.2v3.8c0,0.6,0,1.1-0.1,1.3c-0.1,0.2-0.2,0.5-0.4,0.7
			c-0.2,0.2-0.4,0.4-0.7,0.5c-0.3,0.1-0.6,0.2-0.9,0.2c-0.5,0-0.9-0.1-1.2-0.3c-0.3-0.2-0.6-0.5-0.7-0.8c-0.1-0.3-0.2-0.9-0.2-1.6
			V53.5z"/>
		<path class="st0" d="M110.1,53.5h1.2v5.2h1.8v1.2h-3V53.5z"/>
		<path class="st0" d="M121.4,53.5h3.5v1.2h-1.2v5.2h-1.2v-5.2h-1.1V53.5z"/>
		<path class="st0" d="M133.7,53.5h1.2v6.4h-1.2V53.5z"/>
		<path class="st0" d="M144.2,53.5h1.2l2.7,4.2v-4.2h1.2v6.4h-1.2l-2.7-4.2v4.2h-1.2V53.5z"/>
		<path class="st0" d="M164.7,54.6l-0.9,0.8c-0.5-0.6-1.2-0.9-1.9-0.9c-0.6,0-1.2,0.2-1.6,0.6c-0.4,0.4-0.6,0.9-0.6,1.5
			c0,0.6,0.2,1.1,0.7,1.6c0.4,0.4,1,0.6,1.6,0.6c0.4,0,0.8-0.1,1.1-0.3c0.3-0.2,0.5-0.5,0.7-0.8h-1.8v-1.1h3.2l0,0.3
			c0,0.6-0.1,1.1-0.4,1.6c-0.3,0.5-0.7,0.9-1.1,1.1c-0.5,0.3-1,0.4-1.6,0.4c-0.7,0-1.3-0.1-1.8-0.4c-0.5-0.3-0.9-0.7-1.2-1.2
			c-0.3-0.5-0.5-1.1-0.5-1.7c0-0.8,0.3-1.6,0.8-2.2c0.7-0.7,1.5-1.1,2.6-1.1c0.6,0,1.1,0.1,1.6,0.3
			C163.9,53.8,164.3,54.1,164.7,54.6z"/>
	</g>
	<path class="st0" d="M22.5,31.6c-0.8-0.9-1.9-1.4-3.1-1.4H9.8c-0.5,0-0.7-0.4-0.7-1.1c0-0.8,0.2-1.2,0.7-1.2h9.8
		c2.2,0,3.3-1.2,3.3-3.5H9.8c-1.3,0-2.3,0.5-3.1,1.4c-0.8,0.9-1.2,2-1.2,3.3s0.4,2.4,1.2,3.2c0.8,0.9,1.9,1.4,3.1,1.4h9.5
		c0.5,0,0.7,0.4,0.7,1.2S19.8,36,19.4,36H10c-2.5,0-3.8,1.2-3.8,3.5h13.1c1.3,0,2.3-0.5,3.1-1.4c0.8-0.9,1.2-2,1.2-3.3
		C23.6,33.6,23.2,32.5,22.5,31.6z"/>
	<path class="st0" d="M26.4,34.7c0,1.4,0.5,2.5,1.4,3.4c1,0.9,2.1,1.4,3.5,1.4h8.9c1.4,0,2.5-0.5,3.5-1.4c1-0.9,1.4-2.1,1.4-3.4
		v-5.6c0-1.4-0.5-2.5-1.4-3.4c-1-0.9-2.1-1.4-3.5-1.4h-8.9c-1.4,0-2.5,0.5-3.5,1.4c-1,0.9-1.4,2.1-1.4,3.4V34.7z M29.9,29.1
		c0-0.8,0.5-1.3,1.4-1.3h8.9c0.9,0,1.4,0.4,1.4,1.3v5.6c0,0.8-0.5,1.3-1.4,1.3h-8.9c-0.9,0-1.4-0.4-1.4-1.3V29.1z"/>
	<path class="st0" d="M51.5,30.1v-2.3h6.8c0.7,0,1.2,0,1.6,0c0.4,0,0.7,0,0.8,0h0.2l0,0c0.8-0.2,1.5-0.6,2.1-1.3
		c0.6-0.6,0.9-1.4,1.1-2.2H51.4c-2.3,0-3.5,1.2-3.5,3.6v11.6c2.4,0,3.5-1,3.5-2.9v-2.9l7.3,0c0.1,0,0.1,0,0.2,0
		c1.2,0,2.1-0.4,2.8-1.3c0.6-0.6,0.9-1.4,1.1-2.2H51.5z"/>
	<path class="st0" d="M82.7,39.5V27.2c0-1.9-1.2-2.9-3.6-2.9v5.8H70v-2.9c0-1.9-1.2-2.9-3.5-2.9v12.2c0,2,1.2,2.9,3.5,2.9v-5.8h9.1
		v2.9C79.1,38.5,80.3,39.5,82.7,39.5z"/>
	<g>
		<path class="st0" d="M99.8,46H5.5v0.8h95.2C100.4,46.6,100.1,46.3,99.8,46z"/>
		<path class="st0" d="M132.9,46c-0.3,0.3-0.6,0.5-0.9,0.8h33.4V46H132.9z"/>
	</g>
	<path class="st0" d="M159.5,36l-6.7,0v-2.3h0.9l6.4,0c0.1,0,0.1,0,0.2,0c1.2,0,2.1-0.4,2.8-1.3c0.6-0.6,0.9-1.4,1.1-2.2h-11.4v-2.3
		h6.8c0.7,0,1.2,0,1.6,0c0.4,0,0.7,0,0.8,0h0.2l0,0c0.8-0.2,1.5-0.6,2.1-1.3c0.6-0.6,0.9-1.4,1.1-2.2h-12.7c-2.3,0-3.5,1.2-3.5,3.6
		V36c0,2.4,1.2,3.5,3.5,3.5h8.4c1.3,0,2.3-0.5,3.1-1.4c0.6-0.6,0.9-1.4,1.1-2.2L159.5,36z"/>
	<path class="st0" d="M118.4,15.2c-1.6-1.6-3.3-1.6-5,0.1l-1.1,1.1l-4.9,4.9l-2.5,2.5c1.7,1.7,3.4,1.7,5,0.1l6-6l4.8,4.8l1.7,1.7
		l0.1,0.1h0c0.7,0.5,1.5,0.6,2.4,0.6c0.9-0.1,1.7-0.3,2.4-0.8L118.4,15.2z"/>
	<path class="st0" d="M122.2,26.6L122.2,26.6v3.5v4.6c0,0.8-0.2,1.2-0.7,1.2h-10.1c-0.5,0-0.8-0.4-0.8-1.2v-4.6v-0.5v-3h-3.6v0v3.5
		v4.6c0,1.3,0.4,2.4,1.2,3.3c0.8,0.9,1.9,1.4,3.1,1.4h10.1c1.3,0,2.3-0.5,3.1-1.4c0.8-0.9,1.2-2,1.2-3.3v-4.6v-0.5v-3H122.2z"/>
	<path class="st0" d="M99.3,24.3h-8.9c-1.4,0-2.5,0.5-3.5,1.4c-1,0.9-1.4,2.1-1.4,3.4v5.6c0,1.4,0.5,2.5,1.4,3.4
		c1,0.9,2.1,1.4,3.5,1.4h8.9c1.4,0,2.5-0.5,3.5-1.4c1-0.9,1.4-2.1,1.4-3.4v-5.6c0-1.4-0.5-2.5-1.4-3.4
		C101.9,24.8,100.7,24.3,99.3,24.3z M100.7,34.7c0,0.8-0.5,1.3-1.4,1.3h-8.9c-0.9,0-1.4-0.4-1.4-1.3v-5.6c0-0.8,0.5-1.3,1.4-1.3h8.9
		c0.9,0,1.4,0.4,1.4,1.3V34.7z"/>
	<path class="st0" d="M145.3,38.1c0.8-0.9,1.2-2,1.2-3.3c0-1.3-0.4-2.4-1.2-3.3c-0.8-0.9-1.9-1.4-3.1-1.4h-9.5
		c-0.5,0-0.7-0.4-0.7-1.1c0-0.8,0.2-1.2,0.7-1.2h9.8c2.2,0,3.3-1.2,3.3-3.5h-13.1c-1.3,0-2.3,0.5-3.1,1.4c-0.8,0.9-1.2,2-1.2,3.3
		s0.4,2.4,1.2,3.2c0.8,0.9,1.9,1.4,3.1,1.4h9.5c0.5,0,0.7,0.4,0.7,1.2s-0.2,1.2-0.7,1.2h-9.3c-2.5,0-3.8,1.2-3.8,3.5h13.1
		C143.5,39.5,144.5,39,145.3,38.1z"/>
	<path class="st0" d="M131.1,41.5c-3.7,3.9-8.9,6.3-14.7,6.3c-5.9,0-11.3-2.5-15-6.6c-0.6,0.2-1.3,0.3-2,0.3h-1.1
		c4.2,5.4,10.8,8.8,18.1,8.8c7.3,0,13.9-3.4,18.1-8.8H131.1z"/>
	<path class="st0" d="M116.3,4.4c-10.9,0-20.1,7.7-22.4,17.9h2.6c2.3-8.8,10.3-15.4,19.8-15.4s17.6,6.6,19.8,15.4h2.6
		C136.5,12.1,127.3,4.4,116.3,4.4z"/>
</g>
</svg>
