<?xml version="1.0" encoding="utf-8"?>
<!-- Generator: Adobe Illustrator 19.2.1, SVG Export Plug-In . SVG Version: 6.00 Build 0)  -->
<svg version="1.1" id="Capa_1" xmlns="http://www.w3.org/2000/svg" xmlns:xlink="http://www.w3.org/1999/xlink" x="0px" y="0px"
	 viewBox="0 0 222.7 64" style="enable-background:new 0 0 222.7 64;" xml:space="preserve">
<style type="text/css">
	.st0{fill:#10566A;}
</style>
<g>
	<path class="st0" d="M6.1,52h1.6v8.5H6.1V52z"/>
	<path class="st0" d="M19.3,52H24v1.6h-1.5v6.9h-1.6v-6.9h-1.5V52z"/>
	<path class="st0" d="M57.3,53.5l-1.1,1.1c-0.8-0.8-1.6-1.2-2.6-1.2c-0.8,0-1.5,0.3-2,0.8s-0.8,1.2-0.8,2c0,0.6,0.1,1.1,0.4,1.5
		c0.2,0.4,0.6,0.8,1,1c0.4,0.2,0.9,0.4,1.5,0.4c0.5,0,0.9-0.1,1.3-0.3s0.8-0.5,1.3-1l1.1,1.1c-0.6,0.6-1.2,1-1.8,1.3
		c-0.6,0.2-1.2,0.4-1.9,0.4c-1.3,0-2.4-0.4-3.2-1.3c-0.8-0.8-1.3-1.9-1.3-3.2c0-0.8,0.2-1.6,0.6-2.2c0.4-0.7,0.9-1.2,1.6-1.6
		c0.7-0.4,1.5-0.6,2.3-0.6c0.7,0,1.4,0.1,2,0.4C56.3,52.6,56.9,53,57.3,53.5z"/>
	<path class="st0" d="M73.3,51.8c1.2,0,2.2,0.4,3.1,1.3c0.9,0.9,1.3,1.9,1.3,3.2c0,1.2-0.4,2.3-1.3,3.1c-0.8,0.9-1.9,1.3-3.1,1.3
		c-1.3,0-2.3-0.4-3.2-1.3s-1.3-1.9-1.3-3.1c0-0.8,0.2-1.6,0.6-2.2c0.4-0.7,0.9-1.2,1.6-1.6C71.8,52,72.5,51.8,73.3,51.8z M73.3,53.4
		c-0.8,0-1.4,0.3-2,0.8c-0.5,0.5-0.8,1.2-0.8,2.1c0,0.9,0.3,1.7,1,2.2c0.5,0.4,1.1,0.6,1.8,0.6c0.8,0,1.4-0.3,2-0.8s0.8-1.2,0.8-2
		c0-0.8-0.3-1.5-0.8-2C74.7,53.7,74.1,53.4,73.3,53.4z"/>
	<path class="st0" d="M89.8,52h1.5l3.6,5.6V52h1.6v8.5H95l-3.6-5.5v5.5h-1.6V52z"/>
	<path class="st0" d="M113.6,53.2l-1.2,1.1c-0.4-0.6-0.8-0.9-1.3-0.9c-0.2,0-0.4,0.1-0.5,0.2c-0.1,0.1-0.2,0.2-0.2,0.4
		c0,0.1,0,0.3,0.1,0.4c0.1,0.2,0.5,0.5,1.2,1.1c0.6,0.5,1,0.8,1.1,1c0.3,0.3,0.6,0.6,0.7,0.9c0.1,0.3,0.2,0.6,0.2,1
		c0,0.7-0.2,1.3-0.7,1.7c-0.5,0.5-1.1,0.7-1.9,0.7c-0.6,0-1.1-0.1-1.6-0.4s-0.8-0.8-1.1-1.4l1.4-0.8c0.4,0.7,0.9,1.1,1.4,1.1
		c0.3,0,0.5-0.1,0.7-0.2c0.2-0.2,0.3-0.3,0.3-0.6c0-0.2-0.1-0.4-0.2-0.6s-0.5-0.5-0.9-0.9c-0.9-0.8-1.5-1.3-1.8-1.7
		c-0.3-0.4-0.4-0.8-0.4-1.2c0-0.6,0.2-1.1,0.7-1.5c0.4-0.4,1-0.6,1.7-0.6c0.4,0,0.8,0.1,1.2,0.3C112.7,52.3,113.1,52.7,113.6,53.2z"
		/>
	<path class="st0" d="M125.8,52h1.6v5.5c0,0.5,0,0.8,0.1,1c0.1,0.2,0.2,0.4,0.4,0.5c0.2,0.1,0.4,0.2,0.7,0.2c0.3,0,0.5-0.1,0.7-0.2
		c0.2-0.1,0.3-0.3,0.4-0.5c0.1-0.2,0.1-0.6,0.1-1.2V52h1.6v5c0,0.9,0,1.4-0.1,1.8c-0.1,0.3-0.3,0.6-0.5,1c-0.3,0.3-0.6,0.5-0.9,0.7
		c-0.4,0.1-0.8,0.2-1.2,0.2c-0.6,0-1.1-0.1-1.6-0.4c-0.5-0.3-0.8-0.6-1-1.1c-0.2-0.4-0.3-1.1-0.3-2.1V52z"/>
	<path class="st0" d="M144,52h1.6V59h2.3v1.5h-4V52z"/>
	<path class="st0" d="M158.9,52h4.7v1.6H162v6.9h-1.6v-6.9h-1.5V52z"/>
	<path class="st0" d="M175.2,52h1.6v8.5h-1.6V52z"/>
	<path class="st0" d="M189.2,52h1.5l3.6,5.6V52h1.6v8.5h-1.5l-3.6-5.5v5.5h-1.6V52z"/>
	<path class="st0" d="M216.3,53.4l-1.1,1.1c-0.7-0.8-1.6-1.1-2.5-1.1c-0.8,0-1.5,0.3-2.1,0.8c-0.6,0.6-0.8,1.2-0.8,2
		c0,0.8,0.3,1.5,0.9,2.1c0.6,0.6,1.3,0.9,2.2,0.9c0.6,0,1-0.1,1.4-0.4c0.4-0.2,0.7-0.6,0.9-1.1h-2.4v-1.5h4.3l0,0.4
		c0,0.7-0.2,1.4-0.6,2.1c-0.4,0.7-0.9,1.2-1.5,1.5c-0.6,0.3-1.3,0.5-2.1,0.5c-0.9,0-1.7-0.2-2.3-0.6c-0.7-0.4-1.2-0.9-1.6-1.6
		c-0.4-0.7-0.6-1.5-0.6-2.3c0-1.1,0.4-2.1,1.1-2.9c0.9-1,2-1.5,3.4-1.5c0.7,0,1.4,0.1,2.1,0.4C215.2,52.5,215.8,52.9,216.3,53.4z"/>
</g>
<path class="st0" d="M28,26.9c-1.1-1.2-2.5-1.9-4.1-1.9H11.2c-0.7,0-1-0.5-1-1.5c0-1,0.3-1.5,1-1.5h12.9c2.9,0,4.4-1.6,4.4-4.7H11.2
	c-1.7,0-3,0.6-4.1,1.8c-1.1,1.2-1.6,2.7-1.6,4.4s0.5,3.1,1.6,4.3c1.1,1.2,2.5,1.9,4.1,1.9h12.6c0.7,0,1,0.5,1,1.5c0,1-0.3,1.5-1,1.5
	H11.5c-3.3,0-5,1.6-5,4.7h17.3c1.7,0,3-0.6,4.1-1.9c1-1.2,1.5-2.6,1.5-4.3C29.5,29.6,29,28.1,28,26.9z"/>
<path class="st0" d="M33.2,31.1c0,1.8,0.6,3.3,1.9,4.5c1.3,1.2,2.8,1.8,4.6,1.8h11.8c1.8,0,3.4-0.6,4.6-1.8c1.3-1.2,1.9-2.7,1.9-4.5
	v-7.4c0-1.8-0.6-3.3-1.9-4.5c-1.3-1.2-2.8-1.8-4.6-1.8H39.7c-1.8,0-3.4,0.6-4.6,1.8c-1.3,1.2-1.9,2.7-1.9,4.5V31.1z M37.9,23.7
	c0-1.1,0.6-1.7,1.9-1.7h11.8c1.2,0,1.9,0.6,1.9,1.7v7.4c0,1.1-0.6,1.7-1.9,1.7H39.7c-1.2,0-1.9-0.6-1.9-1.7V23.7z"/>
<path class="st0" d="M66.4,25.1v-3h9c0.9,0,1.6,0,2.2,0c0.5,0,0.9,0,1,0h0.3l0,0c1.1-0.3,2-0.8,2.8-1.7c0.8-0.9,1.2-1.8,1.4-2.9
	H66.2c-3,0-4.6,1.6-4.6,4.7v15.4c3.1,0,4.7-1.3,4.7-3.9v-3.9l9.6,0c0.1,0,0.2,0,0.3,0c1.5,0,2.8-0.6,3.8-1.7
	c0.8-0.9,1.2-1.8,1.4-2.9H66.4z"/>
<path class="st0" d="M107.7,37.5V21.2c0-2.6-1.6-3.8-4.7-3.8v7.7h-12v-3.9c0-2.6-1.6-3.8-4.7-3.8v16.2c0,2.6,1.6,3.9,4.7,3.9v-7.7
	h12v3.9C103,36.2,104.5,37.5,107.7,37.5z"/>
<path class="st0" d="M209.4,32.8l-8.9,0v-3h1.2l8.4,0c0.1,0,0.2,0,0.3,0c1.5,0,2.8-0.6,3.8-1.7c0.8-0.9,1.2-1.8,1.4-2.9h-15.1v-3h9
	c0.9,0,1.6,0,2.2,0c0.5,0,0.9,0,1,0h0.3l0,0c1.1-0.3,2-0.8,2.8-1.7c0.8-0.9,1.2-1.8,1.4-2.9h-16.8c-3,0-4.6,1.6-4.6,4.7v10.7
	c0,3.1,1.6,4.7,4.7,4.7h11.1c1.7,0,3-0.6,4.1-1.8c0.8-0.9,1.2-1.8,1.4-2.9L209.4,32.8z"/>
<path class="st0" d="M155,5.2c-2.2-2.2-4.4-2.1-6.6,0.1l-1.5,1.5l-6.4,6.4l-3.3,3.3c2.2,2.2,4.4,2.3,6.6,0.1l8-8l6.4,6.4l2.3,2.3
	l0.2,0.2h0.1c1,0.6,2,0.8,3.2,0.8c1.2-0.1,2.2-0.4,3.1-1.1L155,5.2z"/>
<path class="st0" d="M160,20.3L160,20.3V25V31c0,1-0.3,1.5-1,1.5h-13.4c-0.7,0-1-0.5-1-1.5V25v-0.7v-3.9h-4.7v0V25V31
	c0,1.7,0.5,3.2,1.6,4.4c1.1,1.2,2.5,1.9,4.2,1.9H159c1.7,0,3.1-0.6,4.1-1.9c1.1-1.2,1.6-2.7,1.6-4.4V25v-0.7v-3.9H160z"/>
<path class="st0" d="M129.7,17.4h-11.8c-1.8,0-3.4,0.6-4.6,1.8c-1.3,1.2-1.9,2.7-1.9,4.5v7.4c0,1.8,0.6,3.3,1.9,4.5
	c1.3,1.2,2.8,1.8,4.6,1.8h11.8c1.8,0,3.4-0.6,4.6-1.8c1.3-1.2,1.9-2.7,1.9-4.5v-7.4c0-1.8-0.6-3.3-1.9-4.5
	C133.1,18,131.5,17.4,129.7,17.4z M131.6,31.1c0,1.1-0.6,1.7-1.9,1.7h-11.8c-1.2,0-1.9-0.6-1.9-1.7v-7.4c0-1.1,0.6-1.7,1.9-1.7h11.8
	c1.2,0,1.9,0.6,1.9,1.7V31.1z"/>
<path class="st0" d="M190.6,35.6c1-1.2,1.5-2.6,1.5-4.3c0-1.7-0.5-3.1-1.5-4.3c-1.1-1.2-2.5-1.9-4.1-1.9h-12.6c-0.7,0-1-0.5-1-1.5
	c0-1,0.3-1.5,1-1.5h12.9c2.9,0,4.4-1.6,4.4-4.7h-17.3c-1.7,0-3,0.6-4.1,1.8c-1.1,1.2-1.6,2.7-1.6,4.4s0.5,3.1,1.6,4.3
	c1.1,1.2,2.5,1.9,4.1,1.9h12.6c0.7,0,1,0.5,1,1.5c0,1-0.3,1.5-1,1.5h-12.3c-3.3,0-5,1.6-5,4.7h17.3
	C188.2,37.5,189.5,36.9,190.6,35.6z"/>
<rect x="5.5" y="46.1" class="st0" width="211.6" height="1.1"/>
</svg>
