<?xml version="1.0" encoding="utf-8"?>
<!-- Generator: Adobe Illustrator 19.2.1, SVG Export Plug-In . SVG Version: 6.00 Build 0)  -->
<svg version="1.1" id="Capa_1" xmlns="http://www.w3.org/2000/svg" xmlns:xlink="http://www.w3.org/1999/xlink" x="0px" y="0px"
	 viewBox="0 0 204.9 64" style="enable-background:new 0 0 204.9 64;" xml:space="preserve">
<style type="text/css">
	.st0{fill:#10566A;}
</style>
<g>
	<path class="st0" d="M26.1,37.1c-1-1.1-2.3-1.7-3.8-1.7H10.8c-0.6,0-0.9-0.5-0.9-1.4c0-0.9,0.3-1.4,0.9-1.4h11.9c2.7,0,4-1.4,4-4.3
		H10.8C9.2,28.3,8,28.9,7,30c-1,1.1-1.5,2.5-1.5,4C5.5,35.6,6,36.9,7,38c1,1.1,2.3,1.7,3.8,1.7h11.6c0.6,0,0.9,0.5,0.9,1.4
		s-0.3,1.4-0.9,1.4H11c-3.1,0-4.6,1.4-4.6,4.3h15.9c1.5,0,2.8-0.6,3.8-1.7c0.9-1.1,1.4-2.4,1.4-4C27.5,39.5,27.1,38.2,26.1,37.1z"/>
	<path class="st0" d="M30.9,40.9c0,1.7,0.6,3.1,1.8,4.2c1.2,1.1,2.6,1.7,4.3,1.7h10.8c1.7,0,3.1-0.6,4.3-1.7
		c1.2-1.1,1.8-2.5,1.8-4.2v-6.8c0-1.7-0.6-3.1-1.8-4.2c-1.2-1.1-2.6-1.7-4.3-1.7H36.9c-1.7,0-3.1,0.6-4.3,1.7
		c-1.2,1.1-1.8,2.5-1.8,4.2V40.9z M35.2,34.2c0-1,0.6-1.5,1.7-1.5h10.8c1.1,0,1.7,0.5,1.7,1.5v6.7c0,1-0.6,1.5-1.7,1.5H36.9
		c-1.1,0-1.7-0.5-1.7-1.5V34.2z"/>
	<path class="st0" d="M61.3,35.4v-2.8h8.2c0.8,0,1.5,0,2,0c0.5,0,0.8,0,0.9,0h0.3l0,0c1-0.2,1.9-0.8,2.5-1.6
		c0.7-0.8,1.1-1.7,1.3-2.7H61.2c-2.8,0-4.2,1.4-4.2,4.3v14.1c2.9,0,4.3-1.2,4.3-3.5v-3.5l8.8,0c0.1,0,0.2,0,0.3,0
		c1.4,0,2.6-0.5,3.5-1.6c0.7-0.8,1.1-1.7,1.3-2.7H61.3z"/>
	<path class="st0" d="M99.2,46.8V31.8c0-2.3-1.4-3.5-4.3-3.5v7.1h-11v-3.5c0-2.3-1.4-3.5-4.3-3.5v14.9c0,2.4,1.4,3.6,4.3,3.6v-7.1
		h11v3.5C94.9,45.6,96.3,46.8,99.2,46.8z"/>
	<path class="st0" d="M192.5,42.4l-8.2,0v-2.8h1.1l7.7,0c0.1,0,0.2,0,0.3,0c1.4,0,2.6-0.5,3.5-1.6c0.7-0.8,1.1-1.7,1.3-2.7h-13.9
		v-2.8h8.2c0.8,0,1.5,0,2,0c0.5,0,0.8,0,0.9,0h0.3l0,0c1-0.2,1.9-0.8,2.5-1.6c0.7-0.8,1.1-1.7,1.3-2.7h-15.4c-2.8,0-4.2,1.4-4.2,4.3
		v9.8c0,2.9,1.4,4.3,4.3,4.3h10.2c1.5,0,2.8-0.6,3.7-1.7c0.7-0.8,1.1-1.7,1.3-2.7L192.5,42.4z"/>
	<path class="st0" d="M142.6,17.2c-2-2-4-2-6.1,0.1l-1.4,1.4l-5.9,5.9l-3.1,3.1c2.1,2,4.1,2.1,6.1,0.1l7.3-7.3l5.9,5.9l2.1,2.1
		l0.2,0.2h0.1c0.9,0.5,1.9,0.8,2.9,0.7c1.1-0.1,2-0.4,2.9-1L142.6,17.2z"/>
	<path class="st0" d="M147.2,31L147.2,31v4.3v5.6c0,0.9-0.3,1.4-0.9,1.4H134c-0.6,0-0.9-0.5-0.9-1.4v-5.6v-0.6V31h-4.3v0v4.3v5.6
		c0,1.6,0.5,2.9,1.5,4.1c1,1.1,2.3,1.7,3.8,1.7h12.3c1.5,0,2.8-0.6,3.8-1.7c1-1.1,1.5-2.5,1.5-4.1v-5.6v-0.6V31H147.2z"/>
	<path class="st0" d="M119.4,28.3h-10.8c-1.7,0-3.1,0.6-4.3,1.7c-1.2,1.1-1.8,2.5-1.8,4.2v6.8c0,1.7,0.6,3.1,1.8,4.2
		c1.2,1.1,2.6,1.7,4.3,1.7h10.8c1.7,0,3.1-0.6,4.3-1.7c1.2-1.1,1.8-2.5,1.8-4.2v-6.8c0-1.7-0.6-3.1-1.8-4.2
		C122.5,28.9,121.1,28.3,119.4,28.3z M121.1,40.9c0,1-0.6,1.5-1.7,1.5h-10.8c-1.1,0-1.7-0.5-1.7-1.5v-6.7c0-1,0.6-1.5,1.7-1.5h10.8
		c1.1,0,1.7,0.5,1.7,1.5V40.9z"/>
	<path class="st0" d="M175.3,45.1c0.9-1.1,1.4-2.4,1.4-4c0-1.6-0.5-2.9-1.4-4c-1-1.1-2.3-1.7-3.8-1.7h-11.6c-0.6,0-0.9-0.5-0.9-1.4
		c0-0.9,0.3-1.4,0.9-1.4h11.9c2.7,0,4-1.4,4-4.3h-15.9c-1.5,0-2.8,0.6-3.8,1.7c-1,1.1-1.5,2.5-1.5,4c0,1.6,0.5,2.9,1.4,3.9
		c1,1.1,2.3,1.7,3.8,1.7h11.6c0.6,0,0.9,0.5,0.9,1.4s-0.3,1.4-0.9,1.4h-11.3c-3.1,0-4.6,1.4-4.6,4.3h15.9
		C173,46.8,174.3,46.2,175.3,45.1z"/>
	<path class="st0" d="M158,49.2c-4.5,4.7-10.9,7.6-17.9,7.6c-7.2,0-13.7-3.1-18.2-8c-0.8,0.2-1.6,0.3-2.5,0.3h-1.3
		c5.1,6.5,13.1,10.7,22,10.7c8.9,0,16.8-4.2,21.9-10.7H158z"/>
	<path class="st0" d="M140.1,4.1c-13.3,0-24.4,9.3-27.2,21.8h3.2c2.7-10.7,12.5-18.7,24.1-18.7c11.6,0,21.3,8,24.1,18.7h3.2
		C164.5,13.4,153.4,4.1,140.1,4.1z"/>
</g>
</svg>
