<?xml version="1.0" encoding="utf-8"?>
<!-- Generator: Adobe Illustrator 19.2.1, SVG Export Plug-In . SVG Version: 6.00 Build 0)  -->
<svg version="1.1" id="Capa_1" xmlns="http://www.w3.org/2000/svg" xmlns:xlink="http://www.w3.org/1999/xlink" x="0px" y="0px"
	 viewBox="0 0 367 299" style="enable-background:new 0 0 367 299;" xml:space="preserve">
<style type="text/css">
	.st0{fill:none;stroke:#000000;stroke-width:10;stroke-miterlimit:10;}
	.st1{fill:none;stroke:#000000;stroke-width:6.3;stroke-miterlimit:10;}
	.st2{fill:none;stroke:#000000;stroke-width:3.969;stroke-miterlimit:10;}
	.st3{fill:none;stroke:#000000;stroke-width:2.5005;stroke-miterlimit:10;}
	.st4{fill:none;stroke:#000000;stroke-width:1.5753;stroke-miterlimit:10;}
	.st5{fill:none;stroke:#000000;stroke-width:0.9924;stroke-miterlimit:10;}
	.st6{fill:none;stroke:#000000;stroke-width:0.6252;stroke-miterlimit:10;}
	.st7{fill:none;stroke:#000000;stroke-width:0.3939;stroke-miterlimit:10;}
	.st8{fill:none;stroke:#000000;stroke-width:0.2482;stroke-miterlimit:10;}
	.st9{fill:none;stroke:#000000;stroke-width:0.1563;stroke-miterlimit:10;}
</style>
<g>
	<path class="st0" d="M183,299V176"/>
	<path class="st1" d="M183,176l-59.4-49.8"/>
	<path class="st1" d="M183,176l59.4-49.8"/>
	<path class="st2" d="M123.6,126.2l-48.1,8.5"/>
	<path class="st2" d="M123.6,126.2V77.4"/>
	<path class="st2" d="M242.4,126.2V77.4"/>
	<path class="st2" d="M242.4,126.2l48.1,8.5"/>
	<path class="st3" d="M75.6,134.7l-15.4,26.6"/>
	<path class="st3" d="M75.6,134.7L52,114.9"/>
	<path class="st3" d="M123.6,77.4l-23.6-19.8"/>
	<path class="st3" d="M123.6,77.4l23.6-19.8"/>
	<path class="st3" d="M242.4,77.4l-23.6-19.8"/>
	<path class="st3" d="M242.4,77.4l23.6-19.8"/>
	<path class="st3" d="M290.4,134.7l23.6-19.8"/>
	<path class="st3" d="M290.4,134.7l15.4,26.6"/>
	<path class="st4" d="M60.2,161.3l6.6,18.2"/>
	<path class="st4" d="M60.2,161.3l-19.1,3.4"/>
	<path class="st4" d="M52,114.9l-19.1,3.4"/>
	<path class="st4" d="M52,114.9V95.5"/>
	<path class="st4" d="M100.1,57.6L81,61"/>
	<path class="st4" d="M100.1,57.6V38.2"/>
	<path class="st4" d="M147.2,57.6V38.2"/>
	<path class="st4" d="M147.2,57.6l19.1,3.4"/>
	<path class="st4" d="M218.8,57.6L199.7,61"/>
	<path class="st4" d="M218.8,57.6V38.2"/>
	<path class="st4" d="M265.9,57.6V38.2"/>
	<path class="st4" d="M265.9,57.6L285,61"/>
	<path class="st4" d="M314,114.9V95.5"/>
	<path class="st4" d="M314,114.9l19.1,3.4"/>
	<path class="st4" d="M305.8,161.3l19.1,3.4"/>
	<path class="st4" d="M305.8,161.3l-6.6,18.2"/>
	<path class="st5" d="M66.8,179.5l11.5,4.2"/>
	<path class="st5" d="M66.8,179.5l-6.1,10.6"/>
	<path class="st5" d="M41.1,164.7L35,175.2"/>
	<path class="st5" d="M41.1,164.7l-9.4-7.8"/>
	<path class="st5" d="M32.9,118.3l-6.1,10.6"/>
	<path class="st5" d="M32.9,118.3l-9.4-7.8"/>
	<path class="st5" d="M52,95.5l-9.4-7.8"/>
	<path class="st5" d="M52,95.5l9.4-7.8"/>
	<path class="st5" d="M81,61l-6.1,10.6"/>
	<path class="st5" d="M81,61l-9.4-7.8"/>
	<path class="st5" d="M100.1,38.2l-9.4-7.8"/>
	<path class="st5" d="M100.1,38.2l9.4-7.8"/>
	<path class="st5" d="M147.2,38.2l-9.4-7.8"/>
	<path class="st5" d="M147.2,38.2l9.4-7.8"/>
	<path class="st5" d="M166.3,61l9.4-7.8"/>
	<path class="st5" d="M166.3,61l6.1,10.6"/>
	<path class="st5" d="M199.7,61l-6.1,10.6"/>
	<path class="st5" d="M199.7,61l-9.4-7.8"/>
	<path class="st5" d="M218.8,38.2l-9.4-7.8"/>
	<path class="st5" d="M218.8,38.2l9.4-7.8"/>
	<path class="st5" d="M265.9,38.2l-9.4-7.8"/>
	<path class="st5" d="M265.9,38.2l9.4-7.8"/>
	<path class="st5" d="M285,61l9.4-7.8"/>
	<path class="st5" d="M285,61l6.1,10.6"/>
	<path class="st5" d="M314,95.5l-9.4-7.8"/>
	<path class="st5" d="M314,95.5l9.4-7.8"/>
	<path class="st5" d="M333.1,118.3l9.4-7.8"/>
	<path class="st5" d="M333.1,118.3l6.1,10.6"/>
	<path class="st5" d="M324.9,164.7l9.4-7.8"/>
	<path class="st5" d="M324.9,164.7l6.1,10.6"/>
	<path class="st5" d="M299.2,179.5l6.1,10.6"/>
	<path class="st5" d="M299.2,179.5l-11.5,4.2"/>
	<path class="st6" d="M78.3,183.7l6.7-3.8"/>
	<path class="st6" d="M78.3,183.7l2.6,7.2"/>
	<path class="st6" d="M60.7,190.1l2.6,7.2"/>
	<path class="st6" d="M60.7,190.1l-7.6,1.3"/>
	<path class="st6" d="M35,175.2l2.6,7.2"/>
	<path class="st6" d="M35,175.2l-7.6,1.3"/>
	<path class="st6" d="M31.8,156.8l-7.6,1.3"/>
	<path class="st6" d="M31.8,156.8v-7.7"/>
	<path class="st6" d="M26.8,128.8l2.6,7.2"/>
	<path class="st6" d="M26.8,128.8l-7.6,1.3"/>
	<path class="st6" d="M23.6,110.4l-7.6,1.3"/>
	<path class="st6" d="M23.6,110.4v-7.7"/>
	<path class="st6" d="M42.7,87.7L35.1,89"/>
	<path class="st6" d="M42.7,87.7V80"/>
	<path class="st6" d="M61.4,87.7V80"/>
	<path class="st6" d="M61.4,87.7l7.6,1.3"/>
	<path class="st6" d="M74.9,71.5l2.6,7.2"/>
	<path class="st6" d="M74.9,71.5l-7.6,1.3"/>
	<path class="st6" d="M71.6,53.1l-7.6,1.3"/>
	<path class="st6" d="M71.6,53.1v-7.7"/>
	<path class="st6" d="M90.7,30.4l-7.6,1.3"/>
	<path class="st6" d="M90.7,30.4v-7.7"/>
	<path class="st6" d="M109.4,30.4v-7.7"/>
	<path class="st6" d="M109.4,30.4l7.6,1.3"/>
	<path class="st6" d="M137.8,30.4l-7.6,1.3"/>
	<path class="st6" d="M137.8,30.4v-7.7"/>
	<path class="st6" d="M156.6,30.4v-7.7"/>
	<path class="st6" d="M156.6,30.4l7.6,1.3"/>
	<path class="st6" d="M175.6,53.1v-7.7"/>
	<path class="st6" d="M175.6,53.1l7.6,1.3"/>
	<path class="st6" d="M172.4,71.5l7.6,1.3"/>
	<path class="st6" d="M172.4,71.5l-2.6,7.2"/>
	<path class="st6" d="M193.6,71.5l2.6,7.2"/>
	<path class="st6" d="M193.6,71.5l-7.6,1.3"/>
	<path class="st6" d="M190.4,53.1l-7.6,1.3"/>
	<path class="st6" d="M190.4,53.1v-7.7"/>
	<path class="st6" d="M209.4,30.4l-7.6,1.3"/>
	<path class="st6" d="M209.4,30.4v-7.7"/>
	<path class="st6" d="M228.2,30.4v-7.7"/>
	<path class="st6" d="M228.2,30.4l7.6,1.3"/>
	<path class="st6" d="M256.6,30.4l-7.6,1.3"/>
	<path class="st6" d="M256.6,30.4v-7.7"/>
	<path class="st6" d="M275.3,30.4v-7.7"/>
	<path class="st6" d="M275.3,30.4l7.6,1.3"/>
	<path class="st6" d="M294.4,53.1v-7.7"/>
	<path class="st6" d="M294.4,53.1l7.6,1.3"/>
	<path class="st6" d="M291.1,71.5l7.6,1.3"/>
	<path class="st6" d="M291.1,71.5l-2.6,7.2"/>
	<path class="st6" d="M304.6,87.7l-7.6,1.3"/>
	<path class="st6" d="M304.6,87.7V80"/>
	<path class="st6" d="M323.3,87.7V80"/>
	<path class="st6" d="M323.3,87.7l7.6,1.3"/>
	<path class="st6" d="M342.4,110.4v-7.7"/>
	<path class="st6" d="M342.4,110.4l7.6,1.3"/>
	<path class="st6" d="M339.2,128.8l7.6,1.3"/>
	<path class="st6" d="M339.2,128.8l-2.6,7.2"/>
	<path class="st6" d="M334.2,156.8v-7.7"/>
	<path class="st6" d="M334.2,156.8l7.6,1.3"/>
	<path class="st6" d="M331,175.2l7.6,1.3"/>
	<path class="st6" d="M331,175.2l-2.6,7.2"/>
	<path class="st6" d="M305.3,190.1l7.6,1.3"/>
	<path class="st6" d="M305.3,190.1l-2.6,7.2"/>
	<path class="st6" d="M287.7,183.7l-2.6,7.2"/>
	<path class="st6" d="M287.7,183.7l-6.7-3.8"/>
	<path class="st7" d="M84.9,179.8l0.8-4.8"/>
	<path class="st7" d="M84.9,179.8l4.6,1.7"/>
	<path class="st7" d="M80.9,190.9l4.6,1.7"/>
	<path class="st7" d="M80.9,190.9l-2.4,4.2"/>
	<path class="st7" d="M63.3,197.3l4.6,1.7"/>
	<path class="st7" d="M63.3,197.3l-2.4,4.2"/>
	<path class="st7" d="M53.1,191.4l-2.4,4.2"/>
	<path class="st7" d="M53.1,191.4l-3.7-3.1"/>
	<path class="st7" d="M37.6,182.5l4.6,1.7"/>
	<path class="st7" d="M37.6,182.5l-2.4,4.2"/>
	<path class="st7" d="M27.4,176.6l-2.4,4.2"/>
	<path class="st7" d="M27.4,176.6l-3.7-3.1"/>
	<path class="st7" d="M24.2,158.2l-2.4,4.2"/>
	<path class="st7" d="M24.2,158.2l-3.7-3.1"/>
	<path class="st7" d="M31.8,149.1L28,146"/>
	<path class="st7" d="M31.8,149.1l3.7-3.1"/>
	<path class="st7" d="M29.4,136.1l4.6,1.7"/>
	<path class="st7" d="M29.4,136.1l-2.4,4.2"/>
	<path class="st7" d="M19.2,130.2l-2.4,4.2"/>
	<path class="st7" d="M19.2,130.2l-3.7-3.1"/>
	<path class="st7" d="M16,111.8l-2.4,4.2"/>
	<path class="st7" d="M16,111.8l-3.7-3.1"/>
	<path class="st7" d="M23.6,102.7l-3.7-3.1"/>
	<path class="st7" d="M23.6,102.7l3.7-3.1"/>
	<path class="st7" d="M35.1,89l-2.4,4.2"/>
	<path class="st7" d="M35.1,89l-3.7-3.1"/>
	<path class="st7" d="M42.7,80l-3.7-3.1"/>
	<path class="st7" d="M42.7,80l3.7-3.1"/>
	<path class="st7" d="M61.4,80l-3.7-3.1"/>
	<path class="st7" d="M61.4,80l3.7-3.1"/>
	<path class="st7" d="M68.9,89l3.7-3.1"/>
	<path class="st7" d="M68.9,89l2.4,4.2"/>
	<path class="st7" d="M77.5,78.8l4.6,1.7"/>
	<path class="st7" d="M77.5,78.8L75.1,83"/>
	<path class="st7" d="M67.3,72.9l-2.4,4.2"/>
	<path class="st7" d="M67.3,72.9l-3.7-3.1"/>
	<path class="st7" d="M64.1,54.5l-2.4,4.2"/>
	<path class="st7" d="M64.1,54.5l-3.7-3.1"/>
	<path class="st7" d="M71.6,45.4l-3.7-3.1"/>
	<path class="st7" d="M71.6,45.4l3.7-3.1"/>
	<path class="st7" d="M83.2,31.7l-2.4,4.2"/>
	<path class="st7" d="M83.2,31.7l-3.7-3.1"/>
	<path class="st7" d="M90.7,22.7L87,19.6"/>
	<path class="st7" d="M90.7,22.7l3.7-3.1"/>
	<path class="st7" d="M109.4,22.7l-3.7-3.1"/>
	<path class="st7" d="M109.4,22.7l3.7-3.1"/>
	<path class="st7" d="M117,31.7l3.7-3.1"/>
	<path class="st7" d="M117,31.7l2.4,4.2"/>
	<path class="st7" d="M130.3,31.7l-2.4,4.2"/>
	<path class="st7" d="M130.3,31.7l-3.7-3.1"/>
	<path class="st7" d="M137.8,22.7l-3.7-3.1"/>
	<path class="st7" d="M137.8,22.7l3.7-3.1"/>
	<path class="st7" d="M156.6,22.7l-3.7-3.1"/>
	<path class="st7" d="M156.6,22.7l3.7-3.1"/>
	<path class="st7" d="M164.1,31.7l3.7-3.1"/>
	<path class="st7" d="M164.1,31.7l2.4,4.2"/>
	<path class="st7" d="M175.6,45.4l-3.7-3.1"/>
	<path class="st7" d="M175.6,45.4l3.7-3.1"/>
	<path class="st7" d="M183.2,54.5l3.7-3.1"/>
	<path class="st7" d="M183.2,54.5l2.4,4.2"/>
	<path class="st7" d="M180,72.9l3.7-3.1"/>
	<path class="st7" d="M180,72.9l2.4,4.2"/>
	<path class="st7" d="M169.8,78.8l2.4,4.2"/>
	<path class="st7" d="M169.8,78.8l-4.6,1.7"/>
	<path class="st7" d="M196.2,78.8l4.6,1.7"/>
	<path class="st7" d="M196.2,78.8l-2.4,4.2"/>
	<path class="st7" d="M186,72.9l-2.4,4.2"/>
	<path class="st7" d="M186,72.9l-3.7-3.1"/>
	<path class="st7" d="M182.8,54.5l-2.4,4.2"/>
	<path class="st7" d="M182.8,54.5l-3.7-3.1"/>
	<path class="st7" d="M190.4,45.4l-3.7-3.1"/>
	<path class="st7" d="M190.4,45.4l3.7-3.1"/>
	<path class="st7" d="M201.9,31.7l-2.4,4.2"/>
	<path class="st7" d="M201.9,31.7l-3.7-3.1"/>
	<path class="st7" d="M209.4,22.7l-3.7-3.1"/>
	<path class="st7" d="M209.4,22.7l3.7-3.1"/>
	<path class="st7" d="M228.2,22.7l-3.7-3.1"/>
	<path class="st7" d="M228.2,22.7l3.7-3.1"/>
	<path class="st7" d="M235.7,31.7l3.7-3.1"/>
	<path class="st7" d="M235.7,31.7l2.4,4.2"/>
	<path class="st7" d="M249,31.7l-2.4,4.2"/>
	<path class="st7" d="M249,31.7l-3.7-3.1"/>
	<path class="st7" d="M256.6,22.7l-3.7-3.1"/>
	<path class="st7" d="M256.6,22.7l3.7-3.1"/>
	<path class="st7" d="M275.3,22.7l-3.7-3.1"/>
	<path class="st7" d="M275.3,22.7l3.7-3.1"/>
	<path class="st7" d="M282.8,31.7l3.7-3.1"/>
	<path class="st7" d="M282.8,31.7l2.4,4.2"/>
	<path class="st7" d="M294.4,45.4l-3.7-3.1"/>
	<path class="st7" d="M294.4,45.4l3.7-3.1"/>
	<path class="st7" d="M301.9,54.5l3.7-3.1"/>
	<path class="st7" d="M301.9,54.5l2.4,4.2"/>
	<path class="st7" d="M298.7,72.9l3.7-3.1"/>
	<path class="st7" d="M298.7,72.9l2.4,4.2"/>
	<path class="st7" d="M288.5,78.8l2.4,4.2"/>
	<path class="st7" d="M288.5,78.8l-4.6,1.7"/>
	<path class="st7" d="M297.1,89l-2.4,4.2"/>
	<path class="st7" d="M297.1,89l-3.7-3.1"/>
	<path class="st7" d="M304.6,80l-3.7-3.1"/>
	<path class="st7" d="M304.6,80l3.7-3.1"/>
	<path class="st7" d="M323.3,80l-3.7-3.1"/>
	<path class="st7" d="M323.3,80l3.7-3.1"/>
	<path class="st7" d="M330.9,89l3.7-3.1"/>
	<path class="st7" d="M330.9,89l2.4,4.2"/>
	<path class="st7" d="M342.4,102.7l-3.7-3.1"/>
	<path class="st7" d="M342.4,102.7l3.7-3.1"/>
	<path class="st7" d="M350,111.8l3.7-3.1"/>
	<path class="st7" d="M350,111.8l2.4,4.2"/>
	<path class="st7" d="M346.8,130.2l3.7-3.1"/>
	<path class="st7" d="M346.8,130.2l2.4,4.2"/>
	<path class="st7" d="M336.6,136.1l2.4,4.2"/>
	<path class="st7" d="M336.6,136.1l-4.6,1.7"/>
	<path class="st7" d="M334.2,149.1l-3.7-3.1"/>
	<path class="st7" d="M334.2,149.1l3.7-3.1"/>
	<path class="st7" d="M341.8,158.2l3.7-3.1"/>
	<path class="st7" d="M341.8,158.2l2.4,4.2"/>
	<path class="st7" d="M338.6,176.6l3.7-3.1"/>
	<path class="st7" d="M338.6,176.6l2.4,4.2"/>
	<path class="st7" d="M328.4,182.5l2.4,4.2"/>
	<path class="st7" d="M328.4,182.5l-4.6,1.7"/>
	<path class="st7" d="M312.9,191.4l3.7-3.1"/>
	<path class="st7" d="M312.9,191.4l2.4,4.2"/>
	<path class="st7" d="M302.7,197.3l2.4,4.2"/>
	<path class="st7" d="M302.7,197.3l-4.6,1.7"/>
	<path class="st7" d="M285.1,190.9l2.4,4.2"/>
	<path class="st7" d="M285.1,190.9l-4.6,1.7"/>
	<path class="st7" d="M281.1,179.8l-4.6,1.7"/>
	<path class="st7" d="M281.1,179.8l-0.8-4.8"/>
	<path class="st8" d="M85.8,175.1l-2-2.3"/>
	<path class="st8" d="M85.8,175.1l2.6-1.5"/>
	<path class="st8" d="M89.5,181.5l2.6-1.5"/>
	<path class="st8" d="M89.5,181.5l1,2.9"/>
	<path class="st8" d="M85.5,192.6l2.6-1.5"/>
	<path class="st8" d="M85.5,192.6l1,2.9"/>
	<path class="st8" d="M78.5,195.1l1,2.9"/>
	<path class="st8" d="M78.5,195.1l-3,0.5"/>
	<path class="st8" d="M67.9,199l2.6-1.5"/>
	<path class="st8" d="M67.9,199l1,2.9"/>
	<path class="st8" d="M60.9,201.5l1,2.9"/>
	<path class="st8" d="M60.9,201.5l-3,0.5"/>
	<path class="st8" d="M50.7,195.6l1,2.9"/>
	<path class="st8" d="M50.7,195.6l-3,0.5"/>
	<path class="st8" d="M49.4,188.3l-3,0.5"/>
	<path class="st8" d="M49.4,188.3v-3.1"/>
	<path class="st8" d="M42.2,184.1l2.6-1.5"/>
	<path class="st8" d="M42.2,184.1l1,2.9"/>
	<path class="st8" d="M35.2,186.7l1,2.9"/>
	<path class="st8" d="M35.2,186.7l-3,0.5"/>
	<path class="st8" d="M25,180.8l1,2.9"/>
	<path class="st8" d="M25,180.8l-3,0.5"/>
	<path class="st8" d="M23.7,173.5l-3,0.5"/>
	<path class="st8" d="M23.7,173.5v-3.1"/>
	<path class="st8" d="M21.8,162.4l1,2.9"/>
	<path class="st8" d="M21.8,162.4l-3,0.5"/>
	<path class="st8" d="M20.5,155l-3,0.5"/>
	<path class="st8" d="M20.5,155V152"/>
	<path class="st8" d="M28,146l-3,0.5"/>
	<path class="st8" d="M28,146V143"/>
	<path class="st8" d="M35.5,146V143"/>
	<path class="st8" d="M35.5,146l3,0.5"/>
	<path class="st8" d="M34,137.7l2.6-1.5"/>
	<path class="st8" d="M34,137.7l1,2.9"/>
	<path class="st8" d="M27,140.3l1,2.9"/>
	<path class="st8" d="M27,140.3l-3,0.5"/>
	<path class="st8" d="M16.8,134.4l1,2.9"/>
	<path class="st8" d="M16.8,134.4l-3,0.5"/>
	<path class="st8" d="M15.5,127.1l-3,0.5"/>
	<path class="st8" d="M15.5,127.1V124"/>
	<path class="st8" d="M13.6,115.9l1,2.9"/>
	<path class="st8" d="M13.6,115.9l-3,0.5"/>
	<path class="st8" d="M12.3,108.6l-3,0.5"/>
	<path class="st8" d="M12.3,108.6v-3.1"/>
	<path class="st8" d="M19.9,99.6l-3,0.5"/>
	<path class="st8" d="M19.9,99.6v-3.1"/>
	<path class="st8" d="M27.3,99.6v-3.1"/>
	<path class="st8" d="M27.3,99.6l3,0.5"/>
	<path class="st8" d="M32.7,93.2l1,2.9"/>
	<path class="st8" d="M32.7,93.2l-3,0.5"/>
	<path class="st8" d="M31.4,85.9l-3,0.5"/>
	<path class="st8" d="M31.4,85.9v-3.1"/>
	<path class="st8" d="M38.9,76.9l-3,0.5"/>
	<path class="st8" d="M38.9,76.9v-3.1"/>
	<path class="st8" d="M46.4,76.9v-3.1"/>
	<path class="st8" d="M46.4,76.9l3,0.5"/>
	<path class="st8" d="M57.6,76.9l-3,0.5"/>
	<path class="st8" d="M57.6,76.9v-3.1"/>
	<path class="st8" d="M65.1,76.9v-3.1"/>
	<path class="st8" d="M65.1,76.9l3,0.5"/>
	<path class="st8" d="M72.6,85.9v-3.1"/>
	<path class="st8" d="M72.6,85.9l3,0.5"/>
	<path class="st8" d="M71.3,93.2l3,0.5"/>
	<path class="st8" d="M71.3,93.2l-1,2.9"/>
	<path class="st8" d="M82.1,80.4l2.6-1.5"/>
	<path class="st8" d="M82.1,80.4l1,2.9"/>
	<path class="st8" d="M75.1,83l1,2.9"/>
	<path class="st8" d="M75.1,83l-3,0.5"/>
	<path class="st8" d="M64.9,77.1l1,2.9"/>
	<path class="st8" d="M64.9,77.1l-3,0.5"/>
	<path class="st8" d="M63.6,69.8l-3,0.5"/>
	<path class="st8" d="M63.6,69.8v-3.1"/>
	<path class="st8" d="M61.7,58.7l1,2.9"/>
	<path class="st8" d="M61.7,58.7l-3,0.5"/>
	<path class="st8" d="M60.4,51.3l-3,0.5"/>
	<path class="st8" d="M60.4,51.3v-3.1"/>
	<path class="st8" d="M67.9,42.3l-3,0.5"/>
	<path class="st8" d="M67.9,42.3v-3.1"/>
	<path class="st8" d="M75.4,42.3v-3.1"/>
	<path class="st8" d="M75.4,42.3l3,0.5"/>
	<path class="st8" d="M80.7,35.9l1,2.9"/>
	<path class="st8" d="M80.7,35.9l-3,0.5"/>
	<path class="st8" d="M79.4,28.6l-3,0.5"/>
	<path class="st8" d="M79.4,28.6v-3.1"/>
	<path class="st8" d="M87,19.6l-3,0.5"/>
	<path class="st8" d="M87,19.6v-3.1"/>
	<path class="st8" d="M94.4,19.6v-3.1"/>
	<path class="st8" d="M94.4,19.6l3,0.5"/>
	<path class="st8" d="M105.7,19.6l-3,0.5"/>
	<path class="st8" d="M105.7,19.6v-3.1"/>
	<path class="st8" d="M113.1,19.6v-3.1"/>
	<path class="st8" d="M113.1,19.6l3,0.5"/>
	<path class="st8" d="M120.7,28.6v-3.1"/>
	<path class="st8" d="M120.7,28.6l3,0.5"/>
	<path class="st8" d="M119.4,35.9l3,0.5"/>
	<path class="st8" d="M119.4,35.9l-1,2.9"/>
	<path class="st8" d="M127.9,35.9l1,2.9"/>
	<path class="st8" d="M127.9,35.9l-3,0.5"/>
	<path class="st8" d="M126.6,28.6l-3,0.5"/>
	<path class="st8" d="M126.6,28.6v-3.1"/>
	<path class="st8" d="M134.1,19.6l-3,0.5"/>
	<path class="st8" d="M134.1,19.6v-3.1"/>
	<path class="st8" d="M141.6,19.6v-3.1"/>
	<path class="st8" d="M141.6,19.6l3,0.5"/>
	<path class="st8" d="M152.8,19.6l-3,0.5"/>
	<path class="st8" d="M152.8,19.6v-3.1"/>
	<path class="st8" d="M160.3,19.6v-3.1"/>
	<path class="st8" d="M160.3,19.6l3,0.5"/>
	<path class="st8" d="M167.8,28.6v-3.1"/>
	<path class="st8" d="M167.8,28.6l3,0.5"/>
	<path class="st8" d="M166.5,35.9l3,0.5"/>
	<path class="st8" d="M166.5,35.9l-1,2.9"/>
	<path class="st8" d="M171.9,42.3l-3,0.5"/>
	<path class="st8" d="M171.9,42.3v-3.1"/>
	<path class="st8" d="M179.3,42.3v-3.1"/>
	<path class="st8" d="M179.3,42.3l3,0.5"/>
	<path class="st8" d="M186.9,51.3v-3.1"/>
	<path class="st8" d="M186.9,51.3l3,0.5"/>
	<path class="st8" d="M185.6,58.7l3,0.5"/>
	<path class="st8" d="M185.6,58.7l-1,2.9"/>
	<path class="st8" d="M183.7,69.8v-3.1"/>
	<path class="st8" d="M183.7,69.8l3,0.5"/>
	<path class="st8" d="M182.4,77.1l3,0.5"/>
	<path class="st8" d="M182.4,77.1l-1,2.9"/>
	<path class="st8" d="M172.2,83l3,0.5"/>
	<path class="st8" d="M172.2,83l-1,2.9"/>
	<path class="st8" d="M165.2,80.4l-1,2.9"/>
	<path class="st8" d="M165.2,80.4l-2.6-1.5"/>
	<path class="st8" d="M200.8,80.4l2.6-1.5"/>
	<path class="st8" d="M200.8,80.4l1,2.9"/>
	<path class="st8" d="M193.8,83l1,2.9"/>
	<path class="st8" d="M193.8,83l-3,0.5"/>
	<path class="st8" d="M183.6,77.1l1,2.9"/>
	<path class="st8" d="M183.6,77.1l-3,0.5"/>
	<path class="st8" d="M182.3,69.8l-3,0.5"/>
	<path class="st8" d="M182.3,69.8v-3.1"/>
	<path class="st8" d="M180.4,58.7l1,2.9"/>
	<path class="st8" d="M180.4,58.7l-3,0.5"/>
	<path class="st8" d="M179.1,51.3l-3,0.5"/>
	<path class="st8" d="M179.1,51.3v-3.1"/>
	<path class="st8" d="M186.7,42.3l-3,0.5"/>
	<path class="st8" d="M186.7,42.3v-3.1"/>
	<path class="st8" d="M194.1,42.3v-3.1"/>
	<path class="st8" d="M194.1,42.3l3,0.5"/>
	<path class="st8" d="M199.5,35.9l1,2.9"/>
	<path class="st8" d="M199.5,35.9l-3,0.5"/>
	<path class="st8" d="M198.2,28.6l-3,0.5"/>
	<path class="st8" d="M198.2,28.6v-3.1"/>
	<path class="st8" d="M205.7,19.6l-3,0.5"/>
	<path class="st8" d="M205.7,19.6v-3.1"/>
	<path class="st8" d="M213.2,19.6v-3.1"/>
	<path class="st8" d="M213.2,19.6l3,0.5"/>
	<path class="st8" d="M224.4,19.6l-3,0.5"/>
	<path class="st8" d="M224.4,19.6v-3.1"/>
	<path class="st8" d="M231.9,19.6v-3.1"/>
	<path class="st8" d="M231.9,19.6l3,0.5"/>
	<path class="st8" d="M239.4,28.6v-3.1"/>
	<path class="st8" d="M239.4,28.6l3,0.5"/>
	<path class="st8" d="M238.1,35.9l3,0.5"/>
	<path class="st8" d="M238.1,35.9l-1,2.9"/>
	<path class="st8" d="M246.6,35.9l1,2.9"/>
	<path class="st8" d="M246.6,35.9l-3,0.5"/>
	<path class="st8" d="M245.3,28.6l-3,0.5"/>
	<path class="st8" d="M245.3,28.6v-3.1"/>
	<path class="st8" d="M252.9,19.6l-3,0.5"/>
	<path class="st8" d="M252.9,19.6v-3.1"/>
	<path class="st8" d="M260.3,19.6v-3.1"/>
	<path class="st8" d="M260.3,19.6l3,0.5"/>
	<path class="st8" d="M271.6,19.6l-3,0.5"/>
	<path class="st8" d="M271.6,19.6v-3.1"/>
	<path class="st8" d="M279,19.6v-3.1"/>
	<path class="st8" d="M279,19.6l3,0.5"/>
	<path class="st8" d="M286.6,28.6v-3.1"/>
	<path class="st8" d="M286.6,28.6l3,0.5"/>
	<path class="st8" d="M285.3,35.9l3,0.5"/>
	<path class="st8" d="M285.3,35.9l-1,2.9"/>
	<path class="st8" d="M290.6,42.3l-3,0.5"/>
	<path class="st8" d="M290.6,42.3v-3.1"/>
	<path class="st8" d="M298.1,42.3v-3.1"/>
	<path class="st8" d="M298.1,42.3l3,0.5"/>
	<path class="st8" d="M305.6,51.3v-3.1"/>
	<path class="st8" d="M305.6,51.3l3,0.5"/>
	<path class="st8" d="M304.3,58.7l3,0.5"/>
	<path class="st8" d="M304.3,58.7l-1,2.9"/>
	<path class="st8" d="M302.4,69.8v-3.1"/>
	<path class="st8" d="M302.4,69.8l3,0.5"/>
	<path class="st8" d="M301.1,77.1l3,0.5"/>
	<path class="st8" d="M301.1,77.1l-1,2.9"/>
	<path class="st8" d="M290.9,83l3,0.5"/>
	<path class="st8" d="M290.9,83l-1,2.9"/>
	<path class="st8" d="M283.9,80.4l-1,2.9"/>
	<path class="st8" d="M283.9,80.4l-2.6-1.5"/>
	<path class="st8" d="M294.7,93.2l1,2.9"/>
	<path class="st8" d="M294.7,93.2l-3,0.5"/>
	<path class="st8" d="M293.4,85.9l-3,0.5"/>
	<path class="st8" d="M293.4,85.9v-3.1"/>
	<path class="st8" d="M300.9,76.9l-3,0.5"/>
	<path class="st8" d="M300.9,76.9v-3.1"/>
	<path class="st8" d="M308.4,76.9v-3.1"/>
	<path class="st8" d="M308.4,76.9l3,0.5"/>
	<path class="st8" d="M319.6,76.9l-3,0.5"/>
	<path class="st8" d="M319.6,76.9v-3.1"/>
	<path class="st8" d="M327.1,76.9v-3.1"/>
	<path class="st8" d="M327.1,76.9l3,0.5"/>
	<path class="st8" d="M334.6,85.9v-3.1"/>
	<path class="st8" d="M334.6,85.9l3,0.5"/>
	<path class="st8" d="M333.3,93.2l3,0.5"/>
	<path class="st8" d="M333.3,93.2l-1,2.9"/>
	<path class="st8" d="M338.7,99.6l-3,0.5"/>
	<path class="st8" d="M338.7,99.6v-3.1"/>
	<path class="st8" d="M346.1,99.6v-3.1"/>
	<path class="st8" d="M346.1,99.6l3,0.5"/>
	<path class="st8" d="M353.7,108.6v-3.1"/>
	<path class="st8" d="M353.7,108.6l3,0.5"/>
	<path class="st8" d="M352.4,115.9l3,0.5"/>
	<path class="st8" d="M352.4,115.9l-1,2.9"/>
	<path class="st8" d="M350.5,127.1V124"/>
	<path class="st8" d="M350.5,127.1l3,0.5"/>
	<path class="st8" d="M349.2,134.4l3,0.5"/>
	<path class="st8" d="M349.2,134.4l-1,2.9"/>
	<path class="st8" d="M339,140.3l3,0.5"/>
	<path class="st8" d="M339,140.3l-1,2.9"/>
	<path class="st8" d="M332,137.7l-1,2.9"/>
	<path class="st8" d="M332,137.7l-2.6-1.5"/>
	<path class="st8" d="M330.5,146l-3,0.5"/>
	<path class="st8" d="M330.5,146V143"/>
	<path class="st8" d="M338,146V143"/>
	<path class="st8" d="M338,146l3,0.5"/>
	<path class="st8" d="M345.5,155V152"/>
	<path class="st8" d="M345.5,155l3,0.5"/>
	<path class="st8" d="M344.2,162.4l3,0.5"/>
	<path class="st8" d="M344.2,162.4l-1,2.9"/>
	<path class="st8" d="M342.3,173.5v-3.1"/>
	<path class="st8" d="M342.3,173.5l3,0.5"/>
	<path class="st8" d="M341,180.8l3,0.5"/>
	<path class="st8" d="M341,180.8l-1,2.9"/>
	<path class="st8" d="M330.8,186.7l3,0.5"/>
	<path class="st8" d="M330.8,186.7l-1,2.9"/>
	<path class="st8" d="M323.8,184.1l-1,2.9"/>
	<path class="st8" d="M323.8,184.1l-2.6-1.5"/>
	<path class="st8" d="M316.6,188.3v-3.1"/>
	<path class="st8" d="M316.6,188.3l3,0.5"/>
	<path class="st8" d="M315.3,195.6l3,0.5"/>
	<path class="st8" d="M315.3,195.6l-1,2.9"/>
	<path class="st8" d="M305.1,201.5l3,0.5"/>
	<path class="st8" d="M305.1,201.5l-1,2.9"/>
	<path class="st8" d="M298.1,199l-1,2.9"/>
	<path class="st8" d="M298.1,199l-2.6-1.5"/>
	<path class="st8" d="M287.5,195.1l3,0.5"/>
	<path class="st8" d="M287.5,195.1l-1,2.9"/>
	<path class="st8" d="M280.5,192.6l-1,2.9"/>
	<path class="st8" d="M280.5,192.6l-2.6-1.5"/>
	<path class="st8" d="M276.5,181.5l-1,2.9"/>
	<path class="st8" d="M276.5,181.5l-2.6-1.5"/>
	<path class="st8" d="M280.2,175.1l-2.6-1.5"/>
	<path class="st8" d="M280.2,175.1l2-2.3"/>
	<path class="st9" d="M83.8,172.7h-1.9"/>
	<path class="st9" d="M83.8,172.7l0.3-1.9"/>
	<path class="st9" d="M88.4,173.5l0.3-1.9"/>
	<path class="st9" d="M88.4,173.5l1.8,0.7"/>
	<path class="st9" d="M92.1,180l0.3-1.9"/>
	<path class="st9" d="M92.1,180l1.8,0.7"/>
	<path class="st9" d="M90.5,184.4l1.8,0.7"/>
	<path class="st9" d="M90.5,184.4l-1,1.7"/>
	<path class="st9" d="M88.1,191l0.3-1.9"/>
	<path class="st9" d="M88.1,191l1.8,0.7"/>
	<path class="st9" d="M86.5,195.4l1.8,0.7"/>
	<path class="st9" d="M86.5,195.4l-1,1.7"/>
	<path class="st9" d="M79.5,198l1.8,0.7"/>
	<path class="st9" d="M79.5,198l-1,1.7"/>
	<path class="st9" d="M75.5,195.6l-1,1.7"/>
	<path class="st9" d="M75.5,195.6l-1.5-1.2"/>
	<path class="st9" d="M70.5,197.4l0.3-1.9"/>
	<path class="st9" d="M70.5,197.4l1.8,0.7"/>
	<path class="st9" d="M68.9,201.8l1.8,0.7"/>
	<path class="st9" d="M68.9,201.8l-1,1.7"/>
	<path class="st9" d="M62,204.4l1.8,0.7"/>
	<path class="st9" d="M62,204.4l-1,1.7"/>
	<path class="st9" d="M57.9,202l-1,1.7"/>
	<path class="st9" d="M57.9,202l-1.5-1.2"/>
	<path class="st9" d="M51.8,198.5l1.8,0.7"/>
	<path class="st9" d="M51.8,198.5l-1,1.7"/>
	<path class="st9" d="M47.7,196.1l-1,1.7"/>
	<path class="st9" d="M47.7,196.1l-1.5-1.2"/>
	<path class="st9" d="M46.4,188.8l-1,1.7"/>
	<path class="st9" d="M46.4,188.8l-1.5-1.2"/>
	<path class="st9" d="M49.4,185.3l-1.5-1.2"/>
	<path class="st9" d="M49.4,185.3l1.5-1.2"/>
	<path class="st9" d="M44.8,182.6l0.3-1.9"/>
	<path class="st9" d="M44.8,182.6l1.8,0.7"/>
	<path class="st9" d="M43.2,187l1.8,0.7"/>
	<path class="st9" d="M43.2,187l-1,1.7"/>
	<path class="st9" d="M36.3,189.5l1.8,0.7"/>
	<path class="st9" d="M36.3,189.5l-1,1.7"/>
	<path class="st9" d="M32.2,187.2l-1,1.7"/>
	<path class="st9" d="M32.2,187.2l-1.5-1.2"/>
	<path class="st9" d="M26,183.6l1.8,0.7"/>
	<path class="st9" d="M26,183.6l-1,1.7"/>
	<path class="st9" d="M22,181.3l-1,1.7"/>
	<path class="st9" d="M22,181.3l-1.5-1.2"/>
	<path class="st9" d="M20.7,174l-1,1.7"/>
	<path class="st9" d="M20.7,174l-1.5-1.2"/>
	<path class="st9" d="M23.7,170.4l-1.5-1.2"/>
	<path class="st9" d="M23.7,170.4l1.5-1.2"/>
	<path class="st9" d="M22.8,165.2l1.8,0.7"/>
	<path class="st9" d="M22.8,165.2l-1,1.7"/>
	<path class="st9" d="M18.7,162.9l-1,1.7"/>
	<path class="st9" d="M18.7,162.9l-1.5-1.2"/>
	<path class="st9" d="M17.5,155.6l-1,1.7"/>
	<path class="st9" d="M17.5,155.6l-1.5-1.2"/>
	<path class="st9" d="M20.5,152l-1.5-1.2"/>
	<path class="st9" d="M20.5,152l1.5-1.2"/>
	<path class="st9" d="M25,146.5l-1,1.7"/>
	<path class="st9" d="M25,146.5l-1.5-1.2"/>
	<path class="st9" d="M28,143l-1.5-1.2"/>
	<path class="st9" d="M28,143l1.5-1.2"/>
	<path class="st9" d="M35.5,143l-1.5-1.2"/>
	<path class="st9" d="M35.5,143l1.5-1.2"/>
	<path class="st9" d="M38.5,146.5l1.5-1.2"/>
	<path class="st9" d="M38.5,146.5l1,1.7"/>
	<path class="st9" d="M36.6,136.2l0.3-1.9"/>
	<path class="st9" d="M36.6,136.2l1.8,0.7"/>
	<path class="st9" d="M35,140.6l1.8,0.7"/>
	<path class="st9" d="M35,140.6l-1,1.7"/>
	<path class="st9" d="M28.1,143.1l1.8,0.7"/>
	<path class="st9" d="M28.1,143.1l-1,1.7"/>
	<path class="st9" d="M24,140.8l-1,1.7"/>
	<path class="st9" d="M24,140.8l-1.5-1.2"/>
	<path class="st9" d="M17.9,137.2l1.8,0.7"/>
	<path class="st9" d="M17.9,137.2l-1,1.7"/>
	<path class="st9" d="M13.8,134.9l-1,1.7"/>
	<path class="st9" d="M13.8,134.9l-1.5-1.2"/>
	<path class="st9" d="M12.5,127.6l-1,1.7"/>
	<path class="st9" d="M12.5,127.6l-1.5-1.2"/>
	<path class="st9" d="M15.5,124l-1.5-1.2"/>
	<path class="st9" d="M15.5,124l1.5-1.2"/>
	<path class="st9" d="M14.6,118.8l1.8,0.7"/>
	<path class="st9" d="M14.6,118.8l-1,1.7"/>
	<path class="st9" d="M10.6,116.5l-1,1.7"/>
	<path class="st9" d="M10.6,116.5l-1.5-1.2"/>
	<path class="st9" d="M9.3,109.2l-1,1.7"/>
	<path class="st9" d="M9.3,109.2l-1.5-1.2"/>
	<path class="st9" d="M12.3,105.6l-1.5-1.2"/>
	<path class="st9" d="M12.3,105.6l1.5-1.2"/>
	<path class="st9" d="M16.9,100.1l-1,1.7"/>
	<path class="st9" d="M16.9,100.1l-1.5-1.2"/>
	<path class="st9" d="M19.9,96.6l-1.5-1.2"/>
	<path class="st9" d="M19.9,96.6l1.5-1.2"/>
	<path class="st9" d="M27.3,96.6l-1.5-1.2"/>
	<path class="st9" d="M27.3,96.6l1.5-1.2"/>
	<path class="st9" d="M30.3,100.1l1.5-1.2"/>
	<path class="st9" d="M30.3,100.1l1,1.7"/>
	<path class="st9" d="M33.7,96.1l1.8,0.7"/>
	<path class="st9" d="M33.7,96.1l-1,1.7"/>
	<path class="st9" d="M29.6,93.7l-1,1.7"/>
	<path class="st9" d="M29.6,93.7l-1.5-1.2"/>
	<path class="st9" d="M28.4,86.4l-1,1.7"/>
	<path class="st9" d="M28.4,86.4l-1.5-1.2"/>
	<path class="st9" d="M31.4,82.8l-1.5-1.2"/>
	<path class="st9" d="M31.4,82.8l1.5-1.2"/>
	<path class="st9" d="M35.9,77.4l-1,1.7"/>
	<path class="st9" d="M35.9,77.4l-1.5-1.2"/>
	<path class="st9" d="M38.9,73.8l-1.5-1.2"/>
	<path class="st9" d="M38.9,73.8l1.5-1.2"/>
	<path class="st9" d="M46.4,73.8l-1.5-1.2"/>
	<path class="st9" d="M46.4,73.8l1.5-1.2"/>
	<path class="st9" d="M49.4,77.4l1.5-1.2"/>
	<path class="st9" d="M49.4,77.4l1,1.7"/>
	<path class="st9" d="M54.6,77.4l-1,1.7"/>
	<path class="st9" d="M54.6,77.4l-1.5-1.2"/>
	<path class="st9" d="M57.6,73.8l-1.5-1.2"/>
	<path class="st9" d="M57.6,73.8l1.5-1.2"/>
	<path class="st9" d="M65.1,73.8l-1.5-1.2"/>
	<path class="st9" d="M65.1,73.8l1.5-1.2"/>
	<path class="st9" d="M68.1,77.4l1.5-1.2"/>
	<path class="st9" d="M68.1,77.4l1,1.7"/>
	<path class="st9" d="M72.6,82.8l-1.5-1.2"/>
	<path class="st9" d="M72.6,82.8l1.5-1.2"/>
	<path class="st9" d="M75.6,86.4l1.5-1.2"/>
	<path class="st9" d="M75.6,86.4l1,1.7"/>
	<path class="st9" d="M74.4,93.7l1.5-1.2"/>
	<path class="st9" d="M74.4,93.7l1,1.7"/>
	<path class="st9" d="M70.3,96.1l1,1.7"/>
	<path class="st9" d="M70.3,96.1l-1.8,0.7"/>
	<path class="st9" d="M84.7,78.9l0.3-1.9"/>
	<path class="st9" d="M84.7,78.9l1.8,0.7"/>
	<path class="st9" d="M83.1,83.3l1.8,0.7"/>
	<path class="st9" d="M83.1,83.3l-1,1.7"/>
	<path class="st9" d="M76.1,85.8l1.8,0.7"/>
	<path class="st9" d="M76.1,85.8l-1,1.7"/>
	<path class="st9" d="M72.1,83.5l-1,1.7"/>
	<path class="st9" d="M72.1,83.5l-1.5-1.2"/>
	<path class="st9" d="M65.9,79.9l1.8,0.7"/>
	<path class="st9" d="M65.9,79.9l-1,1.7"/>
	<path class="st9" d="M61.9,77.6l-1,1.7"/>
	<path class="st9" d="M61.9,77.6l-1.5-1.2"/>
	<path class="st9" d="M60.6,70.3l-1,1.7"/>
	<path class="st9" d="M60.6,70.3l-1.5-1.2"/>
	<path class="st9" d="M63.6,66.7l-1.5-1.2"/>
	<path class="st9" d="M63.6,66.7l1.5-1.2"/>
	<path class="st9" d="M62.7,61.5l1.8,0.7"/>
	<path class="st9" d="M62.7,61.5l-1,1.7"/>
	<path class="st9" d="M58.6,59.2l-1,1.7"/>
	<path class="st9" d="M58.6,59.2l-1.5-1.2"/>
	<path class="st9" d="M57.4,51.9l-1,1.7"/>
	<path class="st9" d="M57.4,51.9l-1.5-1.2"/>
	<path class="st9" d="M60.4,48.3l-1.5-1.2"/>
	<path class="st9" d="M60.4,48.3l1.5-1.2"/>
	<path class="st9" d="M64.9,42.8l-1,1.7"/>
	<path class="st9" d="M64.9,42.8l-1.5-1.2"/>
	<path class="st9" d="M67.9,39.3L66.5,38"/>
	<path class="st9" d="M67.9,39.3l1.5-1.2"/>
	<path class="st9" d="M75.4,39.3L73.9,38"/>
	<path class="st9" d="M75.4,39.3l1.5-1.2"/>
	<path class="st9" d="M78.4,42.8l1.5-1.2"/>
	<path class="st9" d="M78.4,42.8l1,1.7"/>
	<path class="st9" d="M81.8,38.8l1.8,0.7"/>
	<path class="st9" d="M81.8,38.8l-1,1.7"/>
	<path class="st9" d="M77.7,36.4l-1,1.7"/>
	<path class="st9" d="M77.7,36.4l-1.5-1.2"/>
	<path class="st9" d="M76.4,29.1l-1,1.7"/>
	<path class="st9" d="M76.4,29.1L75,27.9"/>
	<path class="st9" d="M79.4,25.5L78,24.3"/>
	<path class="st9" d="M79.4,25.5l1.5-1.2"/>
	<path class="st9" d="M84,20.1l-1,1.7"/>
	<path class="st9" d="M84,20.1l-1.5-1.2"/>
	<path class="st9" d="M87,16.5l-1.5-1.2"/>
	<path class="st9" d="M87,16.5l1.5-1.2"/>
	<path class="st9" d="M94.4,16.5L93,15.3"/>
	<path class="st9" d="M94.4,16.5l1.5-1.2"/>
	<path class="st9" d="M97.4,20.1l1.5-1.2"/>
	<path class="st9" d="M97.4,20.1l1,1.7"/>
	<path class="st9" d="M102.7,20.1l-1,1.7"/>
	<path class="st9" d="M102.7,20.1l-1.5-1.2"/>
	<path class="st9" d="M105.7,16.5l-1.5-1.2"/>
	<path class="st9" d="M105.7,16.5l1.5-1.2"/>
	<path class="st9" d="M113.1,16.5l-1.5-1.2"/>
	<path class="st9" d="M113.1,16.5l1.5-1.2"/>
	<path class="st9" d="M116.1,20.1l1.5-1.2"/>
	<path class="st9" d="M116.1,20.1l1,1.7"/>
	<path class="st9" d="M120.7,25.5l-1.5-1.2"/>
	<path class="st9" d="M120.7,25.5l1.5-1.2"/>
	<path class="st9" d="M123.7,29.1l1.5-1.2"/>
	<path class="st9" d="M123.7,29.1l1,1.7"/>
	<path class="st9" d="M122.4,36.4l1.5-1.2"/>
	<path class="st9" d="M122.4,36.4l1,1.7"/>
	<path class="st9" d="M118.4,38.8l1,1.7"/>
	<path class="st9" d="M118.4,38.8l-1.8,0.7"/>
	<path class="st9" d="M128.9,38.8l1.8,0.7"/>
	<path class="st9" d="M128.9,38.8l-1,1.7"/>
	<path class="st9" d="M124.8,36.4l-1,1.7"/>
	<path class="st9" d="M124.8,36.4l-1.5-1.2"/>
	<path class="st9" d="M123.6,29.1l-1,1.7"/>
	<path class="st9" d="M123.6,29.1l-1.5-1.2"/>
	<path class="st9" d="M126.6,25.5l-1.5-1.2"/>
	<path class="st9" d="M126.6,25.5l1.5-1.2"/>
	<path class="st9" d="M131.1,20.1l-1,1.7"/>
	<path class="st9" d="M131.1,20.1l-1.5-1.2"/>
	<path class="st9" d="M134.1,16.5l-1.5-1.2"/>
	<path class="st9" d="M134.1,16.5l1.5-1.2"/>
	<path class="st9" d="M141.6,16.5l-1.5-1.2"/>
	<path class="st9" d="M141.6,16.5l1.5-1.2"/>
	<path class="st9" d="M144.6,20.1l1.5-1.2"/>
	<path class="st9" d="M144.6,20.1l1,1.7"/>
	<path class="st9" d="M149.8,20.1l-1,1.7"/>
	<path class="st9" d="M149.8,20.1l-1.5-1.2"/>
	<path class="st9" d="M152.8,16.5l-1.5-1.2"/>
	<path class="st9" d="M152.8,16.5l1.5-1.2"/>
	<path class="st9" d="M160.3,16.5l-1.5-1.2"/>
	<path class="st9" d="M160.3,16.5l1.5-1.2"/>
	<path class="st9" d="M163.3,20.1l1.5-1.2"/>
	<path class="st9" d="M163.3,20.1l1,1.7"/>
	<path class="st9" d="M167.8,25.5l-1.5-1.2"/>
	<path class="st9" d="M167.8,25.5l1.5-1.2"/>
	<path class="st9" d="M170.8,29.1l1.5-1.2"/>
	<path class="st9" d="M170.8,29.1l1,1.7"/>
	<path class="st9" d="M169.6,36.4l1.5-1.2"/>
	<path class="st9" d="M169.6,36.4l1,1.7"/>
	<path class="st9" d="M165.5,38.8l1,1.7"/>
	<path class="st9" d="M165.5,38.8l-1.8,0.7"/>
	<path class="st9" d="M168.9,42.8l-1,1.7"/>
	<path class="st9" d="M168.9,42.8l-1.5-1.2"/>
	<path class="st9" d="M171.9,39.3l-1.5-1.2"/>
	<path class="st9" d="M171.9,39.3l1.5-1.2"/>
	<path class="st9" d="M179.3,39.3l-1.5-1.2"/>
	<path class="st9" d="M179.3,39.3l1.5-1.2"/>
	<path class="st9" d="M182.3,42.8l1.5-1.2"/>
	<path class="st9" d="M182.3,42.8l1,1.7"/>
	<path class="st9" d="M186.9,48.3l-1.5-1.2"/>
	<path class="st9" d="M186.9,48.3l1.5-1.2"/>
	<path class="st9" d="M189.9,51.9l1.5-1.2"/>
	<path class="st9" d="M189.9,51.9l1,1.7"/>
	<path class="st9" d="M188.6,59.2l1.5-1.2"/>
	<path class="st9" d="M188.6,59.2l1,1.7"/>
	<path class="st9" d="M184.6,61.5l1,1.7"/>
	<path class="st9" d="M184.6,61.5l-1.8,0.7"/>
	<path class="st9" d="M183.7,66.7l-1.5-1.2"/>
	<path class="st9" d="M183.7,66.7l1.5-1.2"/>
	<path class="st9" d="M186.7,70.3l1.5-1.2"/>
	<path class="st9" d="M186.7,70.3l1,1.7"/>
	<path class="st9" d="M185.4,77.6l1.5-1.2"/>
	<path class="st9" d="M185.4,77.6l1,1.7"/>
	<path class="st9" d="M181.3,79.9l1,1.7"/>
	<path class="st9" d="M181.3,79.9l-1.8,0.7"/>
	<path class="st9" d="M175.2,83.5l1.5-1.2"/>
	<path class="st9" d="M175.2,83.5l1,1.7"/>
	<path class="st9" d="M171.1,85.8l1,1.7"/>
	<path class="st9" d="M171.1,85.8l-1.8,0.7"/>
	<path class="st9" d="M164.2,83.3l1,1.7"/>
	<path class="st9" d="M164.2,83.3l-1.8,0.7"/>
	<path class="st9" d="M162.6,78.9l-1.8,0.7"/>
	<path class="st9" d="M162.6,78.9l-0.3-1.9"/>
	<path class="st9" d="M203.4,78.9l0.3-1.9"/>
	<path class="st9" d="M203.4,78.9l1.8,0.7"/>
	<path class="st9" d="M201.8,83.3l1.8,0.7"/>
	<path class="st9" d="M201.8,83.3l-1,1.7"/>
	<path class="st9" d="M194.9,85.8l1.8,0.7"/>
	<path class="st9" d="M194.9,85.8l-1,1.7"/>
	<path class="st9" d="M190.8,83.5l-1,1.7"/>
	<path class="st9" d="M190.8,83.5l-1.5-1.2"/>
	<path class="st9" d="M184.7,79.9l1.8,0.7"/>
	<path class="st9" d="M184.7,79.9l-1,1.7"/>
	<path class="st9" d="M180.6,77.6l-1,1.7"/>
	<path class="st9" d="M180.6,77.6l-1.5-1.2"/>
	<path class="st9" d="M179.3,70.3l-1,1.7"/>
	<path class="st9" d="M179.3,70.3l-1.5-1.2"/>
	<path class="st9" d="M182.3,66.7l-1.5-1.2"/>
	<path class="st9" d="M182.3,66.7l1.5-1.2"/>
	<path class="st9" d="M181.4,61.5l1.8,0.7"/>
	<path class="st9" d="M181.4,61.5l-1,1.7"/>
	<path class="st9" d="M177.4,59.2l-1,1.7"/>
	<path class="st9" d="M177.4,59.2l-1.5-1.2"/>
	<path class="st9" d="M176.1,51.9l-1,1.7"/>
	<path class="st9" d="M176.1,51.9l-1.5-1.2"/>
	<path class="st9" d="M179.1,48.3l-1.5-1.2"/>
	<path class="st9" d="M179.1,48.3l1.5-1.2"/>
	<path class="st9" d="M183.7,42.8l-1,1.7"/>
	<path class="st9" d="M183.7,42.8l-1.5-1.2"/>
	<path class="st9" d="M186.7,39.3l-1.5-1.2"/>
	<path class="st9" d="M186.7,39.3l1.5-1.2"/>
	<path class="st9" d="M194.1,39.3l-1.5-1.2"/>
	<path class="st9" d="M194.1,39.3l1.5-1.2"/>
	<path class="st9" d="M197.1,42.8l1.5-1.2"/>
	<path class="st9" d="M197.1,42.8l1,1.7"/>
	<path class="st9" d="M200.5,38.8l1.8,0.7"/>
	<path class="st9" d="M200.5,38.8l-1,1.7"/>
	<path class="st9" d="M196.4,36.4l-1,1.7"/>
	<path class="st9" d="M196.4,36.4l-1.5-1.2"/>
	<path class="st9" d="M195.2,29.1l-1,1.7"/>
	<path class="st9" d="M195.2,29.1l-1.5-1.2"/>
	<path class="st9" d="M198.2,25.5l-1.5-1.2"/>
	<path class="st9" d="M198.2,25.5l1.5-1.2"/>
	<path class="st9" d="M202.7,20.1l-1,1.7"/>
	<path class="st9" d="M202.7,20.1l-1.5-1.2"/>
	<path class="st9" d="M205.7,16.5l-1.5-1.2"/>
	<path class="st9" d="M205.7,16.5l1.5-1.2"/>
	<path class="st9" d="M213.2,16.5l-1.5-1.2"/>
	<path class="st9" d="M213.2,16.5l1.5-1.2"/>
	<path class="st9" d="M216.2,20.1l1.5-1.2"/>
	<path class="st9" d="M216.2,20.1l1,1.7"/>
	<path class="st9" d="M221.4,20.1l-1,1.7"/>
	<path class="st9" d="M221.4,20.1l-1.5-1.2"/>
	<path class="st9" d="M224.4,16.5l-1.5-1.2"/>
	<path class="st9" d="M224.4,16.5l1.5-1.2"/>
	<path class="st9" d="M231.9,16.5l-1.5-1.2"/>
	<path class="st9" d="M231.9,16.5l1.5-1.2"/>
	<path class="st9" d="M234.9,20.1l1.5-1.2"/>
	<path class="st9" d="M234.9,20.1l1,1.7"/>
	<path class="st9" d="M239.4,25.5l-1.5-1.2"/>
	<path class="st9" d="M239.4,25.5l1.5-1.2"/>
	<path class="st9" d="M242.4,29.1l1.5-1.2"/>
	<path class="st9" d="M242.4,29.1l1,1.7"/>
	<path class="st9" d="M241.2,36.4l1.5-1.2"/>
	<path class="st9" d="M241.2,36.4l1,1.7"/>
	<path class="st9" d="M237.1,38.8l1,1.7"/>
	<path class="st9" d="M237.1,38.8l-1.8,0.7"/>
	<path class="st9" d="M247.6,38.8l1.8,0.7"/>
	<path class="st9" d="M247.6,38.8l-1,1.7"/>
	<path class="st9" d="M243.6,36.4l-1,1.7"/>
	<path class="st9" d="M243.6,36.4l-1.5-1.2"/>
	<path class="st9" d="M242.3,29.1l-1,1.7"/>
	<path class="st9" d="M242.3,29.1l-1.5-1.2"/>
	<path class="st9" d="M245.3,25.5l-1.5-1.2"/>
	<path class="st9" d="M245.3,25.5l1.5-1.2"/>
	<path class="st9" d="M249.9,20.1l-1,1.7"/>
	<path class="st9" d="M249.9,20.1l-1.5-1.2"/>
	<path class="st9" d="M252.9,16.5l-1.5-1.2"/>
	<path class="st9" d="M252.9,16.5l1.5-1.2"/>
	<path class="st9" d="M260.3,16.5l-1.5-1.2"/>
	<path class="st9" d="M260.3,16.5l1.5-1.2"/>
	<path class="st9" d="M263.3,20.1l1.5-1.2"/>
	<path class="st9" d="M263.3,20.1l1,1.7"/>
	<path class="st9" d="M268.6,20.1l-1,1.7"/>
	<path class="st9" d="M268.6,20.1l-1.5-1.2"/>
	<path class="st9" d="M271.6,16.5l-1.5-1.2"/>
	<path class="st9" d="M271.6,16.5l1.5-1.2"/>
	<path class="st9" d="M279,16.5l-1.5-1.2"/>
	<path class="st9" d="M279,16.5l1.5-1.2"/>
	<path class="st9" d="M282,20.1l1.5-1.2"/>
	<path class="st9" d="M282,20.1l1,1.7"/>
	<path class="st9" d="M286.6,25.5l-1.5-1.2"/>
	<path class="st9" d="M286.6,25.5l1.5-1.2"/>
	<path class="st9" d="M289.6,29.1l1.5-1.2"/>
	<path class="st9" d="M289.6,29.1l1,1.7"/>
	<path class="st9" d="M288.3,36.4l1.5-1.2"/>
	<path class="st9" d="M288.3,36.4l1,1.7"/>
	<path class="st9" d="M284.2,38.8l1,1.7"/>
	<path class="st9" d="M284.2,38.8l-1.8,0.7"/>
	<path class="st9" d="M287.6,42.8l-1,1.7"/>
	<path class="st9" d="M287.6,42.8l-1.5-1.2"/>
	<path class="st9" d="M290.6,39.3l-1.5-1.2"/>
	<path class="st9" d="M290.6,39.3l1.5-1.2"/>
	<path class="st9" d="M298.1,39.3l-1.5-1.2"/>
	<path class="st9" d="M298.1,39.3l1.5-1.2"/>
	<path class="st9" d="M301.1,42.8l1.5-1.2"/>
	<path class="st9" d="M301.1,42.8l1,1.7"/>
	<path class="st9" d="M305.6,48.3l-1.5-1.2"/>
	<path class="st9" d="M305.6,48.3l1.5-1.2"/>
	<path class="st9" d="M308.6,51.9l1.5-1.2"/>
	<path class="st9" d="M308.6,51.9l1,1.7"/>
	<path class="st9" d="M307.4,59.2l1.5-1.2"/>
	<path class="st9" d="M307.4,59.2l1,1.7"/>
	<path class="st9" d="M303.3,61.5l1,1.7"/>
	<path class="st9" d="M303.3,61.5l-1.8,0.7"/>
	<path class="st9" d="M302.4,66.7l-1.5-1.2"/>
	<path class="st9" d="M302.4,66.7l1.5-1.2"/>
	<path class="st9" d="M305.4,70.3l1.5-1.2"/>
	<path class="st9" d="M305.4,70.3l1,1.7"/>
	<path class="st9" d="M304.1,77.6l1.5-1.2"/>
	<path class="st9" d="M304.1,77.6l1,1.7"/>
	<path class="st9" d="M300.1,79.9l1,1.7"/>
	<path class="st9" d="M300.1,79.9l-1.8,0.7"/>
	<path class="st9" d="M293.9,83.5l1.5-1.2"/>
	<path class="st9" d="M293.9,83.5l1,1.7"/>
	<path class="st9" d="M289.9,85.8l1,1.7"/>
	<path class="st9" d="M289.9,85.8l-1.8,0.7"/>
	<path class="st9" d="M282.9,83.3l1,1.7"/>
	<path class="st9" d="M282.9,83.3l-1.8,0.7"/>
	<path class="st9" d="M281.3,78.9l-1.8,0.7"/>
	<path class="st9" d="M281.3,78.9l-0.3-1.9"/>
	<path class="st9" d="M295.7,96.1l1.8,0.7"/>
	<path class="st9" d="M295.7,96.1l-1,1.7"/>
	<path class="st9" d="M291.6,93.7l-1,1.7"/>
	<path class="st9" d="M291.6,93.7l-1.5-1.2"/>
	<path class="st9" d="M290.4,86.4l-1,1.7"/>
	<path class="st9" d="M290.4,86.4l-1.5-1.2"/>
	<path class="st9" d="M293.4,82.8l-1.5-1.2"/>
	<path class="st9" d="M293.4,82.8l1.5-1.2"/>
	<path class="st9" d="M297.9,77.4l-1,1.7"/>
	<path class="st9" d="M297.9,77.4l-1.5-1.2"/>
	<path class="st9" d="M300.9,73.8l-1.5-1.2"/>
	<path class="st9" d="M300.9,73.8l1.5-1.2"/>
	<path class="st9" d="M308.4,73.8l-1.5-1.2"/>
	<path class="st9" d="M308.4,73.8l1.5-1.2"/>
	<path class="st9" d="M311.4,77.4l1.5-1.2"/>
	<path class="st9" d="M311.4,77.4l1,1.7"/>
	<path class="st9" d="M316.6,77.4l-1,1.7"/>
	<path class="st9" d="M316.6,77.4l-1.5-1.2"/>
	<path class="st9" d="M319.6,73.8l-1.5-1.2"/>
	<path class="st9" d="M319.6,73.8l1.5-1.2"/>
	<path class="st9" d="M327.1,73.8l-1.5-1.2"/>
	<path class="st9" d="M327.1,73.8l1.5-1.2"/>
	<path class="st9" d="M330.1,77.4l1.5-1.2"/>
	<path class="st9" d="M330.1,77.4l1,1.7"/>
	<path class="st9" d="M334.6,82.8l-1.5-1.2"/>
	<path class="st9" d="M334.6,82.8l1.5-1.2"/>
	<path class="st9" d="M337.6,86.4l1.5-1.2"/>
	<path class="st9" d="M337.6,86.4l1,1.7"/>
	<path class="st9" d="M336.4,93.7l1.5-1.2"/>
	<path class="st9" d="M336.4,93.7l1,1.7"/>
	<path class="st9" d="M332.3,96.1l1,1.7"/>
	<path class="st9" d="M332.3,96.1l-1.8,0.7"/>
	<path class="st9" d="M335.7,100.1l-1,1.7"/>
	<path class="st9" d="M335.7,100.1l-1.5-1.2"/>
	<path class="st9" d="M338.7,96.6l-1.5-1.2"/>
	<path class="st9" d="M338.7,96.6l1.5-1.2"/>
	<path class="st9" d="M346.1,96.6l-1.5-1.2"/>
	<path class="st9" d="M346.1,96.6l1.5-1.2"/>
	<path class="st9" d="M349.1,100.1l1.5-1.2"/>
	<path class="st9" d="M349.1,100.1l1,1.7"/>
	<path class="st9" d="M353.7,105.6l-1.5-1.2"/>
	<path class="st9" d="M353.7,105.6l1.5-1.2"/>
	<path class="st9" d="M356.7,109.2l1.5-1.2"/>
	<path class="st9" d="M356.7,109.2l1,1.7"/>
	<path class="st9" d="M355.4,116.5l1.5-1.2"/>
	<path class="st9" d="M355.4,116.5l1,1.7"/>
	<path class="st9" d="M351.4,118.8l1,1.7"/>
	<path class="st9" d="M351.4,118.8l-1.8,0.7"/>
	<path class="st9" d="M350.5,124l-1.5-1.2"/>
	<path class="st9" d="M350.5,124l1.5-1.2"/>
	<path class="st9" d="M353.5,127.6l1.5-1.2"/>
	<path class="st9" d="M353.5,127.6l1,1.7"/>
	<path class="st9" d="M352.2,134.9l1.5-1.2"/>
	<path class="st9" d="M352.2,134.9l1,1.7"/>
	<path class="st9" d="M348.1,137.2l1,1.7"/>
	<path class="st9" d="M348.1,137.2l-1.8,0.7"/>
	<path class="st9" d="M342,140.8l1.5-1.2"/>
	<path class="st9" d="M342,140.8l1,1.7"/>
	<path class="st9" d="M337.9,143.1l1,1.7"/>
	<path class="st9" d="M337.9,143.1l-1.8,0.7"/>
	<path class="st9" d="M331,140.6l1,1.7"/>
	<path class="st9" d="M331,140.6l-1.8,0.7"/>
	<path class="st9" d="M329.4,136.2l-1.8,0.7"/>
	<path class="st9" d="M329.4,136.2l-0.3-1.9"/>
	<path class="st9" d="M327.5,146.5l-1,1.7"/>
	<path class="st9" d="M327.5,146.5l-1.5-1.2"/>
	<path class="st9" d="M330.5,143l-1.5-1.2"/>
	<path class="st9" d="M330.5,143l1.5-1.2"/>
	<path class="st9" d="M338,143l-1.5-1.2"/>
	<path class="st9" d="M338,143l1.5-1.2"/>
	<path class="st9" d="M341,146.5l1.5-1.2"/>
	<path class="st9" d="M341,146.5l1,1.7"/>
	<path class="st9" d="M345.5,152l-1.5-1.2"/>
	<path class="st9" d="M345.5,152l1.5-1.2"/>
	<path class="st9" d="M348.5,155.6l1.5-1.2"/>
	<path class="st9" d="M348.5,155.6l1,1.7"/>
	<path class="st9" d="M347.3,162.9l1.5-1.2"/>
	<path class="st9" d="M347.3,162.9l1,1.7"/>
	<path class="st9" d="M343.2,165.2l1,1.7"/>
	<path class="st9" d="M343.2,165.2l-1.8,0.7"/>
	<path class="st9" d="M342.3,170.4l-1.5-1.2"/>
	<path class="st9" d="M342.3,170.4l1.5-1.2"/>
	<path class="st9" d="M345.3,174l1.5-1.2"/>
	<path class="st9" d="M345.3,174l1,1.7"/>
	<path class="st9" d="M344,181.3l1.5-1.2"/>
	<path class="st9" d="M344,181.3l1,1.7"/>
	<path class="st9" d="M340,183.6l1,1.7"/>
	<path class="st9" d="M340,183.6l-1.8,0.7"/>
	<path class="st9" d="M333.8,187.2l1.5-1.2"/>
	<path class="st9" d="M333.8,187.2l1,1.7"/>
	<path class="st9" d="M329.7,189.5l1,1.7"/>
	<path class="st9" d="M329.7,189.5l-1.8,0.7"/>
	<path class="st9" d="M322.8,187l1,1.7"/>
	<path class="st9" d="M322.8,187l-1.8,0.7"/>
	<path class="st9" d="M321.2,182.6l-1.8,0.7"/>
	<path class="st9" d="M321.2,182.6l-0.3-1.9"/>
	<path class="st9" d="M316.6,185.3l-1.5-1.2"/>
	<path class="st9" d="M316.6,185.3l1.5-1.2"/>
	<path class="st9" d="M319.6,188.8l1.5-1.2"/>
	<path class="st9" d="M319.6,188.8l1,1.7"/>
	<path class="st9" d="M318.3,196.1l1.5-1.2"/>
	<path class="st9" d="M318.3,196.1l1,1.7"/>
	<path class="st9" d="M314.2,198.5l1,1.7"/>
	<path class="st9" d="M314.2,198.5l-1.8,0.7"/>
	<path class="st9" d="M308.1,202l1.5-1.2"/>
	<path class="st9" d="M308.1,202l1,1.7"/>
	<path class="st9" d="M304,204.4l1,1.7"/>
	<path class="st9" d="M304,204.4l-1.8,0.7"/>
	<path class="st9" d="M297.1,201.8l1,1.7"/>
	<path class="st9" d="M297.1,201.8l-1.8,0.7"/>
	<path class="st9" d="M295.5,197.4l-1.8,0.7"/>
	<path class="st9" d="M295.5,197.4l-0.3-1.9"/>
	<path class="st9" d="M290.5,195.6l1.5-1.2"/>
	<path class="st9" d="M290.5,195.6l1,1.7"/>
	<path class="st9" d="M286.5,198l1,1.7"/>
	<path class="st9" d="M286.5,198l-1.8,0.7"/>
	<path class="st9" d="M279.5,195.4l1,1.7"/>
	<path class="st9" d="M279.5,195.4l-1.8,0.7"/>
	<path class="st9" d="M277.9,191l-1.8,0.7"/>
	<path class="st9" d="M277.9,191l-0.3-1.9"/>
	<path class="st9" d="M275.5,184.4l1,1.7"/>
	<path class="st9" d="M275.5,184.4l-1.8,0.7"/>
	<path class="st9" d="M273.9,180l-1.8,0.7"/>
	<path class="st9" d="M273.9,180l-0.3-1.9"/>
	<path class="st9" d="M277.6,173.5l-1.8,0.7"/>
	<path class="st9" d="M277.6,173.5l-0.3-1.9"/>
	<path class="st9" d="M282.2,172.7l-0.3-1.9"/>
	<path class="st9" d="M282.2,172.7h1.9"/>
</g>
</svg>
