<?xml version="1.0" encoding="utf-8"?>
<!-- Generator: Adobe Illustrator 19.2.1, SVG Export Plug-In . SVG Version: 6.00 Build 0)  -->
<svg version="1.1" id="Capa_1" xmlns="http://www.w3.org/2000/svg" xmlns:xlink="http://www.w3.org/1999/xlink" x="0px" y="0px"
	 viewBox="0 0 351 351" style="enable-background:new 0 0 351 351;" xml:space="preserve">
<style type="text/css">
	.st0{fill:none;stroke:#000000;stroke-width:10;stroke-miterlimit:10;}
	.st1{fill:none;stroke:#000000;stroke-width:5.8;stroke-miterlimit:10;}
	.st2{fill:none;stroke:#000000;stroke-width:3.364;stroke-miterlimit:10;}
	.st3{fill:none;stroke:#000000;stroke-width:1.9511;stroke-miterlimit:10;}
	.st4{fill:none;stroke:#000000;stroke-width:1.1316;stroke-miterlimit:10;}
	.st5{fill:none;stroke:#000000;stroke-width:0.6564;stroke-miterlimit:10;}
	.st6{fill:none;stroke:#000000;stroke-width:0.3807;stroke-miterlimit:10;}
	.st7{fill:none;stroke:#000000;stroke-width:0.2208;stroke-miterlimit:10;}
	.st8{fill:none;stroke:#000000;stroke-width:0.1281;stroke-miterlimit:10;}
</style>
<g>
	<path class="st0" d="M175.5,331.2v-140"/>
	<path class="st1" d="M175.5,191.2l-44.2-68.1"/>
	<path class="st1" d="M175.5,191.2l44.2-68.1"/>
	<path class="st2" d="M131.3,123.1l-43-19.2"/>
	<path class="st2" d="M131.3,123.1V76"/>
	<path class="st2" d="M219.7,123.1V76"/>
	<path class="st2" d="M219.7,123.1l43-19.2"/>
	<path class="st3" d="M88.2,103.9l-27,4.3"/>
	<path class="st3" d="M88.2,103.9L73.4,81"/>
	<path class="st3" d="M131.3,76l-14.9-22.9"/>
	<path class="st3" d="M131.3,76l14.9-22.9"/>
	<path class="st3" d="M219.7,76l-14.9-22.9"/>
	<path class="st3" d="M219.7,76l14.9-22.9"/>
	<path class="st3" d="M262.7,103.9L277.6,81"/>
	<path class="st3" d="M262.7,103.9l27,4.3"/>
	<path class="st4" d="M61.3,108.2l-11.8,10.6"/>
	<path class="st4" d="M61.3,108.2l-14.5-6.4"/>
	<path class="st4" d="M73.4,81l-14.5-6.4"/>
	<path class="st4" d="M73.4,81V65.2"/>
	<path class="st4" d="M116.4,53.1l-14.5-6.4"/>
	<path class="st4" d="M116.4,53.1V37.2"/>
	<path class="st4" d="M146.2,53.1V37.2"/>
	<path class="st4" d="M146.2,53.1l14.5-6.4"/>
	<path class="st4" d="M204.8,53.1l-14.5-6.4"/>
	<path class="st4" d="M204.8,53.1V37.2"/>
	<path class="st4" d="M234.6,53.1V37.2"/>
	<path class="st4" d="M234.6,53.1l14.5-6.4"/>
	<path class="st4" d="M277.6,81V65.2"/>
	<path class="st4" d="M277.6,81l14.5-6.4"/>
	<path class="st4" d="M289.7,108.2l14.5-6.4"/>
	<path class="st4" d="M289.7,108.2l11.8,10.6"/>
	<path class="st5" d="M49.5,118.8l-2.4,8.9"/>
	<path class="st5" d="M49.5,118.8l-9.1,1.4"/>
	<path class="st5" d="M46.8,101.8l-9.1,1.4"/>
	<path class="st5" d="M46.8,101.8l-5-7.7"/>
	<path class="st5" d="M58.9,74.6L49.8,76"/>
	<path class="st5" d="M58.9,74.6l-5-7.7"/>
	<path class="st5" d="M73.4,65.2l-5-7.7"/>
	<path class="st5" d="M73.4,65.2l5-7.7"/>
	<path class="st5" d="M101.9,46.6l-9.1,1.4"/>
	<path class="st5" d="M101.9,46.6l-5-7.7"/>
	<path class="st5" d="M116.4,37.2l-5-7.7"/>
	<path class="st5" d="M116.4,37.2l5-7.7"/>
	<path class="st5" d="M146.2,37.2l-5-7.7"/>
	<path class="st5" d="M146.2,37.2l5-7.7"/>
	<path class="st5" d="M160.6,46.6l5-7.7"/>
	<path class="st5" d="M160.6,46.6l9.1,1.4"/>
	<path class="st5" d="M190.4,46.6l-9.1,1.4"/>
	<path class="st5" d="M190.4,46.6l-5-7.7"/>
	<path class="st5" d="M204.8,37.2l-5-7.7"/>
	<path class="st5" d="M204.8,37.2l5-7.7"/>
	<path class="st5" d="M234.6,37.2l-5-7.7"/>
	<path class="st5" d="M234.6,37.2l5-7.7"/>
	<path class="st5" d="M249.1,46.6l5-7.7"/>
	<path class="st5" d="M249.1,46.6l9.1,1.4"/>
	<path class="st5" d="M277.6,65.2l-5-7.7"/>
	<path class="st5" d="M277.6,65.2l5-7.7"/>
	<path class="st5" d="M292.1,74.6l5-7.7"/>
	<path class="st5" d="M292.1,74.6l9.1,1.4"/>
	<path class="st5" d="M304.2,101.8l5-7.7"/>
	<path class="st5" d="M304.2,101.8l9.1,1.4"/>
	<path class="st5" d="M301.5,118.8l9.1,1.4"/>
	<path class="st5" d="M301.5,118.8l2.4,8.9"/>
	<path class="st6" d="M47.1,127.7l1.6,5.1"/>
	<path class="st6" d="M47.1,127.7l-4,3.6"/>
	<path class="st6" d="M40.4,120.2l-4,3.6"/>
	<path class="st6" d="M40.4,120.2l-4.9-2.2"/>
	<path class="st6" d="M37.7,103.2l-4,3.6"/>
	<path class="st6" d="M37.7,103.2l-4.9-2.2"/>
	<path class="st6" d="M41.8,94l-4.9-2.2"/>
	<path class="st6" d="M41.8,94v-5.3"/>
	<path class="st6" d="M49.8,76l-4,3.6"/>
	<path class="st6" d="M49.8,76L45,73.8"/>
	<path class="st6" d="M53.9,66.9L49,64.7"/>
	<path class="st6" d="M53.9,66.9v-5.3"/>
	<path class="st6" d="M68.4,57.5l-4.9-2.2"/>
	<path class="st6" d="M68.4,57.5v-5.3"/>
	<path class="st6" d="M78.4,57.5v-5.3"/>
	<path class="st6" d="M78.4,57.5l4.9-2.2"/>
	<path class="st6" d="M92.8,48.1l-4,3.6"/>
	<path class="st6" d="M92.8,48.1L88,45.9"/>
	<path class="st6" d="M96.9,38.9L92,36.8"/>
	<path class="st6" d="M96.9,38.9v-5.3"/>
	<path class="st6" d="M111.4,29.5l-4.9-2.2"/>
	<path class="st6" d="M111.4,29.5v-5.3"/>
	<path class="st6" d="M121.4,29.5v-5.3"/>
	<path class="st6" d="M121.4,29.5l4.9-2.2"/>
	<path class="st6" d="M141.1,29.5l-4.9-2.2"/>
	<path class="st6" d="M141.1,29.5v-5.3"/>
	<path class="st6" d="M151.2,29.5v-5.3"/>
	<path class="st6" d="M151.2,29.5l4.9-2.2"/>
	<path class="st6" d="M165.6,38.9v-5.3"/>
	<path class="st6" d="M165.6,38.9l4.9-2.2"/>
	<path class="st6" d="M169.7,48.1l4.9-2.2"/>
	<path class="st6" d="M169.7,48.1l4,3.6"/>
	<path class="st6" d="M181.3,48.1l-4,3.6"/>
	<path class="st6" d="M181.3,48.1l-4.9-2.2"/>
	<path class="st6" d="M185.4,38.9l-4.9-2.2"/>
	<path class="st6" d="M185.4,38.9v-5.3"/>
	<path class="st6" d="M199.8,29.5l-4.9-2.2"/>
	<path class="st6" d="M199.8,29.5v-5.3"/>
	<path class="st6" d="M209.8,29.5v-5.3"/>
	<path class="st6" d="M209.8,29.5l4.9-2.2"/>
	<path class="st6" d="M229.6,29.5l-4.9-2.2"/>
	<path class="st6" d="M229.6,29.5v-5.3"/>
	<path class="st6" d="M239.6,29.5v-5.3"/>
	<path class="st6" d="M239.6,29.5l4.9-2.2"/>
	<path class="st6" d="M254.1,38.9v-5.3"/>
	<path class="st6" d="M254.1,38.9l4.9-2.2"/>
	<path class="st6" d="M258.1,48.1l4.9-2.2"/>
	<path class="st6" d="M258.1,48.1l4,3.6"/>
	<path class="st6" d="M272.6,57.5l-4.9-2.2"/>
	<path class="st6" d="M272.6,57.5v-5.3"/>
	<path class="st6" d="M282.6,57.5v-5.3"/>
	<path class="st6" d="M282.6,57.5l4.9-2.2"/>
	<path class="st6" d="M297.1,66.9v-5.3"/>
	<path class="st6" d="M297.1,66.9l4.9-2.2"/>
	<path class="st6" d="M301.2,76l4.9-2.2"/>
	<path class="st6" d="M301.2,76l4,3.6"/>
	<path class="st6" d="M309.2,94v-5.3"/>
	<path class="st6" d="M309.2,94l4.9-2.2"/>
	<path class="st6" d="M313.3,103.2l4.9-2.2"/>
	<path class="st6" d="M313.3,103.2l4,3.6"/>
	<path class="st6" d="M310.6,120.2l4.9-2.2"/>
	<path class="st6" d="M310.6,120.2l4,3.6"/>
	<path class="st6" d="M303.9,127.7l4,3.6"/>
	<path class="st6" d="M303.9,127.7l-1.6,5.1"/>
	<path class="st7" d="M48.8,132.7l2.4,1.9"/>
	<path class="st7" d="M48.8,132.7l-0.8,3"/>
	<path class="st7" d="M43.2,131.2l-0.8,3"/>
	<path class="st7" d="M43.2,131.2l-3.1,0.5"/>
	<path class="st7" d="M36.5,123.8l-0.8,3"/>
	<path class="st7" d="M36.5,123.8l-3.1,0.5"/>
	<path class="st7" d="M35.6,118.1l-3.1,0.5"/>
	<path class="st7" d="M35.6,118.1l-1.7-2.6"/>
	<path class="st7" d="M33.8,106.8l-0.8,3"/>
	<path class="st7" d="M33.8,106.8l-3.1,0.5"/>
	<path class="st7" d="M32.9,101l-3.1,0.5"/>
	<path class="st7" d="M32.9,101l-1.7-2.6"/>
	<path class="st7" d="M36.9,91.9l-3.1,0.5"/>
	<path class="st7" d="M36.9,91.9l-1.7-2.6"/>
	<path class="st7" d="M41.8,88.7l-1.7-2.6"/>
	<path class="st7" d="M41.8,88.7l1.7-2.6"/>
	<path class="st7" d="M45.9,79.6l-0.8,3"/>
	<path class="st7" d="M45.9,79.6l-3.1,0.5"/>
	<path class="st7" d="M45,73.8l-3.1,0.5"/>
	<path class="st7" d="M45,73.8l-1.7-2.6"/>
	<path class="st7" d="M49,64.7L46,65.2"/>
	<path class="st7" d="M49,64.7l-1.7-2.6"/>
	<path class="st7" d="M53.9,61.5l-1.7-2.6"/>
	<path class="st7" d="M53.9,61.5l1.7-2.6"/>
	<path class="st7" d="M63.5,55.3l-3.1,0.5"/>
	<path class="st7" d="M63.5,55.3l-1.7-2.6"/>
	<path class="st7" d="M68.4,52.1l-1.7-2.6"/>
	<path class="st7" d="M68.4,52.1l1.7-2.6"/>
	<path class="st7" d="M78.4,52.1l-1.7-2.6"/>
	<path class="st7" d="M78.4,52.1l1.7-2.6"/>
	<path class="st7" d="M83.2,55.3l1.7-2.6"/>
	<path class="st7" d="M83.2,55.3l3.1,0.5"/>
	<path class="st7" d="M88.9,51.6l-0.8,3"/>
	<path class="st7" d="M88.9,51.6l-3.1,0.5"/>
	<path class="st7" d="M88,45.9l-3.1,0.5"/>
	<path class="st7" d="M88,45.9l-1.7-2.6"/>
	<path class="st7" d="M92,36.8L89,37.2"/>
	<path class="st7" d="M92,36.8l-1.7-2.6"/>
	<path class="st7" d="M96.9,33.6L95.2,31"/>
	<path class="st7" d="M96.9,33.6l1.7-2.6"/>
	<path class="st7" d="M106.5,27.4l-3.1,0.5"/>
	<path class="st7" d="M106.5,27.4l-1.7-2.6"/>
	<path class="st7" d="M111.4,24.2l-1.7-2.6"/>
	<path class="st7" d="M111.4,24.2l1.7-2.6"/>
	<path class="st7" d="M121.4,24.2l-1.7-2.6"/>
	<path class="st7" d="M121.4,24.2l1.7-2.6"/>
	<path class="st7" d="M126.3,27.4l1.7-2.6"/>
	<path class="st7" d="M126.3,27.4l3.1,0.5"/>
	<path class="st7" d="M136.3,27.4l-3.1,0.5"/>
	<path class="st7" d="M136.3,27.4l-1.7-2.6"/>
	<path class="st7" d="M141.1,24.2l-1.7-2.6"/>
	<path class="st7" d="M141.1,24.2l1.7-2.6"/>
	<path class="st7" d="M151.2,24.2l-1.7-2.6"/>
	<path class="st7" d="M151.2,24.2l1.7-2.6"/>
	<path class="st7" d="M156,27.4l1.7-2.6"/>
	<path class="st7" d="M156,27.4l3.1,0.5"/>
	<path class="st7" d="M165.6,33.6l-1.7-2.6"/>
	<path class="st7" d="M165.6,33.6l1.7-2.6"/>
	<path class="st7" d="M170.5,36.8l1.7-2.6"/>
	<path class="st7" d="M170.5,36.8l3.1,0.5"/>
	<path class="st7" d="M174.6,45.9l1.7-2.6"/>
	<path class="st7" d="M174.6,45.9l3.1,0.5"/>
	<path class="st7" d="M173.7,51.6l3.1,0.5"/>
	<path class="st7" d="M173.7,51.6l0.8,3"/>
	<path class="st7" d="M177.3,51.6l-0.8,3"/>
	<path class="st7" d="M177.3,51.6l-3.1,0.5"/>
	<path class="st7" d="M176.4,45.9l-3.1,0.5"/>
	<path class="st7" d="M176.4,45.9l-1.7-2.6"/>
	<path class="st7" d="M180.5,36.8l-3.1,0.5"/>
	<path class="st7" d="M180.5,36.8l-1.7-2.6"/>
	<path class="st7" d="M185.4,33.6l-1.7-2.6"/>
	<path class="st7" d="M185.4,33.6l1.7-2.6"/>
	<path class="st7" d="M195,27.4l-3.1,0.5"/>
	<path class="st7" d="M195,27.4l-1.7-2.6"/>
	<path class="st7" d="M199.8,24.2l-1.7-2.6"/>
	<path class="st7" d="M199.8,24.2l1.7-2.6"/>
	<path class="st7" d="M209.8,24.2l-1.7-2.6"/>
	<path class="st7" d="M209.8,24.2l1.7-2.6"/>
	<path class="st7" d="M214.7,27.4l1.7-2.6"/>
	<path class="st7" d="M214.7,27.4l3.1,0.5"/>
	<path class="st7" d="M224.7,27.4l-3.1,0.5"/>
	<path class="st7" d="M224.7,27.4l-1.7-2.6"/>
	<path class="st7" d="M229.6,24.2l-1.7-2.6"/>
	<path class="st7" d="M229.6,24.2l1.7-2.6"/>
	<path class="st7" d="M239.6,24.2l-1.7-2.6"/>
	<path class="st7" d="M239.6,24.2l1.7-2.6"/>
	<path class="st7" d="M244.5,27.4l1.7-2.6"/>
	<path class="st7" d="M244.5,27.4l3.1,0.5"/>
	<path class="st7" d="M254.1,33.6l-1.7-2.6"/>
	<path class="st7" d="M254.1,33.6l1.7-2.6"/>
	<path class="st7" d="M258.9,36.8l1.7-2.6"/>
	<path class="st7" d="M258.9,36.8l3.1,0.5"/>
	<path class="st7" d="M263,45.9l1.7-2.6"/>
	<path class="st7" d="M263,45.9l3.1,0.5"/>
	<path class="st7" d="M262.1,51.6l3.1,0.5"/>
	<path class="st7" d="M262.1,51.6l0.8,3"/>
	<path class="st7" d="M267.8,55.3l-3.1,0.5"/>
	<path class="st7" d="M267.8,55.3l-1.7-2.6"/>
	<path class="st7" d="M272.6,52.1l-1.7-2.6"/>
	<path class="st7" d="M272.6,52.1l1.7-2.6"/>
	<path class="st7" d="M282.6,52.1l-1.7-2.6"/>
	<path class="st7" d="M282.6,52.1l1.7-2.6"/>
	<path class="st7" d="M287.5,55.3l1.7-2.6"/>
	<path class="st7" d="M287.5,55.3l3.1,0.5"/>
	<path class="st7" d="M297.1,61.5l-1.7-2.6"/>
	<path class="st7" d="M297.1,61.5l1.7-2.6"/>
	<path class="st7" d="M302,64.7l1.7-2.6"/>
	<path class="st7" d="M302,64.7l3.1,0.5"/>
	<path class="st7" d="M306,73.8l1.7-2.6"/>
	<path class="st7" d="M306,73.8l3.1,0.5"/>
	<path class="st7" d="M305.1,79.6l3.1,0.5"/>
	<path class="st7" d="M305.1,79.6l0.8,3"/>
	<path class="st7" d="M309.2,88.7l-1.7-2.6"/>
	<path class="st7" d="M309.2,88.7l1.7-2.6"/>
	<path class="st7" d="M314.1,91.9l1.7-2.6"/>
	<path class="st7" d="M314.1,91.9l3.1,0.5"/>
	<path class="st7" d="M318.1,101l1.7-2.6"/>
	<path class="st7" d="M318.1,101l3.1,0.5"/>
	<path class="st7" d="M317.2,106.8l3.1,0.5"/>
	<path class="st7" d="M317.2,106.8l0.8,3"/>
	<path class="st7" d="M315.4,118.1l1.7-2.6"/>
	<path class="st7" d="M315.4,118.1l3.1,0.5"/>
	<path class="st7" d="M314.5,123.8l3.1,0.5"/>
	<path class="st7" d="M314.5,123.8l0.8,3"/>
	<path class="st7" d="M307.8,131.2l3.1,0.5"/>
	<path class="st7" d="M307.8,131.2l0.8,3"/>
	<path class="st7" d="M302.2,132.7l0.8,3"/>
	<path class="st7" d="M302.2,132.7l-2.4,1.9"/>
	<path class="st8" d="M51.2,134.7l1.8,0.2"/>
	<path class="st8" d="M51.2,134.7l0.6,1.7"/>
	<path class="st8" d="M48,135.7l0.6,1.7"/>
	<path class="st8" d="M48,135.7l-1.3,1.2"/>
	<path class="st8" d="M42.4,134.2l0.6,1.7"/>
	<path class="st8" d="M42.4,134.2l-1.3,1.2"/>
	<path class="st8" d="M40.1,131.7l-1.3,1.2"/>
	<path class="st8" d="M40.1,131.7l-1.6-0.7"/>
	<path class="st8" d="M35.7,126.8l0.6,1.7"/>
	<path class="st8" d="M35.7,126.8l-1.3,1.2"/>
	<path class="st8" d="M33.4,124.3l-1.3,1.2"/>
	<path class="st8" d="M33.4,124.3l-1.6-0.7"/>
	<path class="st8" d="M32.5,118.6l-1.3,1.2"/>
	<path class="st8" d="M32.5,118.6l-1.6-0.7"/>
	<path class="st8" d="M33.9,115.5l-1.6-0.7"/>
	<path class="st8" d="M33.9,115.5v-1.8"/>
	<path class="st8" d="M33,109.7l0.6,1.7"/>
	<path class="st8" d="M33,109.7l-1.3,1.2"/>
	<path class="st8" d="M30.7,107.2l-1.3,1.2"/>
	<path class="st8" d="M30.7,107.2l-1.6-0.7"/>
	<path class="st8" d="M29.8,101.5l-1.3,1.2"/>
	<path class="st8" d="M29.8,101.5l-1.6-0.7"/>
	<path class="st8" d="M31.2,98.4l-1.6-0.7"/>
	<path class="st8" d="M31.2,98.4v-1.8"/>
	<path class="st8" d="M33.9,92.4l-1.3,1.2"/>
	<path class="st8" d="M33.9,92.4l-1.6-0.7"/>
	<path class="st8" d="M35.2,89.3l-1.6-0.7"/>
	<path class="st8" d="M35.2,89.3v-1.8"/>
	<path class="st8" d="M40.1,86.1l-1.6-0.7"/>
	<path class="st8" d="M40.1,86.1v-1.8"/>
	<path class="st8" d="M43.5,86.1v-1.8"/>
	<path class="st8" d="M43.5,86.1l1.6-0.7"/>
	<path class="st8" d="M45.1,82.6l0.6,1.7"/>
	<path class="st8" d="M45.1,82.6l-1.3,1.2"/>
	<path class="st8" d="M42.8,80.1l-1.3,1.2"/>
	<path class="st8" d="M42.8,80.1l-1.6-0.7"/>
	<path class="st8" d="M41.9,74.3l-1.3,1.2"/>
	<path class="st8" d="M41.9,74.3l-1.6-0.7"/>
	<path class="st8" d="M43.3,71.3l-1.6-0.7"/>
	<path class="st8" d="M43.3,71.3v-1.8"/>
	<path class="st8" d="M46,65.2l-1.3,1.2"/>
	<path class="st8" d="M46,65.2l-1.6-0.7"/>
	<path class="st8" d="M47.3,62.1l-1.6-0.7"/>
	<path class="st8" d="M47.3,62.1v-1.8"/>
	<path class="st8" d="M52.2,58.9l-1.6-0.7"/>
	<path class="st8" d="M52.2,58.9v-1.8"/>
	<path class="st8" d="M55.6,58.9v-1.8"/>
	<path class="st8" d="M55.6,58.9l1.6-0.7"/>
	<path class="st8" d="M60.4,55.8L59.1,57"/>
	<path class="st8" d="M60.4,55.8l-1.6-0.7"/>
	<path class="st8" d="M61.8,52.7L60.2,52"/>
	<path class="st8" d="M61.8,52.7v-1.8"/>
	<path class="st8" d="M66.7,49.5L65,48.8"/>
	<path class="st8" d="M66.7,49.5v-1.8"/>
	<path class="st8" d="M70.1,49.5v-1.8"/>
	<path class="st8" d="M70.1,49.5l1.6-0.7"/>
	<path class="st8" d="M76.7,49.5l-1.6-0.7"/>
	<path class="st8" d="M76.7,49.5v-1.8"/>
	<path class="st8" d="M80.1,49.5v-1.8"/>
	<path class="st8" d="M80.1,49.5l1.6-0.7"/>
	<path class="st8" d="M84.9,52.7v-1.8"/>
	<path class="st8" d="M84.9,52.7l1.6-0.7"/>
	<path class="st8" d="M86.3,55.8l1.6-0.7"/>
	<path class="st8" d="M86.3,55.8l1.3,1.2"/>
	<path class="st8" d="M88.1,54.6l0.6,1.7"/>
	<path class="st8" d="M88.1,54.6l-1.3,1.2"/>
	<path class="st8" d="M85.8,52.1l-1.3,1.2"/>
	<path class="st8" d="M85.8,52.1l-1.6-0.7"/>
	<path class="st8" d="M84.9,46.4l-1.3,1.2"/>
	<path class="st8" d="M84.9,46.4l-1.6-0.7"/>
	<path class="st8" d="M86.3,43.3l-1.6-0.7"/>
	<path class="st8" d="M86.3,43.3v-1.8"/>
	<path class="st8" d="M89,37.2l-1.3,1.2"/>
	<path class="st8" d="M89,37.2l-1.6-0.7"/>
	<path class="st8" d="M90.4,34.2l-1.6-0.7"/>
	<path class="st8" d="M90.4,34.2v-1.8"/>
	<path class="st8" d="M95.2,31l-1.6-0.7"/>
	<path class="st8" d="M95.2,31v-1.8"/>
	<path class="st8" d="M98.6,31v-1.8"/>
	<path class="st8" d="M98.6,31l1.6-0.7"/>
	<path class="st8" d="M103.5,27.8l-1.3,1.2"/>
	<path class="st8" d="M103.5,27.8l-1.6-0.7"/>
	<path class="st8" d="M104.8,24.8l-1.6-0.7"/>
	<path class="st8" d="M104.8,24.8V23"/>
	<path class="st8" d="M109.7,21.6l-1.6-0.7"/>
	<path class="st8" d="M109.7,21.6v-1.8"/>
	<path class="st8" d="M113.1,21.6v-1.8"/>
	<path class="st8" d="M113.1,21.6l1.6-0.7"/>
	<path class="st8" d="M119.7,21.6l-1.6-0.7"/>
	<path class="st8" d="M119.7,21.6v-1.8"/>
	<path class="st8" d="M123.1,21.6v-1.8"/>
	<path class="st8" d="M123.1,21.6l1.6-0.7"/>
	<path class="st8" d="M128,24.8V23"/>
	<path class="st8" d="M128,24.8l1.6-0.7"/>
	<path class="st8" d="M129.3,27.8l1.6-0.7"/>
	<path class="st8" d="M129.3,27.8l1.3,1.2"/>
	<path class="st8" d="M133.2,27.8l-1.3,1.2"/>
	<path class="st8" d="M133.2,27.8l-1.6-0.7"/>
	<path class="st8" d="M134.6,24.8L133,24"/>
	<path class="st8" d="M134.6,24.8V23"/>
	<path class="st8" d="M139.5,21.6l-1.6-0.7"/>
	<path class="st8" d="M139.5,21.6v-1.8"/>
	<path class="st8" d="M142.8,21.6v-1.8"/>
	<path class="st8" d="M142.8,21.6l1.6-0.7"/>
	<path class="st8" d="M149.5,21.6l-1.6-0.7"/>
	<path class="st8" d="M149.5,21.6v-1.8"/>
	<path class="st8" d="M152.8,21.6v-1.8"/>
	<path class="st8" d="M152.8,21.6l1.6-0.7"/>
	<path class="st8" d="M157.7,24.8V23"/>
	<path class="st8" d="M157.7,24.8l1.6-0.7"/>
	<path class="st8" d="M159.1,27.8l1.6-0.7"/>
	<path class="st8" d="M159.1,27.8l1.3,1.2"/>
	<path class="st8" d="M163.9,31l-1.6-0.7"/>
	<path class="st8" d="M163.9,31v-1.8"/>
	<path class="st8" d="M167.3,31v-1.8"/>
	<path class="st8" d="M167.3,31l1.6-0.7"/>
	<path class="st8" d="M172.2,34.2v-1.8"/>
	<path class="st8" d="M172.2,34.2l1.6-0.7"/>
	<path class="st8" d="M173.6,37.2l1.6-0.7"/>
	<path class="st8" d="M173.6,37.2l1.3,1.2"/>
	<path class="st8" d="M176.3,43.3v-1.8"/>
	<path class="st8" d="M176.3,43.3l1.6-0.7"/>
	<path class="st8" d="M177.6,46.4l1.6-0.7"/>
	<path class="st8" d="M177.6,46.4l1.3,1.2"/>
	<path class="st8" d="M176.7,52.1l1.6-0.7"/>
	<path class="st8" d="M176.7,52.1l1.3,1.2"/>
	<path class="st8" d="M174.5,54.6l1.3,1.2"/>
	<path class="st8" d="M174.5,54.6l-0.6,1.7"/>
	<path class="st8" d="M176.5,54.6l0.6,1.7"/>
	<path class="st8" d="M176.5,54.6l-1.3,1.2"/>
	<path class="st8" d="M174.3,52.1l-1.3,1.2"/>
	<path class="st8" d="M174.3,52.1l-1.6-0.7"/>
	<path class="st8" d="M173.4,46.4l-1.3,1.2"/>
	<path class="st8" d="M173.4,46.4l-1.6-0.7"/>
	<path class="st8" d="M174.7,43.3l-1.6-0.7"/>
	<path class="st8" d="M174.7,43.3v-1.8"/>
	<path class="st8" d="M177.4,37.2l-1.3,1.2"/>
	<path class="st8" d="M177.4,37.2l-1.6-0.7"/>
	<path class="st8" d="M178.8,34.2l-1.6-0.7"/>
	<path class="st8" d="M178.8,34.2v-1.8"/>
	<path class="st8" d="M183.7,31l-1.6-0.7"/>
	<path class="st8" d="M183.7,31v-1.8"/>
	<path class="st8" d="M187.1,31v-1.8"/>
	<path class="st8" d="M187.1,31l1.6-0.7"/>
	<path class="st8" d="M191.9,27.8l-1.3,1.2"/>
	<path class="st8" d="M191.9,27.8l-1.6-0.7"/>
	<path class="st8" d="M193.3,24.8l-1.6-0.7"/>
	<path class="st8" d="M193.3,24.8V23"/>
	<path class="st8" d="M198.2,21.6l-1.6-0.7"/>
	<path class="st8" d="M198.2,21.6v-1.8"/>
	<path class="st8" d="M201.5,21.6v-1.8"/>
	<path class="st8" d="M201.5,21.6l1.6-0.7"/>
	<path class="st8" d="M208.2,21.6l-1.6-0.7"/>
	<path class="st8" d="M208.2,21.6v-1.8"/>
	<path class="st8" d="M211.5,21.6v-1.8"/>
	<path class="st8" d="M211.5,21.6l1.6-0.7"/>
	<path class="st8" d="M216.4,24.8V23"/>
	<path class="st8" d="M216.4,24.8L218,24"/>
	<path class="st8" d="M217.8,27.8l1.6-0.7"/>
	<path class="st8" d="M217.8,27.8l1.3,1.2"/>
	<path class="st8" d="M221.7,27.8l-1.3,1.2"/>
	<path class="st8" d="M221.7,27.8l-1.6-0.7"/>
	<path class="st8" d="M223,24.8l-1.6-0.7"/>
	<path class="st8" d="M223,24.8V23"/>
	<path class="st8" d="M227.9,21.6l-1.6-0.7"/>
	<path class="st8" d="M227.9,21.6v-1.8"/>
	<path class="st8" d="M231.3,21.6v-1.8"/>
	<path class="st8" d="M231.3,21.6l1.6-0.7"/>
	<path class="st8" d="M237.9,21.6l-1.6-0.7"/>
	<path class="st8" d="M237.9,21.6v-1.8"/>
	<path class="st8" d="M241.3,21.6v-1.8"/>
	<path class="st8" d="M241.3,21.6l1.6-0.7"/>
	<path class="st8" d="M246.2,24.8V23"/>
	<path class="st8" d="M246.2,24.8l1.6-0.7"/>
	<path class="st8" d="M247.5,27.8l1.6-0.7"/>
	<path class="st8" d="M247.5,27.8l1.3,1.2"/>
	<path class="st8" d="M252.4,31l-1.6-0.7"/>
	<path class="st8" d="M252.4,31v-1.8"/>
	<path class="st8" d="M255.8,31v-1.8"/>
	<path class="st8" d="M255.8,31l1.6-0.7"/>
	<path class="st8" d="M260.6,34.2v-1.8"/>
	<path class="st8" d="M260.6,34.2l1.6-0.7"/>
	<path class="st8" d="M262,37.2l1.6-0.7"/>
	<path class="st8" d="M262,37.2l1.3,1.2"/>
	<path class="st8" d="M264.7,43.3v-1.8"/>
	<path class="st8" d="M264.7,43.3l1.6-0.7"/>
	<path class="st8" d="M266.1,46.4l1.6-0.7"/>
	<path class="st8" d="M266.1,46.4l1.3,1.2"/>
	<path class="st8" d="M265.2,52.1l1.6-0.7"/>
	<path class="st8" d="M265.2,52.1l1.3,1.2"/>
	<path class="st8" d="M262.9,54.6l1.3,1.2"/>
	<path class="st8" d="M262.9,54.6l-0.6,1.7"/>
	<path class="st8" d="M264.7,55.8l-1.3,1.2"/>
	<path class="st8" d="M264.7,55.8l-1.6-0.7"/>
	<path class="st8" d="M266.1,52.7l-1.6-0.7"/>
	<path class="st8" d="M266.1,52.7v-1.8"/>
	<path class="st8" d="M270.9,49.5l-1.6-0.7"/>
	<path class="st8" d="M270.9,49.5v-1.8"/>
	<path class="st8" d="M274.3,49.5v-1.8"/>
	<path class="st8" d="M274.3,49.5l1.6-0.7"/>
	<path class="st8" d="M280.9,49.5l-1.6-0.7"/>
	<path class="st8" d="M280.9,49.5v-1.8"/>
	<path class="st8" d="M284.3,49.5v-1.8"/>
	<path class="st8" d="M284.3,49.5l1.6-0.7"/>
	<path class="st8" d="M289.2,52.7v-1.8"/>
	<path class="st8" d="M289.2,52.7l1.6-0.7"/>
	<path class="st8" d="M290.6,55.8l1.6-0.7"/>
	<path class="st8" d="M290.6,55.8l1.3,1.2"/>
	<path class="st8" d="M295.4,58.9l-1.6-0.7"/>
	<path class="st8" d="M295.4,58.9v-1.8"/>
	<path class="st8" d="M298.8,58.9v-1.8"/>
	<path class="st8" d="M298.8,58.9l1.6-0.7"/>
	<path class="st8" d="M303.7,62.1v-1.8"/>
	<path class="st8" d="M303.7,62.1l1.6-0.7"/>
	<path class="st8" d="M305,65.2l1.6-0.7"/>
	<path class="st8" d="M305,65.2l1.3,1.2"/>
	<path class="st8" d="M307.7,71.3v-1.8"/>
	<path class="st8" d="M307.7,71.3l1.6-0.7"/>
	<path class="st8" d="M309.1,74.3l1.6-0.7"/>
	<path class="st8" d="M309.1,74.3l1.3,1.2"/>
	<path class="st8" d="M308.2,80.1l1.6-0.7"/>
	<path class="st8" d="M308.2,80.1l1.3,1.2"/>
	<path class="st8" d="M305.9,82.6l1.3,1.2"/>
	<path class="st8" d="M305.9,82.6l-0.6,1.7"/>
	<path class="st8" d="M307.5,86.1l-1.6-0.7"/>
	<path class="st8" d="M307.5,86.1v-1.8"/>
	<path class="st8" d="M310.9,86.1v-1.8"/>
	<path class="st8" d="M310.9,86.1l1.6-0.7"/>
	<path class="st8" d="M315.8,89.3v-1.8"/>
	<path class="st8" d="M315.8,89.3l1.6-0.7"/>
	<path class="st8" d="M317.1,92.4l1.6-0.7"/>
	<path class="st8" d="M317.1,92.4l1.3,1.2"/>
	<path class="st8" d="M319.8,98.4v-1.8"/>
	<path class="st8" d="M319.8,98.4l1.6-0.7"/>
	<path class="st8" d="M321.2,101.5l1.6-0.7"/>
	<path class="st8" d="M321.2,101.5l1.3,1.2"/>
	<path class="st8" d="M320.3,107.2l1.6-0.7"/>
	<path class="st8" d="M320.3,107.2l1.3,1.2"/>
	<path class="st8" d="M318,109.7l1.3,1.2"/>
	<path class="st8" d="M318,109.7l-0.6,1.7"/>
	<path class="st8" d="M317.1,115.5v-1.8"/>
	<path class="st8" d="M317.1,115.5l1.6-0.7"/>
	<path class="st8" d="M318.5,118.6l1.6-0.7"/>
	<path class="st8" d="M318.5,118.6l1.3,1.2"/>
	<path class="st8" d="M317.6,124.3l1.6-0.7"/>
	<path class="st8" d="M317.6,124.3l1.3,1.2"/>
	<path class="st8" d="M315.3,126.8l1.3,1.2"/>
	<path class="st8" d="M315.3,126.8l-0.6,1.7"/>
	<path class="st8" d="M310.9,131.7l1.6-0.7"/>
	<path class="st8" d="M310.9,131.7l1.3,1.2"/>
	<path class="st8" d="M308.6,134.2l1.3,1.2"/>
	<path class="st8" d="M308.6,134.2l-0.6,1.7"/>
	<path class="st8" d="M303,135.7l1.3,1.2"/>
	<path class="st8" d="M303,135.7l-0.6,1.7"/>
	<path class="st8" d="M299.8,134.7l-0.6,1.7"/>
	<path class="st8" d="M299.8,134.7l-1.8,0.2"/>
</g>
</svg>
