<svg x="0" y="0" width="799.9953" height="799.9953" version="1.1" xmlns="http://www.w3.org/2000/svg" xmlns:xlink="http://www.w3.org/1999/xlink"><g fill="none" stroke="#000000" stroke-width="none" stroke-linecap="butt" stroke-linejoin="miter" stroke-miterlimit="10" stroke-dasharray="" stroke-dashoffset="0" font-family="sans-serif" font-weight="normal" font-size="12" text-anchor="start" mix-blend-mode="normal"><path d="M400,750l0,-123" stroke-width="10"/><path d="M400,627l-59.36078,-49.80961" stroke-width="6.3"/><path d="M400,627l59.36078,-49.80961" stroke-width="6.3"/><path d="M340.63922,577.19039l-48.07703,8.47728" stroke-width="3.969"/><path d="M340.63922,577.19039l0,-48.8187" stroke-width="3.969"/><path d="M459.36078,577.19039l0,-48.8187" stroke-width="3.969"/><path d="M459.36078,577.19039l48.07703,8.47728" stroke-width="3.969"/><path d="M292.56218,585.66767l-15.37789,26.63529" stroke-width="2.50047"/><path d="M292.56218,585.66767l-23.5603,-19.76943" stroke-width="2.50047"/><path d="M340.63922,528.37169l-23.5603,-19.76943" stroke-width="2.50047"/><path d="M340.63922,528.37169l23.5603,-19.76943" stroke-width="2.50047"/><path d="M459.36078,528.37169l-23.5603,-19.76943" stroke-width="2.50047"/><path d="M459.36078,528.37169l23.5603,-19.76943" stroke-width="2.50047"/><path d="M507.43782,585.66767l23.5603,-19.76943" stroke-width="2.50047"/><path d="M507.43782,585.66767l15.37789,26.63529" stroke-width="2.50047"/><path d="M277.18429,612.30295l6.62703,18.20762" stroke-width="1.5753"/><path d="M277.18429,612.30295l-19.08177,3.36463" stroke-width="1.5753"/><path d="M269.00189,565.89823l-19.08177,3.36463" stroke-width="1.5753"/><path d="M269.00189,565.89823l0,-19.37614" stroke-width="1.5753"/><path d="M317.07892,508.60225l-19.08177,3.36463" stroke-width="1.5753"/><path d="M317.07892,508.60225l0,-19.37614" stroke-width="1.5753"/><path d="M364.19951,508.60225l0,-19.37614" stroke-width="1.5753"/><path d="M364.19951,508.60225l19.08177,3.36463" stroke-width="1.5753"/><path d="M435.80049,508.60225l-19.08177,3.36463" stroke-width="1.5753"/><path d="M435.80049,508.60225l0,-19.37614" stroke-width="1.5753"/><path d="M482.92108,508.60225l0,-19.37614" stroke-width="1.5753"/><path d="M482.92108,508.60225l19.08177,3.36463" stroke-width="1.5753"/><path d="M530.99811,565.89823l0,-19.37614" stroke-width="1.5753"/><path d="M530.99811,565.89823l19.08177,3.36463" stroke-width="1.5753"/><path d="M522.81571,612.30295l19.08177,3.36463" stroke-width="1.5753"/><path d="M522.81571,612.30295l-6.62703,18.20762" stroke-width="1.5753"/><path d="M283.81132,630.51057l11.4708,4.17503" stroke-width="0.99244"/><path d="M283.81132,630.51057l-6.10348,10.57155" stroke-width="0.99244"/><path d="M258.10252,615.66759l-6.10348,10.57155" stroke-width="0.99244"/><path d="M258.10252,615.66759l-9.35108,-7.84649" stroke-width="0.99244"/><path d="M249.92011,569.26286l-6.10348,10.57155" stroke-width="0.99244"/><path d="M249.92011,569.26286l-9.35108,-7.84649" stroke-width="0.99244"/><path d="M269.00189,546.52209l-9.35108,-7.84649" stroke-width="0.99244"/><path d="M269.00189,546.52209l9.35108,-7.84649" stroke-width="0.99244"/><path d="M297.99715,511.96688l-6.10348,10.57155" stroke-width="0.99244"/><path d="M297.99715,511.96688l-9.35108,-7.84649" stroke-width="0.99244"/><path d="M317.07892,489.22611l-9.35108,-7.84649" stroke-width="0.99244"/><path d="M317.07892,489.22611l9.35108,-7.84649" stroke-width="0.99244"/><path d="M364.19951,489.22611l-9.35108,-7.84649" stroke-width="0.99244"/><path d="M364.19951,489.22611l9.35108,-7.84649" stroke-width="0.99244"/><path d="M383.28129,511.96688l9.35108,-7.84649" stroke-width="0.99244"/><path d="M383.28129,511.96688l6.10348,10.57155" stroke-width="0.99244"/><path d="M416.71871,511.96688l-6.10348,10.57155" stroke-width="0.99244"/><path d="M416.71871,511.96688l-9.35108,-7.84649" stroke-width="0.99244"/><path d="M435.80049,489.22611l-9.35108,-7.84649" stroke-width="0.99244"/><path d="M435.80049,489.22611l9.35108,-7.84649" stroke-width="0.99244"/><path d="M482.92108,489.22611l-9.35108,-7.84649" stroke-width="0.99244"/><path d="M482.92108,489.22611l9.35108,-7.84649" stroke-width="0.99244"/><path d="M502.00285,511.96688l9.35108,-7.84649" stroke-width="0.99244"/><path d="M502.00285,511.96688l6.10348,10.57155" stroke-width="0.99244"/><path d="M530.99811,546.52209l-9.35108,-7.84649" stroke-width="0.99244"/><path d="M530.99811,546.52209l9.35108,-7.84649" stroke-width="0.99244"/><path d="M550.07989,569.26286l9.35108,-7.84649" stroke-width="0.99244"/><path d="M550.07989,569.26286l6.10348,10.57155" stroke-width="0.99244"/><path d="M541.89748,615.66759l9.35108,-7.84649" stroke-width="0.99244"/><path d="M541.89748,615.66759l6.10348,10.57155" stroke-width="0.99244"/><path d="M516.18868,630.51057l6.10348,10.57155" stroke-width="0.99244"/><path d="M516.18868,630.51057l-11.4708,4.17503" stroke-width="0.99244"/><path d="M295.28212,634.6856l6.66007,-3.8452" stroke-width="0.62524"/><path d="M295.28212,634.6856l2.63027,7.2266" stroke-width="0.62524"/><path d="M277.70784,641.08212l2.63027,7.2266" stroke-width="0.62524"/><path d="M277.70784,641.08212l-7.57356,1.33542" stroke-width="0.62524"/><path d="M251.99903,626.23913l2.63027,7.2266" stroke-width="0.62524"/><path d="M251.99903,626.23913l-7.57356,1.33542" stroke-width="0.62524"/><path d="M248.75144,607.8211l-7.57356,1.33542" stroke-width="0.62524"/><path d="M248.75144,607.8211l0,-7.69039" stroke-width="0.62524"/><path d="M243.81663,579.83441l2.63027,7.2266" stroke-width="0.62524"/><path d="M243.81663,579.83441l-7.57356,1.33542" stroke-width="0.62524"/><path d="M240.56903,561.41637l-7.57356,1.33542" stroke-width="0.62524"/><path d="M240.56903,561.41637l0,-7.69039" stroke-width="0.62524"/><path d="M259.65081,538.6756l-7.57356,1.33542" stroke-width="0.62524"/><path d="M259.65081,538.6756l0,-7.69039" stroke-width="0.62524"/><path d="M278.35297,538.6756l0,-7.69039" stroke-width="0.62524"/><path d="M278.35297,538.6756l7.57356,1.33542" stroke-width="0.62524"/><path d="M291.89366,522.53843l2.63027,7.2266" stroke-width="0.62524"/><path d="M291.89366,522.53843l-7.57356,1.33542" stroke-width="0.62524"/><path d="M288.64606,504.1204l-7.57356,1.33542" stroke-width="0.62524"/><path d="M288.64606,504.1204l0,-7.69039" stroke-width="0.62524"/><path d="M307.72784,481.37962l-7.57356,1.33542" stroke-width="0.62524"/><path d="M307.72784,481.37962l0,-7.69039" stroke-width="0.62524"/><path d="M326.43,481.37962l0,-7.69039" stroke-width="0.62524"/><path d="M326.43,481.37962l7.57356,1.33542" stroke-width="0.62524"/><path d="M354.84843,481.37962l-7.57356,1.33542" stroke-width="0.62524"/><path d="M354.84843,481.37962l0,-7.69039" stroke-width="0.62524"/><path d="M373.55059,481.37962l0,-7.69039" stroke-width="0.62524"/><path d="M373.55059,481.37962l7.57356,1.33542" stroke-width="0.62524"/><path d="M392.63237,504.1204l0,-7.69039" stroke-width="0.62524"/><path d="M392.63237,504.1204l7.57356,1.33542" stroke-width="0.62524"/><path d="M389.38477,522.53843l7.57356,1.33542" stroke-width="0.62524"/><path d="M389.38477,522.53843l-2.63027,7.2266" stroke-width="0.62524"/><path d="M410.61523,522.53843l2.63027,7.2266" stroke-width="0.62524"/><path d="M410.61523,522.53843l-7.57356,1.33542" stroke-width="0.62524"/><path d="M407.36763,504.1204l-7.57356,1.33542" stroke-width="0.62524"/><path d="M407.36763,504.1204l0,-7.69039" stroke-width="0.62524"/><path d="M426.44941,481.37962l-7.57356,1.33542" stroke-width="0.62524"/><path d="M426.44941,481.37962l0,-7.69039" stroke-width="0.62524"/><path d="M445.15157,481.37962l0,-7.69039" stroke-width="0.62524"/><path d="M445.15157,481.37962l7.57356,1.33542" stroke-width="0.62524"/><path d="M473.57,481.37962l-7.57356,1.33542" stroke-width="0.62524"/><path d="M473.57,481.37962l0,-7.69039" stroke-width="0.62524"/><path d="M492.27216,481.37962l0,-7.69039" stroke-width="0.62524"/><path d="M492.27216,481.37962l7.57356,1.33542" stroke-width="0.62524"/><path d="M511.35394,504.1204l0,-7.69039" stroke-width="0.62524"/><path d="M511.35394,504.1204l7.57356,1.33542" stroke-width="0.62524"/><path d="M508.10634,522.53843l7.57356,1.33542" stroke-width="0.62524"/><path d="M508.10634,522.53843l-2.63027,7.2266" stroke-width="0.62524"/><path d="M521.64703,538.6756l-7.57356,1.33542" stroke-width="0.62524"/><path d="M521.64703,538.6756l0,-7.69039" stroke-width="0.62524"/><path d="M540.34919,538.6756l0,-7.69039" stroke-width="0.62524"/><path d="M540.34919,538.6756l7.57356,1.33542" stroke-width="0.62524"/><path d="M559.43097,561.41637l0,-7.69039" stroke-width="0.62524"/><path d="M559.43097,561.41637l7.57356,1.33542" stroke-width="0.62524"/><path d="M556.18337,579.83441l7.57356,1.33542" stroke-width="0.62524"/><path d="M556.18337,579.83441l-2.63027,7.2266" stroke-width="0.62524"/><path d="M551.24856,607.8211l0,-7.69039" stroke-width="0.62524"/><path d="M551.24856,607.8211l7.57356,1.33542" stroke-width="0.62524"/><path d="M548.00097,626.23913l7.57356,1.33542" stroke-width="0.62524"/><path d="M548.00097,626.23913l-2.63027,7.2266" stroke-width="0.62524"/><path d="M522.29216,641.08212l7.57356,1.33542" stroke-width="0.62524"/><path d="M522.29216,641.08212l-2.63027,7.2266" stroke-width="0.62524"/><path d="M504.71788,634.6856l-2.63027,7.2266" stroke-width="0.62524"/><path d="M504.71788,634.6856l-6.66007,-3.8452" stroke-width="0.62524"/><path d="M301.9422,630.84041l0.84132,-4.77134" stroke-width="0.3939"/><path d="M301.9422,630.84041l4.55276,1.65707" stroke-width="0.3939"/><path d="M297.91239,641.9122l4.55276,1.65707" stroke-width="0.3939"/><path d="M297.91239,641.9122l-2.42247,4.19585" stroke-width="0.3939"/><path d="M280.33811,648.30872l4.55276,1.65707" stroke-width="0.3939"/><path d="M280.33811,648.30872l-2.42247,4.19585" stroke-width="0.3939"/><path d="M270.13428,642.41754l-2.42247,4.19585" stroke-width="0.3939"/><path d="M270.13428,642.41754l-3.71144,-3.11427" stroke-width="0.3939"/><path d="M254.6293,633.46573l4.55276,1.65707" stroke-width="0.3939"/><path d="M254.6293,633.46573l-2.42247,4.19585" stroke-width="0.3939"/><path d="M244.42548,627.57455l-2.42247,4.19585" stroke-width="0.3939"/><path d="M244.42548,627.57455l-3.71144,-3.11427" stroke-width="0.3939"/><path d="M241.17788,609.15652l-2.42247,4.19585" stroke-width="0.3939"/><path d="M241.17788,609.15652l-3.71144,-3.11427" stroke-width="0.3939"/><path d="M248.75144,600.13071l-3.71144,-3.11427" stroke-width="0.3939"/><path d="M248.75144,600.13071l3.71144,-3.11427" stroke-width="0.3939"/><path d="M246.4469,587.06101l4.55276,1.65707" stroke-width="0.3939"/><path d="M246.4469,587.06101l-2.42247,4.19585" stroke-width="0.3939"/><path d="M236.24307,581.16983l-2.42247,4.19585" stroke-width="0.3939"/><path d="M236.24307,581.16983l-3.71144,-3.11427" stroke-width="0.3939"/><path d="M232.99547,562.7518l-2.42247,4.19585" stroke-width="0.3939"/><path d="M232.99547,562.7518l-3.71144,-3.11427" stroke-width="0.3939"/><path d="M240.56903,553.72598l-3.71144,-3.11427" stroke-width="0.3939"/><path d="M240.56903,553.72598l3.71144,-3.11427" stroke-width="0.3939"/><path d="M252.07725,540.01102l-2.42247,4.19585" stroke-width="0.3939"/><path d="M252.07725,540.01102l-3.71144,-3.11427" stroke-width="0.3939"/><path d="M259.65081,530.98521l-3.71144,-3.11427" stroke-width="0.3939"/><path d="M259.65081,530.98521l3.71144,-3.11427" stroke-width="0.3939"/><path d="M278.35297,530.98521l-3.71144,-3.11427" stroke-width="0.3939"/><path d="M278.35297,530.98521l3.71144,-3.11427" stroke-width="0.3939"/><path d="M285.92652,540.01102l3.71144,-3.11427" stroke-width="0.3939"/><path d="M285.92652,540.01102l2.42247,4.19585" stroke-width="0.3939"/><path d="M294.52393,529.76503l4.55276,1.65707" stroke-width="0.3939"/><path d="M294.52393,529.76503l-2.42247,4.19585" stroke-width="0.3939"/><path d="M284.3201,523.87385l-2.42247,4.19585" stroke-width="0.3939"/><path d="M284.3201,523.87385l-3.71144,-3.11427" stroke-width="0.3939"/><path d="M281.07251,505.45582l-2.42247,4.19585" stroke-width="0.3939"/><path d="M281.07251,505.45582l-3.71144,-3.11427" stroke-width="0.3939"/><path d="M288.64606,496.43001l-3.71144,-3.11427" stroke-width="0.3939"/><path d="M288.64606,496.43001l3.71144,-3.11427" stroke-width="0.3939"/><path d="M300.15428,482.71504l-2.42247,4.19585" stroke-width="0.3939"/><path d="M300.15428,482.71504l-3.71144,-3.11427" stroke-width="0.3939"/><path d="M307.72784,473.68923l-3.71144,-3.11427" stroke-width="0.3939"/><path d="M307.72784,473.68923l3.71144,-3.11427" stroke-width="0.3939"/><path d="M326.43,473.68923l-3.71144,-3.11427" stroke-width="0.3939"/><path d="M326.43,473.68923l3.71144,-3.11427" stroke-width="0.3939"/><path d="M334.00356,482.71504l3.71144,-3.11427" stroke-width="0.3939"/><path d="M334.00356,482.71504l2.42247,4.19585" stroke-width="0.3939"/><path d="M347.27487,482.71504l-2.42247,4.19585" stroke-width="0.3939"/><path d="M347.27487,482.71504l-3.71144,-3.11427" stroke-width="0.3939"/><path d="M354.84843,473.68923l-3.71144,-3.11427" stroke-width="0.3939"/><path d="M354.84843,473.68923l3.71144,-3.11427" stroke-width="0.3939"/><path d="M373.55059,473.68923l-3.71144,-3.11427" stroke-width="0.3939"/><path d="M373.55059,473.68923l3.71144,-3.11427" stroke-width="0.3939"/><path d="M381.12415,482.71504l3.71144,-3.11427" stroke-width="0.3939"/><path d="M381.12415,482.71504l2.42247,4.19585" stroke-width="0.3939"/><path d="M392.63237,496.43001l-3.71144,-3.11427" stroke-width="0.3939"/><path d="M392.63237,496.43001l3.71144,-3.11427" stroke-width="0.3939"/><path d="M400.20592,505.45582l3.71144,-3.11427" stroke-width="0.3939"/><path d="M400.20592,505.45582l2.42247,4.19585" stroke-width="0.3939"/><path d="M396.95833,523.87385l3.71144,-3.11427" stroke-width="0.3939"/><path d="M396.95833,523.87385l2.42247,4.19585" stroke-width="0.3939"/><path d="M386.7545,529.76503l2.42247,4.19585" stroke-width="0.3939"/><path d="M386.7545,529.76503l-4.55276,1.65707" stroke-width="0.3939"/><path d="M413.2455,529.76503l4.55276,1.65707" stroke-width="0.3939"/><path d="M413.2455,529.76503l-2.42247,4.19585" stroke-width="0.3939"/><path d="M403.04167,523.87385l-2.42247,4.19585" stroke-width="0.3939"/><path d="M403.04167,523.87385l-3.71144,-3.11427" stroke-width="0.3939"/><path d="M399.79408,505.45582l-2.42247,4.19585" stroke-width="0.3939"/><path d="M399.79408,505.45582l-3.71144,-3.11427" stroke-width="0.3939"/><path d="M407.36763,496.43001l-3.71144,-3.11427" stroke-width="0.3939"/><path d="M407.36763,496.43001l3.71144,-3.11427" stroke-width="0.3939"/><path d="M418.87585,482.71504l-2.42247,4.19585" stroke-width="0.3939"/><path d="M418.87585,482.71504l-3.71144,-3.11427" stroke-width="0.3939"/><path d="M426.44941,473.68923l-3.71144,-3.11427" stroke-width="0.3939"/><path d="M426.44941,473.68923l3.71144,-3.11427" stroke-width="0.3939"/><path d="M445.15157,473.68923l-3.71144,-3.11427" stroke-width="0.3939"/><path d="M445.15157,473.68923l3.71144,-3.11427" stroke-width="0.3939"/><path d="M452.72513,482.71504l3.71144,-3.11427" stroke-width="0.3939"/><path d="M452.72513,482.71504l2.42247,4.19585" stroke-width="0.3939"/><path d="M465.99644,482.71504l-2.42247,4.19585" stroke-width="0.3939"/><path d="M465.99644,482.71504l-3.71144,-3.11427" stroke-width="0.3939"/><path d="M473.57,473.68923l-3.71144,-3.11427" stroke-width="0.3939"/><path d="M473.57,473.68923l3.71144,-3.11427" stroke-width="0.3939"/><path d="M492.27216,473.68923l-3.71144,-3.11427" stroke-width="0.3939"/><path d="M492.27216,473.68923l3.71144,-3.11427" stroke-width="0.3939"/><path d="M499.84572,482.71504l3.71144,-3.11427" stroke-width="0.3939"/><path d="M499.84572,482.71504l2.42247,4.19585" stroke-width="0.3939"/><path d="M511.35394,496.43001l-3.71144,-3.11427" stroke-width="0.3939"/><path d="M511.35394,496.43001l3.71144,-3.11427" stroke-width="0.3939"/><path d="M518.92749,505.45582l3.71144,-3.11427" stroke-width="0.3939"/><path d="M518.92749,505.45582l2.42247,4.19585" stroke-width="0.3939"/><path d="M515.6799,523.87385l3.71144,-3.11427" stroke-width="0.3939"/><path d="M515.6799,523.87385l2.42247,4.19585" stroke-width="0.3939"/><path d="M505.47607,529.76503l2.42247,4.19585" stroke-width="0.3939"/><path d="M505.47607,529.76503l-4.55276,1.65707" stroke-width="0.3939"/><path d="M514.07348,540.01102l-2.42247,4.19585" stroke-width="0.3939"/><path d="M514.07348,540.01102l-3.71144,-3.11427" stroke-width="0.3939"/><path d="M521.64703,530.98521l-3.71144,-3.11427" stroke-width="0.3939"/><path d="M521.64703,530.98521l3.71144,-3.11427" stroke-width="0.3939"/><path d="M540.34919,530.98521l-3.71144,-3.11427" stroke-width="0.3939"/><path d="M540.34919,530.98521l3.71144,-3.11427" stroke-width="0.3939"/><path d="M547.92275,540.01102l3.71144,-3.11427" stroke-width="0.3939"/><path d="M547.92275,540.01102l2.42247,4.19585" stroke-width="0.3939"/><path d="M559.43097,553.72598l-3.71144,-3.11427" stroke-width="0.3939"/><path d="M559.43097,553.72598l3.71144,-3.11427" stroke-width="0.3939"/><path d="M567.00453,562.7518l3.71144,-3.11427" stroke-width="0.3939"/><path d="M567.00453,562.7518l2.42247,4.19585" stroke-width="0.3939"/><path d="M563.75693,581.16983l3.71144,-3.11427" stroke-width="0.3939"/><path d="M563.75693,581.16983l2.42247,4.19585" stroke-width="0.3939"/><path d="M553.5531,587.06101l2.42247,4.19585" stroke-width="0.3939"/><path d="M553.5531,587.06101l-4.55276,1.65707" stroke-width="0.3939"/><path d="M551.24856,600.13071l-3.71144,-3.11427" stroke-width="0.3939"/><path d="M551.24856,600.13071l3.71144,-3.11427" stroke-width="0.3939"/><path d="M558.82212,609.15652l3.71144,-3.11427" stroke-width="0.3939"/><path d="M558.82212,609.15652l2.42247,4.19585" stroke-width="0.3939"/><path d="M555.57452,627.57455l3.71144,-3.11427" stroke-width="0.3939"/><path d="M555.57452,627.57455l2.42247,4.19585" stroke-width="0.3939"/><path d="M545.3707,633.46573l2.42247,4.19585" stroke-width="0.3939"/><path d="M545.3707,633.46573l-4.55276,1.65707" stroke-width="0.3939"/><path d="M529.86572,642.41754l3.71144,-3.11427" stroke-width="0.3939"/><path d="M529.86572,642.41754l2.42247,4.19585" stroke-width="0.3939"/><path d="M519.66189,648.30872l2.42247,4.19585" stroke-width="0.3939"/><path d="M519.66189,648.30872l-4.55276,1.65707" stroke-width="0.3939"/><path d="M502.08761,641.9122l2.42247,4.19585" stroke-width="0.3939"/><path d="M502.08761,641.9122l-4.55276,1.65707" stroke-width="0.3939"/><path d="M498.0578,630.84041l-4.55276,1.65707" stroke-width="0.3939"/><path d="M498.0578,630.84041l-0.84132,-4.77134" stroke-width="0.3939"/><path d="M302.78351,626.06907l-1.96199,-2.33821" stroke-width="0.24816"/><path d="M302.78351,626.06907l2.64338,-1.52616" stroke-width="0.24816"/><path d="M306.49496,632.49748l2.64338,-1.52616" stroke-width="0.24816"/><path d="M306.49496,632.49748l1.04395,2.86824" stroke-width="0.24816"/><path d="M302.46515,643.56927l2.64338,-1.52616" stroke-width="0.24816"/><path d="M302.46515,643.56927l1.04395,2.86824" stroke-width="0.24816"/><path d="M295.48992,646.10805l1.04395,2.86824" stroke-width="0.24816"/><path d="M295.48992,646.10805l-3.00594,0.53003" stroke-width="0.24816"/><path d="M284.89087,649.96579l2.64338,-1.52616" stroke-width="0.24816"/><path d="M284.89087,649.96579l1.04395,2.86824" stroke-width="0.24816"/><path d="M277.91563,652.50457l1.04395,2.86824" stroke-width="0.24816"/><path d="M277.91563,652.50457l-3.00594,0.53003" stroke-width="0.24816"/><path d="M267.71181,646.61339l1.04395,2.86824" stroke-width="0.24816"/><path d="M267.71181,646.61339l-3.00594,0.53003" stroke-width="0.24816"/><path d="M266.42284,639.30327l-3.00594,0.53003" stroke-width="0.24816"/><path d="M266.42284,639.30327l0,-3.05232" stroke-width="0.24816"/><path d="M259.18206,635.1228l2.64338,-1.52616" stroke-width="0.24816"/><path d="M259.18206,635.1228l1.04395,2.86824" stroke-width="0.24816"/><path d="M252.20683,637.66158l1.04395,2.86824" stroke-width="0.24816"/><path d="M252.20683,637.66158l-3.00594,0.53003" stroke-width="0.24816"/><path d="M242.003,631.7704l1.04395,2.86824" stroke-width="0.24816"/><path d="M242.003,631.7704l-3.00594,0.53003" stroke-width="0.24816"/><path d="M240.71403,624.46028l-3.00594,0.53003" stroke-width="0.24816"/><path d="M240.71403,624.46028l0,-3.05232" stroke-width="0.24816"/><path d="M238.75541,613.35237l1.04395,2.86824" stroke-width="0.24816"/><path d="M238.75541,613.35237l-3.00594,0.53003" stroke-width="0.24816"/><path d="M237.46643,606.04225l-3.00594,0.53003" stroke-width="0.24816"/><path d="M237.46643,606.04225l0,-3.05232" stroke-width="0.24816"/><path d="M245.03999,597.01643l-3.00594,0.53003" stroke-width="0.24816"/><path d="M245.03999,597.01643l0,-3.05232" stroke-width="0.24816"/><path d="M252.46288,597.01643l0,-3.05232" stroke-width="0.24816"/><path d="M252.46288,597.01643l3.00594,0.53003" stroke-width="0.24816"/><path d="M250.99966,588.71808l2.64338,-1.52616" stroke-width="0.24816"/><path d="M250.99966,588.71808l1.04395,2.86824" stroke-width="0.24816"/><path d="M244.02442,591.25686l1.04395,2.86824" stroke-width="0.24816"/><path d="M244.02442,591.25686l-3.00594,0.53003" stroke-width="0.24816"/><path d="M233.8206,585.36568l1.04395,2.86824" stroke-width="0.24816"/><path d="M233.8206,585.36568l-3.00594,0.53003" stroke-width="0.24816"/><path d="M232.53163,578.05556l-3.00594,0.53003" stroke-width="0.24816"/><path d="M232.53163,578.05556l0,-3.05232" stroke-width="0.24816"/><path d="M230.573,566.94764l1.04395,2.86824" stroke-width="0.24816"/><path d="M230.573,566.94764l-3.00594,0.53003" stroke-width="0.24816"/><path d="M229.28403,559.63753l-3.00594,0.53003" stroke-width="0.24816"/><path d="M229.28403,559.63753l0,-3.05232" stroke-width="0.24816"/><path d="M236.85759,550.61171l-3.00594,0.53003" stroke-width="0.24816"/><path d="M236.85759,550.61171l0,-3.05232" stroke-width="0.24816"/><path d="M244.28047,550.61171l0,-3.05232" stroke-width="0.24816"/><path d="M244.28047,550.61171l3.00594,0.53003" stroke-width="0.24816"/><path d="M249.65478,544.20687l1.04395,2.86824" stroke-width="0.24816"/><path d="M249.65478,544.20687l-3.00594,0.53003" stroke-width="0.24816"/><path d="M248.36581,536.89675l-3.00594,0.53003" stroke-width="0.24816"/><path d="M248.36581,536.89675l0,-3.05232" stroke-width="0.24816"/><path d="M255.93936,527.87094l-3.00594,0.53003" stroke-width="0.24816"/><path d="M255.93936,527.87094l0,-3.05232" stroke-width="0.24816"/><path d="M263.36225,527.87094l0,-3.05232" stroke-width="0.24816"/><path d="M263.36225,527.87094l3.00594,0.53003" stroke-width="0.24816"/><path d="M274.64152,527.87094l-3.00594,0.53003" stroke-width="0.24816"/><path d="M274.64152,527.87094l0,-3.05232" stroke-width="0.24816"/><path d="M282.06441,527.87094l0,-3.05232" stroke-width="0.24816"/><path d="M282.06441,527.87094l3.00594,0.53003" stroke-width="0.24816"/><path d="M289.63797,536.89675l0,-3.05232" stroke-width="0.24816"/><path d="M289.63797,536.89675l3.00594,0.53003" stroke-width="0.24816"/><path d="M288.349,544.20687l3.00594,0.53003" stroke-width="0.24816"/><path d="M288.349,544.20687l-1.04395,2.86824" stroke-width="0.24816"/><path d="M299.07669,531.4221l2.64338,-1.52616" stroke-width="0.24816"/><path d="M299.07669,531.4221l1.04395,2.86824" stroke-width="0.24816"/><path d="M292.10146,533.96088l1.04395,2.86824" stroke-width="0.24816"/><path d="M292.10146,533.96088l-3.00594,0.53003" stroke-width="0.24816"/><path d="M281.89763,528.0697l1.04395,2.86824" stroke-width="0.24816"/><path d="M281.89763,528.0697l-3.00594,0.53003" stroke-width="0.24816"/><path d="M280.60866,520.75958l-3.00594,0.53003" stroke-width="0.24816"/><path d="M280.60866,520.75958l0,-3.05232" stroke-width="0.24816"/><path d="M278.65004,509.65167l1.04395,2.86824" stroke-width="0.24816"/><path d="M278.65004,509.65167l-3.00594,0.53003" stroke-width="0.24816"/><path d="M277.36106,502.34155l-3.00594,0.53003" stroke-width="0.24816"/><path d="M277.36106,502.34155l0,-3.05232" stroke-width="0.24816"/><path d="M284.93462,493.31573l-3.00594,0.53003" stroke-width="0.24816"/><path d="M284.93462,493.31573l0,-3.05232" stroke-width="0.24816"/><path d="M292.35751,493.31573l0,-3.05232" stroke-width="0.24816"/><path d="M292.35751,493.31573l3.00594,0.53003" stroke-width="0.24816"/><path d="M297.73181,486.91089l1.04395,2.86824" stroke-width="0.24816"/><path d="M297.73181,486.91089l-3.00594,0.53003" stroke-width="0.24816"/><path d="M296.44284,479.60077l-3.00594,0.53003" stroke-width="0.24816"/><path d="M296.44284,479.60077l0,-3.05232" stroke-width="0.24816"/><path d="M304.0164,470.57496l-3.00594,0.53003" stroke-width="0.24816"/><path d="M304.0164,470.57496l0,-3.05232" stroke-width="0.24816"/><path d="M311.43928,470.57496l0,-3.05232" stroke-width="0.24816"/><path d="M311.43928,470.57496l3.00594,0.53003" stroke-width="0.24816"/><path d="M322.71856,470.57496l-3.00594,0.53003" stroke-width="0.24816"/><path d="M322.71856,470.57496l0,-3.05232" stroke-width="0.24816"/><path d="M330.14145,470.57496l0,-3.05232" stroke-width="0.24816"/><path d="M330.14145,470.57496l3.00594,0.53003" stroke-width="0.24816"/><path d="M337.715,479.60077l0,-3.05232" stroke-width="0.24816"/><path d="M337.715,479.60077l3.00594,0.53003" stroke-width="0.24816"/><path d="M336.42603,486.91089l3.00594,0.53003" stroke-width="0.24816"/><path d="M336.42603,486.91089l-1.04395,2.86824" stroke-width="0.24816"/><path d="M344.8524,486.91089l1.04395,2.86824" stroke-width="0.24816"/><path d="M344.8524,486.91089l-3.00594,0.53003" stroke-width="0.24816"/><path d="M343.56343,479.60077l-3.00594,0.53003" stroke-width="0.24816"/><path d="M343.56343,479.60077l0,-3.05232" stroke-width="0.24816"/><path d="M351.13699,470.57496l-3.00594,0.53003" stroke-width="0.24816"/><path d="M351.13699,470.57496l0,-3.05232" stroke-width="0.24816"/><path d="M358.55987,470.57496l0,-3.05232" stroke-width="0.24816"/><path d="M358.55987,470.57496l3.00594,0.53003" stroke-width="0.24816"/><path d="M369.83915,470.57496l-3.00594,0.53003" stroke-width="0.24816"/><path d="M369.83915,470.57496l0,-3.05232" stroke-width="0.24816"/><path d="M377.26204,470.57496l0,-3.05232" stroke-width="0.24816"/><path d="M377.26204,470.57496l3.00594,0.53003" stroke-width="0.24816"/><path d="M384.83559,479.60077l0,-3.05232" stroke-width="0.24816"/><path d="M384.83559,479.60077l3.00594,0.53003" stroke-width="0.24816"/><path d="M383.54662,486.91089l3.00594,0.53003" stroke-width="0.24816"/><path d="M383.54662,486.91089l-1.04395,2.86824" stroke-width="0.24816"/><path d="M388.92092,493.31573l-3.00594,0.53003" stroke-width="0.24816"/><path d="M388.92092,493.31573l0,-3.05232" stroke-width="0.24816"/><path d="M396.34381,493.31573l0,-3.05232" stroke-width="0.24816"/><path d="M396.34381,493.31573l3.00594,0.53003" stroke-width="0.24816"/><path d="M403.91737,502.34155l0,-3.05232" stroke-width="0.24816"/><path d="M403.91737,502.34155l3.00594,0.53003" stroke-width="0.24816"/><path d="M402.6284,509.65167l3.00594,0.53003" stroke-width="0.24816"/><path d="M402.6284,509.65167l-1.04395,2.86824" stroke-width="0.24816"/><path d="M400.66977,520.75958l0,-3.05232" stroke-width="0.24816"/><path d="M400.66977,520.75958l3.00594,0.53003" stroke-width="0.24816"/><path d="M399.3808,528.0697l3.00594,0.53003" stroke-width="0.24816"/><path d="M399.3808,528.0697l-1.04395,2.86824" stroke-width="0.24816"/><path d="M389.17698,533.96088l3.00594,0.53003" stroke-width="0.24816"/><path d="M389.17698,533.96088l-1.04395,2.86824" stroke-width="0.24816"/><path d="M382.20174,531.4221l-1.04395,2.86824" stroke-width="0.24816"/><path d="M382.20174,531.4221l-2.64338,-1.52616" stroke-width="0.24816"/><path d="M417.79826,531.4221l2.64338,-1.52616" stroke-width="0.24816"/><path d="M417.79826,531.4221l1.04395,2.86824" stroke-width="0.24816"/><path d="M410.82302,533.96088l1.04395,2.86824" stroke-width="0.24816"/><path d="M410.82302,533.96088l-3.00594,0.53003" stroke-width="0.24816"/><path d="M400.6192,528.0697l1.04395,2.86824" stroke-width="0.24816"/><path d="M400.6192,528.0697l-3.00594,0.53003" stroke-width="0.24816"/><path d="M399.33023,520.75958l-3.00594,0.53003" stroke-width="0.24816"/><path d="M399.33023,520.75958l0,-3.05232" stroke-width="0.24816"/><path d="M397.3716,509.65167l1.04395,2.86824" stroke-width="0.24816"/><path d="M397.3716,509.65167l-3.00594,0.53003" stroke-width="0.24816"/><path d="M396.08263,502.34155l-3.00594,0.53003" stroke-width="0.24816"/><path d="M396.08263,502.34155l0,-3.05232" stroke-width="0.24816"/><path d="M403.65619,493.31573l-3.00594,0.53003" stroke-width="0.24816"/><path d="M403.65619,493.31573l0,-3.05232" stroke-width="0.24816"/><path d="M411.07908,493.31573l0,-3.05232" stroke-width="0.24816"/><path d="M411.07908,493.31573l3.00594,0.53003" stroke-width="0.24816"/><path d="M416.45338,486.91089l1.04395,2.86824" stroke-width="0.24816"/><path d="M416.45338,486.91089l-3.00594,0.53003" stroke-width="0.24816"/><path d="M415.16441,479.60077l-3.00594,0.53003" stroke-width="0.24816"/><path d="M415.16441,479.60077l0,-3.05232" stroke-width="0.24816"/><path d="M422.73796,470.57496l-3.00594,0.53003" stroke-width="0.24816"/><path d="M422.73796,470.57496l0,-3.05232" stroke-width="0.24816"/><path d="M430.16085,470.57496l0,-3.05232" stroke-width="0.24816"/><path d="M430.16085,470.57496l3.00594,0.53003" stroke-width="0.24816"/><path d="M441.44013,470.57496l-3.00594,0.53003" stroke-width="0.24816"/><path d="M441.44013,470.57496l0,-3.05232" stroke-width="0.24816"/><path d="M448.86301,470.57496l0,-3.05232" stroke-width="0.24816"/><path d="M448.86301,470.57496l3.00594,0.53003" stroke-width="0.24816"/><path d="M456.43657,479.60077l0,-3.05232" stroke-width="0.24816"/><path d="M456.43657,479.60077l3.00594,0.53003" stroke-width="0.24816"/><path d="M455.1476,486.91089l3.00594,0.53003" stroke-width="0.24816"/><path d="M455.1476,486.91089l-1.04395,2.86824" stroke-width="0.24816"/><path d="M463.57397,486.91089l1.04395,2.86824" stroke-width="0.24816"/><path d="M463.57397,486.91089l-3.00594,0.53003" stroke-width="0.24816"/><path d="M462.285,479.60077l-3.00594,0.53003" stroke-width="0.24816"/><path d="M462.285,479.60077l0,-3.05232" stroke-width="0.24816"/><path d="M469.85855,470.57496l-3.00594,0.53003" stroke-width="0.24816"/><path d="M469.85855,470.57496l0,-3.05232" stroke-width="0.24816"/><path d="M477.28144,470.57496l0,-3.05232" stroke-width="0.24816"/><path d="M477.28144,470.57496l3.00594,0.53003" stroke-width="0.24816"/><path d="M488.56072,470.57496l-3.00594,0.53003" stroke-width="0.24816"/><path d="M488.56072,470.57496l0,-3.05232" stroke-width="0.24816"/><path d="M495.9836,470.57496l0,-3.05232" stroke-width="0.24816"/><path d="M495.9836,470.57496l3.00594,0.53003" stroke-width="0.24816"/><path d="M503.55716,479.60077l0,-3.05232" stroke-width="0.24816"/><path d="M503.55716,479.60077l3.00594,0.53003" stroke-width="0.24816"/><path d="M502.26819,486.91089l3.00594,0.53003" stroke-width="0.24816"/><path d="M502.26819,486.91089l-1.04395,2.86824" stroke-width="0.24816"/><path d="M507.64249,493.31573l-3.00594,0.53003" stroke-width="0.24816"/><path d="M507.64249,493.31573l0,-3.05232" stroke-width="0.24816"/><path d="M515.06538,493.31573l0,-3.05232" stroke-width="0.24816"/><path d="M515.06538,493.31573l3.00594,0.53003" stroke-width="0.24816"/><path d="M522.63894,502.34155l0,-3.05232" stroke-width="0.24816"/><path d="M522.63894,502.34155l3.00594,0.53003" stroke-width="0.24816"/><path d="M521.34996,509.65167l3.00594,0.53003" stroke-width="0.24816"/><path d="M521.34996,509.65167l-1.04395,2.86824" stroke-width="0.24816"/><path d="M519.39134,520.75958l0,-3.05232" stroke-width="0.24816"/><path d="M519.39134,520.75958l3.00594,0.53003" stroke-width="0.24816"/><path d="M518.10237,528.0697l3.00594,0.53003" stroke-width="0.24816"/><path d="M518.10237,528.0697l-1.04395,2.86824" stroke-width="0.24816"/><path d="M507.89854,533.96088l3.00594,0.53003" stroke-width="0.24816"/><path d="M507.89854,533.96088l-1.04395,2.86824" stroke-width="0.24816"/><path d="M500.92331,531.4221l-1.04395,2.86824" stroke-width="0.24816"/><path d="M500.92331,531.4221l-2.64338,-1.52616" stroke-width="0.24816"/><path d="M511.651,544.20687l1.04395,2.86824" stroke-width="0.24816"/><path d="M511.651,544.20687l-3.00594,0.53003" stroke-width="0.24816"/><path d="M510.36203,536.89675l-3.00594,0.53003" stroke-width="0.24816"/><path d="M510.36203,536.89675l0,-3.05232" stroke-width="0.24816"/><path d="M517.93559,527.87094l-3.00594,0.53003" stroke-width="0.24816"/><path d="M517.93559,527.87094l0,-3.05232" stroke-width="0.24816"/><path d="M525.35848,527.87094l0,-3.05232" stroke-width="0.24816"/><path d="M525.35848,527.87094l3.00594,0.53003" stroke-width="0.24816"/><path d="M536.63775,527.87094l-3.00594,0.53003" stroke-width="0.24816"/><path d="M536.63775,527.87094l0,-3.05232" stroke-width="0.24816"/><path d="M544.06064,527.87094l0,-3.05232" stroke-width="0.24816"/><path d="M544.06064,527.87094l3.00594,0.53003" stroke-width="0.24816"/><path d="M551.63419,536.89675l0,-3.05232" stroke-width="0.24816"/><path d="M551.63419,536.89675l3.00594,0.53003" stroke-width="0.24816"/><path d="M550.34522,544.20687l3.00594,0.53003" stroke-width="0.24816"/><path d="M550.34522,544.20687l-1.04395,2.86824" stroke-width="0.24816"/><path d="M555.71953,550.61171l-3.00594,0.53003" stroke-width="0.24816"/><path d="M555.71953,550.61171l0,-3.05232" stroke-width="0.24816"/><path d="M563.14241,550.61171l0,-3.05232" stroke-width="0.24816"/><path d="M563.14241,550.61171l3.00594,0.53003" stroke-width="0.24816"/><path d="M570.71597,559.63753l0,-3.05232" stroke-width="0.24816"/><path d="M570.71597,559.63753l3.00594,0.53003" stroke-width="0.24816"/><path d="M569.427,566.94764l3.00594,0.53003" stroke-width="0.24816"/><path d="M569.427,566.94764l-1.04395,2.86824" stroke-width="0.24816"/><path d="M567.46837,578.05556l0,-3.05232" stroke-width="0.24816"/><path d="M567.46837,578.05556l3.00594,0.53003" stroke-width="0.24816"/><path d="M566.1794,585.36568l3.00594,0.53003" stroke-width="0.24816"/><path d="M566.1794,585.36568l-1.04395,2.86824" stroke-width="0.24816"/><path d="M555.97558,591.25686l3.00594,0.53003" stroke-width="0.24816"/><path d="M555.97558,591.25686l-1.04395,2.86824" stroke-width="0.24816"/><path d="M549.00034,588.71808l-1.04395,2.86824" stroke-width="0.24816"/><path d="M549.00034,588.71808l-2.64338,-1.52616" stroke-width="0.24816"/><path d="M547.53712,597.01643l-3.00594,0.53003" stroke-width="0.24816"/><path d="M547.53712,597.01643l0,-3.05232" stroke-width="0.24816"/><path d="M554.96001,597.01643l0,-3.05232" stroke-width="0.24816"/><path d="M554.96001,597.01643l3.00594,0.53003" stroke-width="0.24816"/><path d="M562.53357,606.04225l0,-3.05232" stroke-width="0.24816"/><path d="M562.53357,606.04225l3.00594,0.53003" stroke-width="0.24816"/><path d="M561.24459,613.35237l3.00594,0.53003" stroke-width="0.24816"/><path d="M561.24459,613.35237l-1.04395,2.86824" stroke-width="0.24816"/><path d="M559.28597,624.46028l0,-3.05232" stroke-width="0.24816"/><path d="M559.28597,624.46028l3.00594,0.53003" stroke-width="0.24816"/><path d="M557.997,631.7704l3.00594,0.53003" stroke-width="0.24816"/><path d="M557.997,631.7704l-1.04395,2.86824" stroke-width="0.24816"/><path d="M547.79317,637.66158l3.00594,0.53003" stroke-width="0.24816"/><path d="M547.79317,637.66158l-1.04395,2.86824" stroke-width="0.24816"/><path d="M540.81794,635.1228l-1.04395,2.86824" stroke-width="0.24816"/><path d="M540.81794,635.1228l-2.64338,-1.52616" stroke-width="0.24816"/><path d="M533.57716,639.30327l0,-3.05232" stroke-width="0.24816"/><path d="M533.57716,639.30327l3.00594,0.53003" stroke-width="0.24816"/><path d="M532.28819,646.61339l3.00594,0.53003" stroke-width="0.24816"/><path d="M532.28819,646.61339l-1.04395,2.86824" stroke-width="0.24816"/><path d="M522.08437,652.50457l3.00594,0.53003" stroke-width="0.24816"/><path d="M522.08437,652.50457l-1.04395,2.86824" stroke-width="0.24816"/><path d="M515.10913,649.96579l-1.04395,2.86824" stroke-width="0.24816"/><path d="M515.10913,649.96579l-2.64338,-1.52616" stroke-width="0.24816"/><path d="M504.51008,646.10805l3.00594,0.53003" stroke-width="0.24816"/><path d="M504.51008,646.10805l-1.04395,2.86824" stroke-width="0.24816"/><path d="M497.53485,643.56927l-1.04395,2.86824" stroke-width="0.24816"/><path d="M497.53485,643.56927l-2.64338,-1.52616" stroke-width="0.24816"/><path d="M493.50504,632.49748l-1.04395,2.86824" stroke-width="0.24816"/><path d="M493.50504,632.49748l-2.64338,-1.52616" stroke-width="0.24816"/><path d="M497.21649,626.06907l-2.64338,-1.52616" stroke-width="0.24816"/><path d="M497.21649,626.06907l1.96199,-2.33821" stroke-width="0.24816"/><path d="M300.82152,623.73086l-1.92296,0" stroke-width="0.15634"/><path d="M300.82152,623.73086l0.33392,-1.89375" stroke-width="0.15634"/><path d="M305.42689,624.54291l0.33392,-1.89375" stroke-width="0.15634"/><path d="M305.42689,624.54291l1.80699,0.65769" stroke-width="0.15634"/><path d="M309.13834,630.97132l0.33392,-1.89375" stroke-width="0.15634"/><path d="M309.13834,630.97132l1.80699,0.65769" stroke-width="0.15634"/><path d="M307.53891,635.36571l1.80699,0.65769" stroke-width="0.15634"/><path d="M307.53891,635.36571l-0.96148,1.66533" stroke-width="0.15634"/><path d="M305.10853,642.04312l0.33392,-1.89375" stroke-width="0.15634"/><path d="M305.10853,642.04312l1.80699,0.65769" stroke-width="0.15634"/><path d="M303.5091,646.43751l1.80699,0.65769" stroke-width="0.15634"/><path d="M303.5091,646.43751l-0.96148,1.66533" stroke-width="0.15634"/><path d="M296.53387,648.97629l1.80699,0.65769" stroke-width="0.15634"/><path d="M296.53387,648.97629l-0.96148,1.66533" stroke-width="0.15634"/><path d="M292.48397,646.63808l-0.96148,1.66533" stroke-width="0.15634"/><path d="M292.48397,646.63808l-1.47307,-1.23605" stroke-width="0.15634"/><path d="M287.53425,648.43963l0.33392,-1.89375" stroke-width="0.15634"/><path d="M287.53425,648.43963l1.80699,0.65769" stroke-width="0.15634"/><path d="M285.93482,652.83403l1.80699,0.65769" stroke-width="0.15634"/><path d="M285.93482,652.83403l-0.96148,1.66533" stroke-width="0.15634"/><path d="M278.95959,655.37281l1.80699,0.65769" stroke-width="0.15634"/><path d="M278.95959,655.37281l-0.96148,1.66533" stroke-width="0.15634"/><path d="M274.90969,653.0346l-0.96148,1.66533" stroke-width="0.15634"/><path d="M274.90969,653.0346l-1.47307,-1.23605" stroke-width="0.15634"/><path d="M268.75576,649.48163l1.80699,0.65769" stroke-width="0.15634"/><path d="M268.75576,649.48163l-0.96148,1.66533" stroke-width="0.15634"/><path d="M264.70586,647.14342l-0.96148,1.66533" stroke-width="0.15634"/><path d="M264.70586,647.14342l-1.47307,-1.23605" stroke-width="0.15634"/><path d="M263.41689,639.8333l-0.96148,1.66533" stroke-width="0.15634"/><path d="M263.41689,639.8333l-1.47307,-1.23605" stroke-width="0.15634"/><path d="M266.42284,636.25095l-1.47307,-1.23605" stroke-width="0.15634"/><path d="M266.42284,636.25095l1.47307,-1.23605" stroke-width="0.15634"/><path d="M261.82544,633.59665l0.33392,-1.89375" stroke-width="0.15634"/><path d="M261.82544,633.59665l1.80699,0.65769" stroke-width="0.15634"/><path d="M260.22601,637.99104l1.80699,0.65769" stroke-width="0.15634"/><path d="M260.22601,637.99104l-0.96148,1.66533" stroke-width="0.15634"/><path d="M253.25078,640.52982l1.80699,0.65769" stroke-width="0.15634"/><path d="M253.25078,640.52982l-0.96148,1.66533" stroke-width="0.15634"/><path d="M249.20088,638.19161l-0.96148,1.66533" stroke-width="0.15634"/><path d="M249.20088,638.19161l-1.47307,-1.23605" stroke-width="0.15634"/><path d="M243.04696,634.63864l1.80699,0.65769" stroke-width="0.15634"/><path d="M243.04696,634.63864l-0.96148,1.66533" stroke-width="0.15634"/><path d="M238.99706,632.30043l-0.96148,1.66533" stroke-width="0.15634"/><path d="M238.99706,632.30043l-1.47307,-1.23605" stroke-width="0.15634"/><path d="M237.70809,624.99031l-0.96148,1.66533" stroke-width="0.15634"/><path d="M237.70809,624.99031l-1.47307,-1.23605" stroke-width="0.15634"/><path d="M240.71403,621.40797l-1.47307,-1.23605" stroke-width="0.15634"/><path d="M240.71403,621.40797l1.47307,-1.23605" stroke-width="0.15634"/><path d="M239.79936,616.2206l1.80699,0.65769" stroke-width="0.15634"/><path d="M239.79936,616.2206l-0.96148,1.66533" stroke-width="0.15634"/><path d="M235.74946,613.8824l-0.96148,1.66533" stroke-width="0.15634"/><path d="M235.74946,613.8824l-1.47307,-1.23605" stroke-width="0.15634"/><path d="M234.46049,606.57228l-0.96148,1.66533" stroke-width="0.15634"/><path d="M234.46049,606.57228l-1.47307,-1.23605" stroke-width="0.15634"/><path d="M237.46643,602.98993l-1.47307,-1.23605" stroke-width="0.15634"/><path d="M237.46643,602.98993l1.47307,-1.23605" stroke-width="0.15634"/><path d="M242.03405,597.54646l-0.96148,1.66533" stroke-width="0.15634"/><path d="M242.03405,597.54646l-1.47307,-1.23605" stroke-width="0.15634"/><path d="M245.03999,593.96412l-1.47307,-1.23605" stroke-width="0.15634"/><path d="M245.03999,593.96412l1.47307,-1.23605" stroke-width="0.15634"/><path d="M252.46288,593.96412l-1.47307,-1.23605" stroke-width="0.15634"/><path d="M252.46288,593.96412l1.47307,-1.23605" stroke-width="0.15634"/><path d="M255.46882,597.54646l1.47307,-1.23605" stroke-width="0.15634"/><path d="M255.46882,597.54646l0.96148,1.66533" stroke-width="0.15634"/><path d="M253.64304,587.19192l0.33392,-1.89375" stroke-width="0.15634"/><path d="M253.64304,587.19192l1.80699,0.65769" stroke-width="0.15634"/><path d="M252.04361,591.58632l1.80699,0.65769" stroke-width="0.15634"/><path d="M252.04361,591.58632l-0.96148,1.66533" stroke-width="0.15634"/><path d="M245.06838,594.1251l1.80699,0.65769" stroke-width="0.15634"/><path d="M245.06838,594.1251l-0.96148,1.66533" stroke-width="0.15634"/><path d="M241.01848,591.78689l-0.96148,1.66533" stroke-width="0.15634"/><path d="M241.01848,591.78689l-1.47307,-1.23605" stroke-width="0.15634"/><path d="M234.86455,588.23392l1.80699,0.65769" stroke-width="0.15634"/><path d="M234.86455,588.23392l-0.96148,1.66533" stroke-width="0.15634"/><path d="M230.81465,585.89571l-0.96148,1.66533" stroke-width="0.15634"/><path d="M230.81465,585.89571l-1.47307,-1.23605" stroke-width="0.15634"/><path d="M229.52568,578.58559l-0.96148,1.66533" stroke-width="0.15634"/><path d="M229.52568,578.58559l-1.47307,-1.23605" stroke-width="0.15634"/><path d="M232.53163,575.00324l-1.47307,-1.23605" stroke-width="0.15634"/><path d="M232.53163,575.00324l1.47307,-1.23605" stroke-width="0.15634"/><path d="M231.61695,569.81588l1.80699,0.65769" stroke-width="0.15634"/><path d="M231.61695,569.81588l-0.96148,1.66533" stroke-width="0.15634"/><path d="M227.56706,567.47767l-0.96148,1.66533" stroke-width="0.15634"/><path d="M227.56706,567.47767l-1.47307,-1.23605" stroke-width="0.15634"/><path d="M226.27809,560.16755l-0.96148,1.66533" stroke-width="0.15634"/><path d="M226.27809,560.16755l-1.47307,-1.23605" stroke-width="0.15634"/><path d="M229.28403,556.58521l-1.47307,-1.23605" stroke-width="0.15634"/><path d="M229.28403,556.58521l1.47307,-1.23605" stroke-width="0.15634"/><path d="M233.85164,551.14174l-0.96148,1.66533" stroke-width="0.15634"/><path d="M233.85164,551.14174l-1.47307,-1.23605" stroke-width="0.15634"/><path d="M236.85759,547.5594l-1.47307,-1.23605" stroke-width="0.15634"/><path d="M236.85759,547.5594l1.47307,-1.23605" stroke-width="0.15634"/><path d="M244.28047,547.5594l-1.47307,-1.23605" stroke-width="0.15634"/><path d="M244.28047,547.5594l1.47307,-1.23605" stroke-width="0.15634"/><path d="M247.28642,551.14174l1.47307,-1.23605" stroke-width="0.15634"/><path d="M247.28642,551.14174l0.96148,1.66533" stroke-width="0.15634"/><path d="M250.69873,547.07511l1.80699,0.65769" stroke-width="0.15634"/><path d="M250.69873,547.07511l-0.96148,1.66533" stroke-width="0.15634"/><path d="M246.64883,544.7369l-0.96148,1.66533" stroke-width="0.15634"/><path d="M246.64883,544.7369l-1.47307,-1.23605" stroke-width="0.15634"/><path d="M245.35986,537.42678l-0.96148,1.66533" stroke-width="0.15634"/><path d="M245.35986,537.42678l-1.47307,-1.23605" stroke-width="0.15634"/><path d="M248.36581,533.84444l-1.47307,-1.23605" stroke-width="0.15634"/><path d="M248.36581,533.84444l1.47307,-1.23605" stroke-width="0.15634"/><path d="M252.93342,528.40097l-0.96148,1.66533" stroke-width="0.15634"/><path d="M252.93342,528.40097l-1.47307,-1.23605" stroke-width="0.15634"/><path d="M255.93936,524.81862l-1.47307,-1.23605" stroke-width="0.15634"/><path d="M255.93936,524.81862l1.47307,-1.23605" stroke-width="0.15634"/><path d="M263.36225,524.81862l-1.47307,-1.23605" stroke-width="0.15634"/><path d="M263.36225,524.81862l1.47307,-1.23605" stroke-width="0.15634"/><path d="M266.36819,528.40097l1.47307,-1.23605" stroke-width="0.15634"/><path d="M266.36819,528.40097l0.96148,1.66533" stroke-width="0.15634"/><path d="M271.63558,528.40097l-0.96148,1.66533" stroke-width="0.15634"/><path d="M271.63558,528.40097l-1.47307,-1.23605" stroke-width="0.15634"/><path d="M274.64152,524.81862l-1.47307,-1.23605" stroke-width="0.15634"/><path d="M274.64152,524.81862l1.47307,-1.23605" stroke-width="0.15634"/><path d="M282.06441,524.81862l-1.47307,-1.23605" stroke-width="0.15634"/><path d="M282.06441,524.81862l1.47307,-1.23605" stroke-width="0.15634"/><path d="M285.07036,528.40097l1.47307,-1.23605" stroke-width="0.15634"/><path d="M285.07036,528.40097l0.96148,1.66533" stroke-width="0.15634"/><path d="M289.63797,533.84444l-1.47307,-1.23605" stroke-width="0.15634"/><path d="M289.63797,533.84444l1.47307,-1.23605" stroke-width="0.15634"/><path d="M292.64391,537.42678l1.47307,-1.23605" stroke-width="0.15634"/><path d="M292.64391,537.42678l0.96148,1.66533" stroke-width="0.15634"/><path d="M291.35494,544.7369l1.47307,-1.23605" stroke-width="0.15634"/><path d="M291.35494,544.7369l0.96148,1.66533" stroke-width="0.15634"/><path d="M287.30504,547.07511l0.96148,1.66533" stroke-width="0.15634"/><path d="M287.30504,547.07511l-1.80699,0.65769" stroke-width="0.15634"/><path d="M301.72007,529.89595l0.33392,-1.89375" stroke-width="0.15634"/><path d="M301.72007,529.89595l1.80699,0.65769" stroke-width="0.15634"/><path d="M300.12064,534.29034l1.80699,0.65769" stroke-width="0.15634"/><path d="M300.12064,534.29034l-0.96148,1.66533" stroke-width="0.15634"/><path d="M293.14541,536.82912l1.80699,0.65769" stroke-width="0.15634"/><path d="M293.14541,536.82912l-0.96148,1.66533" stroke-width="0.15634"/><path d="M289.09551,534.49091l-0.96148,1.66533" stroke-width="0.15634"/><path d="M289.09551,534.49091l-1.47307,-1.23605" stroke-width="0.15634"/><path d="M282.94159,530.93794l1.80699,0.65769" stroke-width="0.15634"/><path d="M282.94159,530.93794l-0.96148,1.66533" stroke-width="0.15634"/><path d="M278.89169,528.59973l-0.96148,1.66533" stroke-width="0.15634"/><path d="M278.89169,528.59973l-1.47307,-1.23605" stroke-width="0.15634"/><path d="M277.60272,521.28961l-0.96148,1.66533" stroke-width="0.15634"/><path d="M277.60272,521.28961l-1.47307,-1.23605" stroke-width="0.15634"/><path d="M280.60866,517.70727l-1.47307,-1.23605" stroke-width="0.15634"/><path d="M280.60866,517.70727l1.47307,-1.23605" stroke-width="0.15634"/><path d="M279.69399,512.5199l1.80699,0.65769" stroke-width="0.15634"/><path d="M279.69399,512.5199l-0.96148,1.66533" stroke-width="0.15634"/><path d="M275.64409,510.18169l-0.96148,1.66533" stroke-width="0.15634"/><path d="M275.64409,510.18169l-1.47307,-1.23605" stroke-width="0.15634"/><path d="M274.35512,502.87158l-0.96148,1.66533" stroke-width="0.15634"/><path d="M274.35512,502.87158l-1.47307,-1.23605" stroke-width="0.15634"/><path d="M277.36106,499.28923l-1.47307,-1.23605" stroke-width="0.15634"/><path d="M277.36106,499.28923l1.47307,-1.23605" stroke-width="0.15634"/><path d="M281.92868,493.84576l-0.96148,1.66533" stroke-width="0.15634"/><path d="M281.92868,493.84576l-1.47307,-1.23605" stroke-width="0.15634"/><path d="M284.93462,490.26342l-1.47307,-1.23605" stroke-width="0.15634"/><path d="M284.93462,490.26342l1.47307,-1.23605" stroke-width="0.15634"/><path d="M292.35751,490.26342l-1.47307,-1.23605" stroke-width="0.15634"/><path d="M292.35751,490.26342l1.47307,-1.23605" stroke-width="0.15634"/><path d="M295.36345,493.84576l1.47307,-1.23605" stroke-width="0.15634"/><path d="M295.36345,493.84576l0.96148,1.66533" stroke-width="0.15634"/><path d="M298.77576,489.77913l1.80699,0.65769" stroke-width="0.15634"/><path d="M298.77576,489.77913l-0.96148,1.66533" stroke-width="0.15634"/><path d="M294.72587,487.44092l-0.96148,1.66533" stroke-width="0.15634"/><path d="M294.72587,487.44092l-1.47307,-1.23605" stroke-width="0.15634"/><path d="M293.43689,480.1308l-0.96148,1.66533" stroke-width="0.15634"/><path d="M293.43689,480.1308l-1.47307,-1.23605" stroke-width="0.15634"/><path d="M296.44284,476.54846l-1.47307,-1.23605" stroke-width="0.15634"/><path d="M296.44284,476.54846l1.47307,-1.23605" stroke-width="0.15634"/><path d="M301.01045,471.10499l-0.96148,1.66533" stroke-width="0.15634"/><path d="M301.01045,471.10499l-1.47307,-1.23605" stroke-width="0.15634"/><path d="M304.0164,467.52264l-1.47307,-1.23605" stroke-width="0.15634"/><path d="M304.0164,467.52264l1.47307,-1.23605" stroke-width="0.15634"/><path d="M311.43928,467.52264l-1.47307,-1.23605" stroke-width="0.15634"/><path d="M311.43928,467.52264l1.47307,-1.23605" stroke-width="0.15634"/><path d="M314.44523,471.10499l1.47307,-1.23605" stroke-width="0.15634"/><path d="M314.44523,471.10499l0.96148,1.66533" stroke-width="0.15634"/><path d="M319.71261,471.10499l-0.96148,1.66533" stroke-width="0.15634"/><path d="M319.71261,471.10499l-1.47307,-1.23605" stroke-width="0.15634"/><path d="M322.71856,467.52264l-1.47307,-1.23605" stroke-width="0.15634"/><path d="M322.71856,467.52264l1.47307,-1.23605" stroke-width="0.15634"/><path d="M330.14145,467.52264l-1.47307,-1.23605" stroke-width="0.15634"/><path d="M330.14145,467.52264l1.47307,-1.23605" stroke-width="0.15634"/><path d="M333.14739,471.10499l1.47307,-1.23605" stroke-width="0.15634"/><path d="M333.14739,471.10499l0.96148,1.66533" stroke-width="0.15634"/><path d="M337.715,476.54846l-1.47307,-1.23605" stroke-width="0.15634"/><path d="M337.715,476.54846l1.47307,-1.23605" stroke-width="0.15634"/><path d="M340.72095,480.1308l1.47307,-1.23605" stroke-width="0.15634"/><path d="M340.72095,480.1308l0.96148,1.66533" stroke-width="0.15634"/><path d="M339.43198,487.44092l1.47307,-1.23605" stroke-width="0.15634"/><path d="M339.43198,487.44092l0.96148,1.66533" stroke-width="0.15634"/><path d="M335.38208,489.77913l0.96148,1.66533" stroke-width="0.15634"/><path d="M335.38208,489.77913l-1.80699,0.65769" stroke-width="0.15634"/><path d="M345.89635,489.77913l1.80699,0.65769" stroke-width="0.15634"/><path d="M345.89635,489.77913l-0.96148,1.66533" stroke-width="0.15634"/><path d="M341.84646,487.44092l-0.96148,1.66533" stroke-width="0.15634"/><path d="M341.84646,487.44092l-1.47307,-1.23605" stroke-width="0.15634"/><path d="M340.55748,480.1308l-0.96148,1.66533" stroke-width="0.15634"/><path d="M340.55748,480.1308l-1.47307,-1.23605" stroke-width="0.15634"/><path d="M343.56343,476.54846l-1.47307,-1.23605" stroke-width="0.15634"/><path d="M343.56343,476.54846l1.47307,-1.23605" stroke-width="0.15634"/><path d="M348.13104,471.10499l-0.96148,1.66533" stroke-width="0.15634"/><path d="M348.13104,471.10499l-1.47307,-1.23605" stroke-width="0.15634"/><path d="M351.13699,467.52264l-1.47307,-1.23605" stroke-width="0.15634"/><path d="M351.13699,467.52264l1.47307,-1.23605" stroke-width="0.15634"/><path d="M358.55987,467.52264l-1.47307,-1.23605" stroke-width="0.15634"/><path d="M358.55987,467.52264l1.47307,-1.23605" stroke-width="0.15634"/><path d="M361.56582,471.10499l1.47307,-1.23605" stroke-width="0.15634"/><path d="M361.56582,471.10499l0.96148,1.66533" stroke-width="0.15634"/><path d="M366.8332,471.10499l-0.96148,1.66533" stroke-width="0.15634"/><path d="M366.8332,471.10499l-1.47307,-1.23605" stroke-width="0.15634"/><path d="M369.83915,467.52264l-1.47307,-1.23605" stroke-width="0.15634"/><path d="M369.83915,467.52264l1.47307,-1.23605" stroke-width="0.15634"/><path d="M377.26204,467.52264l-1.47307,-1.23605" stroke-width="0.15634"/><path d="M377.26204,467.52264l1.47307,-1.23605" stroke-width="0.15634"/><path d="M380.26798,471.10499l1.47307,-1.23605" stroke-width="0.15634"/><path d="M380.26798,471.10499l0.96148,1.66533" stroke-width="0.15634"/><path d="M384.83559,476.54846l-1.47307,-1.23605" stroke-width="0.15634"/><path d="M384.83559,476.54846l1.47307,-1.23605" stroke-width="0.15634"/><path d="M387.84154,480.1308l1.47307,-1.23605" stroke-width="0.15634"/><path d="M387.84154,480.1308l0.96148,1.66533" stroke-width="0.15634"/><path d="M386.55257,487.44092l1.47307,-1.23605" stroke-width="0.15634"/><path d="M386.55257,487.44092l0.96148,1.66533" stroke-width="0.15634"/><path d="M382.50267,489.77913l0.96148,1.66533" stroke-width="0.15634"/><path d="M382.50267,489.77913l-1.80699,0.65769" stroke-width="0.15634"/><path d="M385.91498,493.84576l-0.96148,1.66533" stroke-width="0.15634"/><path d="M385.91498,493.84576l-1.47307,-1.23605" stroke-width="0.15634"/><path d="M388.92092,490.26342l-1.47307,-1.23605" stroke-width="0.15634"/><path d="M388.92092,490.26342l1.47307,-1.23605" stroke-width="0.15634"/><path d="M396.34381,490.26342l-1.47307,-1.23605" stroke-width="0.15634"/><path d="M396.34381,490.26342l1.47307,-1.23605" stroke-width="0.15634"/><path d="M399.34976,493.84576l1.47307,-1.23605" stroke-width="0.15634"/><path d="M399.34976,493.84576l0.96148,1.66533" stroke-width="0.15634"/><path d="M403.91737,499.28923l-1.47307,-1.23605" stroke-width="0.15634"/><path d="M403.91737,499.28923l1.47307,-1.23605" stroke-width="0.15634"/><path d="M406.92331,502.87158l1.47307,-1.23605" stroke-width="0.15634"/><path d="M406.92331,502.87158l0.96148,1.66533" stroke-width="0.15634"/><path d="M405.63434,510.18169l1.47307,-1.23605" stroke-width="0.15634"/><path d="M405.63434,510.18169l0.96148,1.66533" stroke-width="0.15634"/><path d="M401.58444,512.5199l0.96148,1.66533" stroke-width="0.15634"/><path d="M401.58444,512.5199l-1.80699,0.65769" stroke-width="0.15634"/><path d="M400.66977,517.70727l-1.47307,-1.23605" stroke-width="0.15634"/><path d="M400.66977,517.70727l1.47307,-1.23605" stroke-width="0.15634"/><path d="M403.67572,521.28961l1.47307,-1.23605" stroke-width="0.15634"/><path d="M403.67572,521.28961l0.96148,1.66533" stroke-width="0.15634"/><path d="M402.38674,528.59973l1.47307,-1.23605" stroke-width="0.15634"/><path d="M402.38674,528.59973l0.96148,1.66533" stroke-width="0.15634"/><path d="M398.33685,530.93794l0.96148,1.66533" stroke-width="0.15634"/><path d="M398.33685,530.93794l-1.80699,0.65769" stroke-width="0.15634"/><path d="M392.18292,534.49091l1.47307,-1.23605" stroke-width="0.15634"/><path d="M392.18292,534.49091l0.96148,1.66533" stroke-width="0.15634"/><path d="M388.13302,536.82912l0.96148,1.66533" stroke-width="0.15634"/><path d="M388.13302,536.82912l-1.80699,0.65769" stroke-width="0.15634"/><path d="M381.15779,534.29034l0.96148,1.66533" stroke-width="0.15634"/><path d="M381.15779,534.29034l-1.80699,0.65769" stroke-width="0.15634"/><path d="M379.55836,529.89595l-1.80699,0.65769" stroke-width="0.15634"/><path d="M379.55836,529.89595l-0.33392,-1.89375" stroke-width="0.15634"/><path d="M420.44164,529.89595l0.33392,-1.89375" stroke-width="0.15634"/><path d="M420.44164,529.89595l1.80699,0.65769" stroke-width="0.15634"/><path d="M418.84221,534.29034l1.80699,0.65769" stroke-width="0.15634"/><path d="M418.84221,534.29034l-0.96148,1.66533" stroke-width="0.15634"/><path d="M411.86698,536.82912l1.80699,0.65769" stroke-width="0.15634"/><path d="M411.86698,536.82912l-0.96148,1.66533" stroke-width="0.15634"/><path d="M407.81708,534.49091l-0.96148,1.66533" stroke-width="0.15634"/><path d="M407.81708,534.49091l-1.47307,-1.23605" stroke-width="0.15634"/><path d="M401.66315,530.93794l1.80699,0.65769" stroke-width="0.15634"/><path d="M401.66315,530.93794l-0.96148,1.66533" stroke-width="0.15634"/><path d="M397.61326,528.59973l-0.96148,1.66533" stroke-width="0.15634"/><path d="M397.61326,528.59973l-1.47307,-1.23605" stroke-width="0.15634"/><path d="M396.32428,521.28961l-0.96148,1.66533" stroke-width="0.15634"/><path d="M396.32428,521.28961l-1.47307,-1.23605" stroke-width="0.15634"/><path d="M399.33023,517.70727l-1.47307,-1.23605" stroke-width="0.15634"/><path d="M399.33023,517.70727l1.47307,-1.23605" stroke-width="0.15634"/><path d="M398.41556,512.5199l1.80699,0.65769" stroke-width="0.15634"/><path d="M398.41556,512.5199l-0.96148,1.66533" stroke-width="0.15634"/><path d="M394.36566,510.18169l-0.96148,1.66533" stroke-width="0.15634"/><path d="M394.36566,510.18169l-1.47307,-1.23605" stroke-width="0.15634"/><path d="M393.07669,502.87158l-0.96148,1.66533" stroke-width="0.15634"/><path d="M393.07669,502.87158l-1.47307,-1.23605" stroke-width="0.15634"/><path d="M396.08263,499.28923l-1.47307,-1.23605" stroke-width="0.15634"/><path d="M396.08263,499.28923l1.47307,-1.23605" stroke-width="0.15634"/><path d="M400.65024,493.84576l-0.96148,1.66533" stroke-width="0.15634"/><path d="M400.65024,493.84576l-1.47307,-1.23605" stroke-width="0.15634"/><path d="M403.65619,490.26342l-1.47307,-1.23605" stroke-width="0.15634"/><path d="M403.65619,490.26342l1.47307,-1.23605" stroke-width="0.15634"/><path d="M411.07908,490.26342l-1.47307,-1.23605" stroke-width="0.15634"/><path d="M411.07908,490.26342l1.47307,-1.23605" stroke-width="0.15634"/><path d="M414.08502,493.84576l1.47307,-1.23605" stroke-width="0.15634"/><path d="M414.08502,493.84576l0.96148,1.66533" stroke-width="0.15634"/><path d="M417.49733,489.77913l1.80699,0.65769" stroke-width="0.15634"/><path d="M417.49733,489.77913l-0.96148,1.66533" stroke-width="0.15634"/><path d="M413.44743,487.44092l-0.96148,1.66533" stroke-width="0.15634"/><path d="M413.44743,487.44092l-1.47307,-1.23605" stroke-width="0.15634"/><path d="M412.15846,480.1308l-0.96148,1.66533" stroke-width="0.15634"/><path d="M412.15846,480.1308l-1.47307,-1.23605" stroke-width="0.15634"/><path d="M415.16441,476.54846l-1.47307,-1.23605" stroke-width="0.15634"/><path d="M415.16441,476.54846l1.47307,-1.23605" stroke-width="0.15634"/><path d="M419.73202,471.10499l-0.96148,1.66533" stroke-width="0.15634"/><path d="M419.73202,471.10499l-1.47307,-1.23605" stroke-width="0.15634"/><path d="M422.73796,467.52264l-1.47307,-1.23605" stroke-width="0.15634"/><path d="M422.73796,467.52264l1.47307,-1.23605" stroke-width="0.15634"/><path d="M430.16085,467.52264l-1.47307,-1.23605" stroke-width="0.15634"/><path d="M430.16085,467.52264l1.47307,-1.23605" stroke-width="0.15634"/><path d="M433.1668,471.10499l1.47307,-1.23605" stroke-width="0.15634"/><path d="M433.1668,471.10499l0.96148,1.66533" stroke-width="0.15634"/><path d="M438.43418,471.10499l-0.96148,1.66533" stroke-width="0.15634"/><path d="M438.43418,471.10499l-1.47307,-1.23605" stroke-width="0.15634"/><path d="M441.44013,467.52264l-1.47307,-1.23605" stroke-width="0.15634"/><path d="M441.44013,467.52264l1.47307,-1.23605" stroke-width="0.15634"/><path d="M448.86301,467.52264l-1.47307,-1.23605" stroke-width="0.15634"/><path d="M448.86301,467.52264l1.47307,-1.23605" stroke-width="0.15634"/><path d="M451.86896,471.10499l1.47307,-1.23605" stroke-width="0.15634"/><path d="M451.86896,471.10499l0.96148,1.66533" stroke-width="0.15634"/><path d="M456.43657,476.54846l-1.47307,-1.23605" stroke-width="0.15634"/><path d="M456.43657,476.54846l1.47307,-1.23605" stroke-width="0.15634"/><path d="M459.44252,480.1308l1.47307,-1.23605" stroke-width="0.15634"/><path d="M459.44252,480.1308l0.96148,1.66533" stroke-width="0.15634"/><path d="M458.15354,487.44092l1.47307,-1.23605" stroke-width="0.15634"/><path d="M458.15354,487.44092l0.96148,1.66533" stroke-width="0.15634"/><path d="M454.10365,489.77913l0.96148,1.66533" stroke-width="0.15634"/><path d="M454.10365,489.77913l-1.80699,0.65769" stroke-width="0.15634"/><path d="M464.61792,489.77913l1.80699,0.65769" stroke-width="0.15634"/><path d="M464.61792,489.77913l-0.96148,1.66533" stroke-width="0.15634"/><path d="M460.56802,487.44092l-0.96148,1.66533" stroke-width="0.15634"/><path d="M460.56802,487.44092l-1.47307,-1.23605" stroke-width="0.15634"/><path d="M459.27905,480.1308l-0.96148,1.66533" stroke-width="0.15634"/><path d="M459.27905,480.1308l-1.47307,-1.23605" stroke-width="0.15634"/><path d="M462.285,476.54846l-1.47307,-1.23605" stroke-width="0.15634"/><path d="M462.285,476.54846l1.47307,-1.23605" stroke-width="0.15634"/><path d="M466.85261,471.10499l-0.96148,1.66533" stroke-width="0.15634"/><path d="M466.85261,471.10499l-1.47307,-1.23605" stroke-width="0.15634"/><path d="M469.85855,467.52264l-1.47307,-1.23605" stroke-width="0.15634"/><path d="M469.85855,467.52264l1.47307,-1.23605" stroke-width="0.15634"/><path d="M477.28144,467.52264l-1.47307,-1.23605" stroke-width="0.15634"/><path d="M477.28144,467.52264l1.47307,-1.23605" stroke-width="0.15634"/><path d="M480.28739,471.10499l1.47307,-1.23605" stroke-width="0.15634"/><path d="M480.28739,471.10499l0.96148,1.66533" stroke-width="0.15634"/><path d="M485.55477,471.10499l-0.96148,1.66533" stroke-width="0.15634"/><path d="M485.55477,471.10499l-1.47307,-1.23605" stroke-width="0.15634"/><path d="M488.56072,467.52264l-1.47307,-1.23605" stroke-width="0.15634"/><path d="M488.56072,467.52264l1.47307,-1.23605" stroke-width="0.15634"/><path d="M495.9836,467.52264l-1.47307,-1.23605" stroke-width="0.15634"/><path d="M495.9836,467.52264l1.47307,-1.23605" stroke-width="0.15634"/><path d="M498.98955,471.10499l1.47307,-1.23605" stroke-width="0.15634"/><path d="M498.98955,471.10499l0.96148,1.66533" stroke-width="0.15634"/><path d="M503.55716,476.54846l-1.47307,-1.23605" stroke-width="0.15634"/><path d="M503.55716,476.54846l1.47307,-1.23605" stroke-width="0.15634"/><path d="M506.56311,480.1308l1.47307,-1.23605" stroke-width="0.15634"/><path d="M506.56311,480.1308l0.96148,1.66533" stroke-width="0.15634"/><path d="M505.27413,487.44092l1.47307,-1.23605" stroke-width="0.15634"/><path d="M505.27413,487.44092l0.96148,1.66533" stroke-width="0.15634"/><path d="M501.22424,489.77913l0.96148,1.66533" stroke-width="0.15634"/><path d="M501.22424,489.77913l-1.80699,0.65769" stroke-width="0.15634"/><path d="M504.63655,493.84576l-0.96148,1.66533" stroke-width="0.15634"/><path d="M504.63655,493.84576l-1.47307,-1.23605" stroke-width="0.15634"/><path d="M507.64249,490.26342l-1.47307,-1.23605" stroke-width="0.15634"/><path d="M507.64249,490.26342l1.47307,-1.23605" stroke-width="0.15634"/><path d="M515.06538,490.26342l-1.47307,-1.23605" stroke-width="0.15634"/><path d="M515.06538,490.26342l1.47307,-1.23605" stroke-width="0.15634"/><path d="M518.07132,493.84576l1.47307,-1.23605" stroke-width="0.15634"/><path d="M518.07132,493.84576l0.96148,1.66533" stroke-width="0.15634"/><path d="M522.63894,499.28923l-1.47307,-1.23605" stroke-width="0.15634"/><path d="M522.63894,499.28923l1.47307,-1.23605" stroke-width="0.15634"/><path d="M525.64488,502.87158l1.47307,-1.23605" stroke-width="0.15634"/><path d="M525.64488,502.87158l0.96148,1.66533" stroke-width="0.15634"/><path d="M524.35591,510.18169l1.47307,-1.23605" stroke-width="0.15634"/><path d="M524.35591,510.18169l0.96148,1.66533" stroke-width="0.15634"/><path d="M520.30601,512.5199l0.96148,1.66533" stroke-width="0.15634"/><path d="M520.30601,512.5199l-1.80699,0.65769" stroke-width="0.15634"/><path d="M519.39134,517.70727l-1.47307,-1.23605" stroke-width="0.15634"/><path d="M519.39134,517.70727l1.47307,-1.23605" stroke-width="0.15634"/><path d="M522.39728,521.28961l1.47307,-1.23605" stroke-width="0.15634"/><path d="M522.39728,521.28961l0.96148,1.66533" stroke-width="0.15634"/><path d="M521.10831,528.59973l1.47307,-1.23605" stroke-width="0.15634"/><path d="M521.10831,528.59973l0.96148,1.66533" stroke-width="0.15634"/><path d="M517.05841,530.93794l0.96148,1.66533" stroke-width="0.15634"/><path d="M517.05841,530.93794l-1.80699,0.65769" stroke-width="0.15634"/><path d="M510.90449,534.49091l1.47307,-1.23605" stroke-width="0.15634"/><path d="M510.90449,534.49091l0.96148,1.66533" stroke-width="0.15634"/><path d="M506.85459,536.82912l0.96148,1.66533" stroke-width="0.15634"/><path d="M506.85459,536.82912l-1.80699,0.65769" stroke-width="0.15634"/><path d="M499.87936,534.29034l0.96148,1.66533" stroke-width="0.15634"/><path d="M499.87936,534.29034l-1.80699,0.65769" stroke-width="0.15634"/><path d="M498.27993,529.89595l-1.80699,0.65769" stroke-width="0.15634"/><path d="M498.27993,529.89595l-0.33392,-1.89375" stroke-width="0.15634"/><path d="M512.69496,547.07511l1.80699,0.65769" stroke-width="0.15634"/><path d="M512.69496,547.07511l-0.96148,1.66533" stroke-width="0.15634"/><path d="M508.64506,544.7369l-0.96148,1.66533" stroke-width="0.15634"/><path d="M508.64506,544.7369l-1.47307,-1.23605" stroke-width="0.15634"/><path d="M507.35609,537.42678l-0.96148,1.66533" stroke-width="0.15634"/><path d="M507.35609,537.42678l-1.47307,-1.23605" stroke-width="0.15634"/><path d="M510.36203,533.84444l-1.47307,-1.23605" stroke-width="0.15634"/><path d="M510.36203,533.84444l1.47307,-1.23605" stroke-width="0.15634"/><path d="M514.92964,528.40097l-0.96148,1.66533" stroke-width="0.15634"/><path d="M514.92964,528.40097l-1.47307,-1.23605" stroke-width="0.15634"/><path d="M517.93559,524.81862l-1.47307,-1.23605" stroke-width="0.15634"/><path d="M517.93559,524.81862l1.47307,-1.23605" stroke-width="0.15634"/><path d="M525.35848,524.81862l-1.47307,-1.23605" stroke-width="0.15634"/><path d="M525.35848,524.81862l1.47307,-1.23605" stroke-width="0.15634"/><path d="M528.36442,528.40097l1.47307,-1.23605" stroke-width="0.15634"/><path d="M528.36442,528.40097l0.96148,1.66533" stroke-width="0.15634"/><path d="M533.63181,528.40097l-0.96148,1.66533" stroke-width="0.15634"/><path d="M533.63181,528.40097l-1.47307,-1.23605" stroke-width="0.15634"/><path d="M536.63775,524.81862l-1.47307,-1.23605" stroke-width="0.15634"/><path d="M536.63775,524.81862l1.47307,-1.23605" stroke-width="0.15634"/><path d="M544.06064,524.81862l-1.47307,-1.23605" stroke-width="0.15634"/><path d="M544.06064,524.81862l1.47307,-1.23605" stroke-width="0.15634"/><path d="M547.06658,528.40097l1.47307,-1.23605" stroke-width="0.15634"/><path d="M547.06658,528.40097l0.96148,1.66533" stroke-width="0.15634"/><path d="M551.63419,533.84444l-1.47307,-1.23605" stroke-width="0.15634"/><path d="M551.63419,533.84444l1.47307,-1.23605" stroke-width="0.15634"/><path d="M554.64014,537.42678l1.47307,-1.23605" stroke-width="0.15634"/><path d="M554.64014,537.42678l0.96148,1.66533" stroke-width="0.15634"/><path d="M553.35117,544.7369l1.47307,-1.23605" stroke-width="0.15634"/><path d="M553.35117,544.7369l0.96148,1.66533" stroke-width="0.15634"/><path d="M549.30127,547.07511l0.96148,1.66533" stroke-width="0.15634"/><path d="M549.30127,547.07511l-1.80699,0.65769" stroke-width="0.15634"/><path d="M552.71358,551.14174l-0.96148,1.66533" stroke-width="0.15634"/><path d="M552.71358,551.14174l-1.47307,-1.23605" stroke-width="0.15634"/><path d="M555.71953,547.5594l-1.47307,-1.23605" stroke-width="0.15634"/><path d="M555.71953,547.5594l1.47307,-1.23605" stroke-width="0.15634"/><path d="M563.14241,547.5594l-1.47307,-1.23605" stroke-width="0.15634"/><path d="M563.14241,547.5594l1.47307,-1.23605" stroke-width="0.15634"/><path d="M566.14836,551.14174l1.47307,-1.23605" stroke-width="0.15634"/><path d="M566.14836,551.14174l0.96148,1.66533" stroke-width="0.15634"/><path d="M570.71597,556.58521l-1.47307,-1.23605" stroke-width="0.15634"/><path d="M570.71597,556.58521l1.47307,-1.23605" stroke-width="0.15634"/><path d="M573.72191,560.16755l1.47307,-1.23605" stroke-width="0.15634"/><path d="M573.72191,560.16755l0.96148,1.66533" stroke-width="0.15634"/><path d="M572.43294,567.47767l1.47307,-1.23605" stroke-width="0.15634"/><path d="M572.43294,567.47767l0.96148,1.66533" stroke-width="0.15634"/><path d="M568.38305,569.81588l0.96148,1.66533" stroke-width="0.15634"/><path d="M568.38305,569.81588l-1.80699,0.65769" stroke-width="0.15634"/><path d="M567.46837,575.00324l-1.47307,-1.23605" stroke-width="0.15634"/><path d="M567.46837,575.00324l1.47307,-1.23605" stroke-width="0.15634"/><path d="M570.47432,578.58559l1.47307,-1.23605" stroke-width="0.15634"/><path d="M570.47432,578.58559l0.96148,1.66533" stroke-width="0.15634"/><path d="M569.18535,585.89571l1.47307,-1.23605" stroke-width="0.15634"/><path d="M569.18535,585.89571l0.96148,1.66533" stroke-width="0.15634"/><path d="M565.13545,588.23392l0.96148,1.66533" stroke-width="0.15634"/><path d="M565.13545,588.23392l-1.80699,0.65769" stroke-width="0.15634"/><path d="M558.98152,591.78689l1.47307,-1.23605" stroke-width="0.15634"/><path d="M558.98152,591.78689l0.96148,1.66533" stroke-width="0.15634"/><path d="M554.93162,594.1251l0.96148,1.66533" stroke-width="0.15634"/><path d="M554.93162,594.1251l-1.80699,0.65769" stroke-width="0.15634"/><path d="M547.95639,591.58632l0.96148,1.66533" stroke-width="0.15634"/><path d="M547.95639,591.58632l-1.80699,0.65769" stroke-width="0.15634"/><path d="M546.35696,587.19192l-1.80699,0.65769" stroke-width="0.15634"/><path d="M546.35696,587.19192l-0.33392,-1.89375" stroke-width="0.15634"/><path d="M544.53118,597.54646l-0.96148,1.66533" stroke-width="0.15634"/><path d="M544.53118,597.54646l-1.47307,-1.23605" stroke-width="0.15634"/><path d="M547.53712,593.96412l-1.47307,-1.23605" stroke-width="0.15634"/><path d="M547.53712,593.96412l1.47307,-1.23605" stroke-width="0.15634"/><path d="M554.96001,593.96412l-1.47307,-1.23605" stroke-width="0.15634"/><path d="M554.96001,593.96412l1.47307,-1.23605" stroke-width="0.15634"/><path d="M557.96595,597.54646l1.47307,-1.23605" stroke-width="0.15634"/><path d="M557.96595,597.54646l0.96148,1.66533" stroke-width="0.15634"/><path d="M562.53357,602.98993l-1.47307,-1.23605" stroke-width="0.15634"/><path d="M562.53357,602.98993l1.47307,-1.23605" stroke-width="0.15634"/><path d="M565.53951,606.57228l1.47307,-1.23605" stroke-width="0.15634"/><path d="M565.53951,606.57228l0.96148,1.66533" stroke-width="0.15634"/><path d="M564.25054,613.8824l1.47307,-1.23605" stroke-width="0.15634"/><path d="M564.25054,613.8824l0.96148,1.66533" stroke-width="0.15634"/><path d="M560.20064,616.2206l0.96148,1.66533" stroke-width="0.15634"/><path d="M560.20064,616.2206l-1.80699,0.65769" stroke-width="0.15634"/><path d="M559.28597,621.40797l-1.47307,-1.23605" stroke-width="0.15634"/><path d="M559.28597,621.40797l1.47307,-1.23605" stroke-width="0.15634"/><path d="M562.29191,624.99031l1.47307,-1.23605" stroke-width="0.15634"/><path d="M562.29191,624.99031l0.96148,1.66533" stroke-width="0.15634"/><path d="M561.00294,632.30043l1.47307,-1.23605" stroke-width="0.15634"/><path d="M561.00294,632.30043l0.96148,1.66533" stroke-width="0.15634"/><path d="M556.95304,634.63864l0.96148,1.66533" stroke-width="0.15634"/><path d="M556.95304,634.63864l-1.80699,0.65769" stroke-width="0.15634"/><path d="M550.79912,638.19161l1.47307,-1.23605" stroke-width="0.15634"/><path d="M550.79912,638.19161l0.96148,1.66533" stroke-width="0.15634"/><path d="M546.74922,640.52982l0.96148,1.66533" stroke-width="0.15634"/><path d="M546.74922,640.52982l-1.80699,0.65769" stroke-width="0.15634"/><path d="M539.77399,637.99104l0.96148,1.66533" stroke-width="0.15634"/><path d="M539.77399,637.99104l-1.80699,0.65769" stroke-width="0.15634"/><path d="M538.17456,633.59665l-1.80699,0.65769" stroke-width="0.15634"/><path d="M538.17456,633.59665l-0.33392,-1.89375" stroke-width="0.15634"/><path d="M533.57716,636.25095l-1.47307,-1.23605" stroke-width="0.15634"/><path d="M533.57716,636.25095l1.47307,-1.23605" stroke-width="0.15634"/><path d="M536.58311,639.8333l1.47307,-1.23605" stroke-width="0.15634"/><path d="M536.58311,639.8333l0.96148,1.66533" stroke-width="0.15634"/><path d="M535.29414,647.14342l1.47307,-1.23605" stroke-width="0.15634"/><path d="M535.29414,647.14342l0.96148,1.66533" stroke-width="0.15634"/><path d="M531.24424,649.48163l0.96148,1.66533" stroke-width="0.15634"/><path d="M531.24424,649.48163l-1.80699,0.65769" stroke-width="0.15634"/><path d="M525.09031,653.0346l1.47307,-1.23605" stroke-width="0.15634"/><path d="M525.09031,653.0346l0.96148,1.66533" stroke-width="0.15634"/><path d="M521.04041,655.37281l0.96148,1.66533" stroke-width="0.15634"/><path d="M521.04041,655.37281l-1.80699,0.65769" stroke-width="0.15634"/><path d="M514.06518,652.83403l0.96148,1.66533" stroke-width="0.15634"/><path d="M514.06518,652.83403l-1.80699,0.65769" stroke-width="0.15634"/><path d="M512.46575,648.43963l-1.80699,0.65769" stroke-width="0.15634"/><path d="M512.46575,648.43963l-0.33392,-1.89375" stroke-width="0.15634"/><path d="M507.51603,646.63808l1.47307,-1.23605" stroke-width="0.15634"/><path d="M507.51603,646.63808l0.96148,1.66533" stroke-width="0.15634"/><path d="M503.46613,648.97629l0.96148,1.66533" stroke-width="0.15634"/><path d="M503.46613,648.97629l-1.80699,0.65769" stroke-width="0.15634"/><path d="M496.4909,646.43751l0.96148,1.66533" stroke-width="0.15634"/><path d="M496.4909,646.43751l-1.80699,0.65769" stroke-width="0.15634"/><path d="M494.89147,642.04312l-1.80699,0.65769" stroke-width="0.15634"/><path d="M494.89147,642.04312l-0.33392,-1.89375" stroke-width="0.15634"/><path d="M492.46109,635.36571l0.96148,1.66533" stroke-width="0.15634"/><path d="M492.46109,635.36571l-1.80699,0.65769" stroke-width="0.15634"/><path d="M490.86166,630.97132l-1.80699,0.65769" stroke-width="0.15634"/><path d="M490.86166,630.97132l-0.33392,-1.89375" stroke-width="0.15634"/><path d="M494.57311,624.54291l-1.80699,0.65769" stroke-width="0.15634"/><path d="M494.57311,624.54291l-0.33392,-1.89375" stroke-width="0.15634"/><path d="M499.17848,623.73086l-0.33392,-1.89375" stroke-width="0.15634"/><path d="M499.17848,623.73086l1.92296,0" stroke-width="0.15634"/></g></svg>