<?xml version="1.0" encoding="utf-8"?>
<!-- Generator: Adobe Illustrator 19.2.1, SVG Export Plug-In . SVG Version: 6.00 Build 0)  -->
<svg version="1.1" id="Capa_1" xmlns="http://www.w3.org/2000/svg" xmlns:xlink="http://www.w3.org/1999/xlink" x="0px" y="0px"
	 viewBox="0 0 272 428" style="enable-background:new 0 0 272 428;" xml:space="preserve">
<style type="text/css">
	.st0{fill:#FFFFFF;}
</style>
<g>
	<path class="st0" d="M195,414.9H33.9c-10.4,0-19-8.5-19-19v-77.4c0-10.5,8.6-19,19-19H195c10.4,0,19,8.5,19,19v77.4
		C214,406.4,205.5,414.9,195,414.9z"/>
	<path class="st0" d="M158.5,343.4h-88c-10.4,0-19-8.5-19-19v-48.2c0-10.5,8.6-19,19-19h88c10.4,0,19,8.5,19,19v48.2
		C177.5,334.8,168.9,343.4,158.5,343.4z"/>
	<path class="st0" d="M172.2,281.6H56.7c-9.8,0-17.9-8-17.9-17.9v0c0-9.8,8-17.9,17.9-17.9h115.4c9.8,0,17.9,8,17.9,17.9v0
		C190.1,273.6,182,281.6,172.2,281.6z"/>
	<path class="st0" d="M217.8,137.7l21.6,9.6c34-67.5,19.9-137.2,19.9-137.2c-40.7,66.7-145.5,253.7-145.5,253.7v12.2l37.4-41.5
		c37.8-19.7,63-45.2,79.7-72L217.8,137.7z"/>
</g>
</svg>
